
    <svg width='100%' viewbox='0 0 350 380' xmlns='http://www.w3.org/2000/svg' xmlns:svg='http://www.w3.org/2000/svg'>
  <path d="m315.23181,20.33472c-9,-4 -90,12 -108.23181,35.66528c-18.23181,23.66528 -135.76819,182.33472 -132,198c3.76819,15.66528 41.23181,53.33472 57,55c15.76819,1.66528 152.23181,-147.66528 176,-172c23.76819,-24.33472 16.23181,-112.66528 7.23181,-116.66528z" fill="#7f7f7f" id="svg_42" stroke="#666666" stroke-width="5"/>
  <path d="m182.23181,344.33472l-21.23181,-45.33472c12.33333,-12 40.66667,-42 37,-36c3.33333,19.66667 13.66667,48.33333 10,59c-3.66667,10.66667 -27.17879,28.88981 -25.76819,22.33472z" fill="#7f7f7f" id="svg_43" stroke="#666666" stroke-width="5"/>
  <path d="m80.23181,222.33472c7.92273,-11.77824 18.84546,-26.55648 23.76819,-35.33472c4.92273,-8.77824 -46.66667,-6 -57,-2c-9.33333,9 -24.07727,19.88843 -21,24c3.07727,4.11157 38.15454,8.22314 54.23181,13.33472z" fill="#7f7f7f" id="svg_47" stroke="#666666" stroke-width="5"/>
  <path d="m61.23181,275.33472c-9.07727,2.55509 -22.23181,66.33195 -13.23181,72.66528c9,6.33333 70,-17.33333 68,-23l-18,-11l-27,9l5,-34l-14.76819,-13.66528z" fill="#7f7f7f" id="svg_48" stroke="#666666" stroke-width="5"/>
    </svg>