<svg width='100%' viewbox='0 0 400 40' xmlns="http://www.w3.org/2000/svg" xmlns:svg="http://www.w3.org/2000/svg">
 <g class="layer">
  <title>Layer 1</title>
  <path d="m96.12788,12.19134c-0.0913,0.00178 -0.17953,0.00653 -0.27121,0.01216c-1.46686,0.09013 -2.76152,0.66439 -3.41923,1.52007l-0.3487,0.64755c0.07523,-0.22441 0.19074,-0.44204 0.3487,-0.64755c-1.17293,-0.74966 -2.81925,-1.09567 -4.44596,-0.93332c-1.62672,0.16235 -3.03945,0.81343 -3.81152,1.7572c-2.17956,-0.82809 -4.89643,-0.77794 -6.99828,0.13073c-2.10184,0.90866 -3.22212,2.51752 -2.88164,4.14068l0.22278,0.65971c-0.10067,-0.21613 -0.17586,-0.436 -0.22278,-0.65971l-0.0339,0.0608c-1.82705,0.12283 -3.32546,0.99731 -3.71466,2.16762c-0.3892,1.17032 0.42009,2.37115 2.00504,2.9763l2.47482,0.3709c-0.86414,0.04388 -1.72688,-0.08532 -2.47482,-0.3709c-1.22253,0.84478 -1.50385,2.09544 -0.69741,3.12831c0.80644,1.03286 2.52871,1.62759 4.30551,1.49271l1.08001,-0.17633c-0.3475,0.08973 -0.7084,0.14812 -1.08001,0.17633c1.00868,1.14547 2.68119,1.98105 4.64453,2.31355c1.96334,0.3325 4.04874,0.13599 5.7875,-0.54418c1.41849,1.37994 3.9361,2.10473 6.46069,1.86057c2.5246,-0.24416 4.60714,-1.415 5.34678,-3.00366l0.25668,-0.88772c-0.03843,0.30159 -0.12183,0.59809 -0.25668,0.88772c1.73645,0.70246 3.92071,0.74205 5.71486,0.10336c1.79415,-0.63868 2.91365,-1.85658 2.93007,-3.18303l-0.64321,-1.98191l-2.53386,-1.34097c1.95931,0.75712 3.19455,1.91066 3.17707,3.32288c2.32972,0.01506 4.30865,-1.2164 5.19664,-2.62973c0.888,-1.41332 0.55208,-3.02459 -0.88145,-4.23492c0.5946,-0.90114 0.55933,-1.92619 -0.09686,-2.80909c-0.65619,-0.88291 -1.86658,-1.53913 -3.32237,-1.79673c-0.32579,-1.17019 -1.66869,-2.11147 -3.44344,-2.41996c-1.77476,-0.30848 -3.66455,0.0719 -4.85278,0.97893l-0.72162,0.75092c0.18439,-0.27155 0.42521,-0.52466 0.72162,-0.75092c-0.83762,-0.71285 -2.15138,-1.11509 -3.52093,-1.08837l0,0l0.00002,0z" fill="#cccccc" id="svg_15" stroke="#666666" stroke-width="5" transform="rotate(3.9073, 91.5965, 22.2563)"/>
  <path d="m263.91217,18.51637c-0.02977,0.00136 -0.05853,0.00497 -0.08843,0.00927c-0.47825,0.06867 -0.90036,0.50622 -1.11479,1.1582l-0.11369,0.49339c0.02453,-0.17098 0.06219,-0.33681 0.11369,-0.49339c-0.38242,-0.57119 -0.91918,-0.83483 -1.44955,-0.71113c-0.53037,0.1237 -0.99097,0.61978 -1.24269,1.33887c-0.71062,-0.63095 -1.59642,-0.59274 -2.28169,0.09961c-0.68528,0.69234 -1.05053,1.91818 -0.93952,3.15492l0.07264,0.50266c-0.03282,-0.16468 -0.05734,-0.3322 -0.07264,-0.50266l-0.01105,0.04633c-0.59568,0.09359 -1.08422,0.75988 -1.21111,1.65159c-0.12689,0.89171 0.13697,1.80666 0.65372,2.26775l0.80688,0.2826c-0.28174,0.03343 -0.56303,-0.06501 -0.80688,-0.2826c-0.39859,0.64366 -0.49031,1.59659 -0.22738,2.38357c0.26293,0.78698 0.82445,1.24012 1.40375,1.13735l0.35212,-0.13435c-0.1133,0.06836 -0.23096,0.11286 -0.35212,0.13435c0.32886,0.87277 0.87417,1.50943 1.51429,1.76277c0.64012,0.25334 1.32004,0.10362 1.88694,-0.41463c0.46248,1.05142 1.28331,1.60367 2.10642,1.41763c0.82311,-0.18604 1.50209,-1.07814 1.74324,-2.28859l0.08369,-0.67639c-0.01253,0.22979 -0.03972,0.4557 -0.08369,0.67639c0.56615,0.53523 1.27829,0.56539 1.86325,0.07876c0.58496,-0.48664 0.94996,-1.41459 0.95531,-2.42526l-0.20971,-1.51009l-0.82613,-1.02173c0.63881,0.57688 1.04154,1.4558 1.03584,2.53182c0.75957,0.01148 1.40478,-0.92682 1.69429,-2.00368c0.28952,-1.07686 0.18,-2.30454 -0.28738,-3.22673c0.19386,-0.68661 0.18236,-1.46763 -0.03158,-2.14035c-0.21394,-0.67272 -0.60857,-1.17271 -1.08321,-1.36899c-0.10622,-0.8916 -0.54405,-1.6088 -1.12269,-1.84385c-0.57864,-0.23504 -1.19478,0.05479 -1.58218,0.74588l-0.23527,0.57215c0.06012,-0.2069 0.13863,-0.39976 0.23527,-0.57215c-0.27309,-0.54315 -0.70143,-0.84963 -1.14795,-0.82927l0,0l-0.00001,-0.00002z" fill="#cccccc" id="svg_16" stroke="#666666" stroke-width="5" transform="rotate(-86.1971, 262.435, 26.1853)"/>
  <path d="m213.19669,15.87285c-0.07785,0.00141 -0.15307,0.00516 -0.23124,0.00962c-1.25066,0.07128 -2.35451,0.52546 -2.91528,1.20223l-0.29731,0.51215c0.06414,-0.17748 0.16263,-0.34961 0.29731,-0.51215c-1.00005,-0.59291 -2.40373,-0.86657 -3.79069,-0.73817c-1.38696,0.1284 -2.59147,0.64334 -3.24975,1.38977c-1.85832,-0.65494 -4.17476,-0.61527 -5.96682,0.10339c-1.79206,0.71866 -2.74722,1.99111 -2.45693,3.27486l0.18995,0.52177c-0.08584,-0.17094 -0.14994,-0.34483 -0.18995,-0.52177l-0.02891,0.04809c-1.55777,0.09714 -2.83533,0.78877 -3.16716,1.71437c-0.33184,0.9256 0.35818,1.87534 1.70952,2.35396l2.11007,0.29334c-0.73678,0.0347 -1.47236,-0.06748 -2.11007,-0.29334c-1.04234,0.66813 -1.2822,1.65729 -0.59462,2.47418c0.68758,0.81689 2.15601,1.28726 3.67094,1.18058l0.92083,-0.13946c-0.29628,0.07096 -0.60399,0.11715 -0.92083,0.13946c0.86001,0.90595 2.28602,1.56681 3.95999,1.82979c1.67397,0.26298 3.45201,0.10755 4.9345,-0.4304c1.20942,1.09139 3.35597,1.66463 5.50847,1.47152c2.1525,-0.19311 3.92811,-1.11913 4.55873,-2.3756l0.21885,-0.7021c-0.03277,0.23852 -0.10388,0.47303 -0.21885,0.7021c1.48052,0.55558 3.34284,0.58689 4.87256,0.08175c1.52972,-0.50514 2.48422,-1.46837 2.49822,-2.51746l-0.54841,-1.56749l-2.1604,-1.06057c1.67053,0.59881 2.72372,1.51114 2.70881,2.62806c1.98635,0.01191 3.67361,-0.96205 4.43073,-2.07985c0.75712,-1.1178 0.47071,-2.39215 -0.75153,-3.3494c0.50697,-0.71271 0.47689,-1.52342 -0.08258,-2.22171c-0.55948,-0.69829 -1.59147,-1.2173 -2.83269,-1.42103c-0.27777,-0.9255 -1.42274,-1.66996 -2.93592,-1.91394c-1.51318,-0.24398 -3.12444,0.05687 -4.13755,0.77423l-0.61526,0.5939c0.15721,-0.21477 0.36254,-0.41495 0.61526,-0.5939c-0.71416,-0.5638 -1.8343,-0.88193 -3.00199,-0.86079l0,0l0,0.00001z" fill="#cccccc" id="svg_18" stroke="#666666" stroke-width="5" transform="rotate(-171.395, 209.332, 23.832)"/>
  <path d="m155.25854,12.91322c-0.07785,0.00141 -0.15307,0.00516 -0.23124,0.00962c-1.25066,0.07128 -2.35451,0.52546 -2.91528,1.20223l-0.29731,0.51215c0.06414,-0.17748 0.16263,-0.34961 0.29731,-0.51215c-1.00005,-0.59291 -2.40373,-0.86657 -3.79069,-0.73817c-1.38696,0.1284 -2.59147,0.64334 -3.24975,1.38977c-1.85832,-0.65494 -4.17476,-0.61527 -5.96682,0.10339c-1.79206,0.71866 -2.74722,1.99111 -2.45693,3.27486l0.18995,0.52177c-0.08584,-0.17094 -0.14994,-0.34483 -0.18995,-0.52177l-0.02891,0.04809c-1.55777,0.09714 -2.83533,0.78877 -3.16716,1.71437c-0.33184,0.9256 0.35818,1.87534 1.70952,2.35396l2.11007,0.29334c-0.73678,0.0347 -1.47236,-0.06748 -2.11007,-0.29334c-1.04234,0.66813 -1.2822,1.65729 -0.59462,2.47418c0.68758,0.81689 2.15601,1.28726 3.67094,1.18058l0.92083,-0.13946c-0.29628,0.07096 -0.60399,0.11715 -0.92083,0.13946c0.86001,0.90595 2.28602,1.56681 3.95999,1.82979c1.67397,0.26298 3.45201,0.10755 4.9345,-0.4304c1.20942,1.09139 3.35597,1.66463 5.50847,1.47152c2.1525,-0.19311 3.92811,-1.11913 4.55873,-2.3756l0.21885,-0.7021c-0.03277,0.23852 -0.10388,0.47303 -0.21885,0.7021c1.48052,0.55558 3.34284,0.58689 4.87256,0.08175c1.52972,-0.50514 2.48422,-1.46837 2.49822,-2.51746l-0.54841,-1.56749l-2.1604,-1.06057c1.67053,0.59881 2.72372,1.51114 2.70881,2.62806c1.98635,0.01191 3.67361,-0.96205 4.43073,-2.07985c0.75712,-1.1178 0.47071,-2.39215 -0.75153,-3.3494c0.50697,-0.71271 0.47689,-1.52342 -0.08258,-2.22171c-0.55948,-0.69829 -1.59147,-1.2173 -2.83269,-1.42103c-0.27777,-0.9255 -1.42274,-1.66996 -2.93592,-1.91394c-1.51318,-0.24398 -3.12444,0.05687 -4.13755,0.77423l-0.61526,0.5939c0.15721,-0.21477 0.36254,-0.41495 0.61526,-0.5939c-0.71416,-0.5638 -1.8343,-0.88193 -3.00199,-0.86079l0,0l0,0.00001z" fill="#cccccc" id="svg_19" stroke="#666666" stroke-width="5" transform="rotate(-171.395, 151.394, 20.8724)"/>
  <path d="m42.80723,11.64072c-0.04902,0.00235 -0.09638,0.00862 -0.1456,0.01606c-0.7875,0.11901 -1.48255,0.87727 -1.83564,2.00713l-0.18721,0.85504c0.04039,-0.29631 0.1024,-0.58368 0.18721,-0.85504c-0.6297,-0.98986 -1.51354,-1.44675 -2.38685,-1.23238c-0.87332,0.21437 -1.63175,1.07407 -2.04624,2.32024c-1.17012,-1.09342 -2.62869,-1.0272 -3.75708,0.17261c-1.12839,1.19981 -1.72982,3.32418 -1.54703,5.46742l0.1196,0.8711c-0.05405,-0.28538 -0.09441,-0.5757 -0.1196,-0.8711l-0.0182,0.08029c-0.98087,0.16218 -1.7853,1.31686 -1.99424,2.86217c-0.20895,1.54531 0.22553,3.1309 1.07642,3.92996l1.32863,0.48974c-0.46392,0.05794 -0.92709,-0.11266 -1.32863,-0.48974c-0.65632,1.11546 -0.80735,2.76686 -0.37441,4.13068c0.43295,1.36381 1.35756,2.1491 2.31145,1.971l0.57981,-0.23283c-0.18656,0.11847 -0.38031,0.19558 -0.57981,0.23283c0.54152,1.5125 1.43942,2.61581 2.49345,3.05485c1.05403,0.43904 2.1736,0.17956 3.10707,-0.71855c0.76153,1.82209 2.11313,2.77913 3.46848,2.45673c1.35535,-0.3224 2.47338,-1.8684 2.87046,-3.96609l0.1378,-1.17217c-0.02063,0.39822 -0.06541,0.78973 -0.1378,1.17217c0.93223,0.92754 2.10486,0.97982 3.06807,0.13648c0.9632,-0.84333 1.56422,-2.45146 1.57304,-4.20293l-0.34532,-2.61695l-1.36032,-1.77064c1.05187,0.99971 1.71502,2.52288 1.70564,4.38759c1.25073,0.01989 2.31313,-1.60616 2.78986,-3.47234c0.47673,-1.86618 0.29639,-3.99373 -0.47321,-5.59187c0.31922,-1.18988 0.30028,-2.54337 -0.052,-3.70918c-0.35228,-1.16581 -1.00209,-2.03229 -1.78364,-2.37243c-0.1749,-1.54513 -0.89585,-2.78803 -1.84864,-3.19535c-0.95279,-0.40732 -1.96734,0.09494 -2.60526,1.29259l-0.38741,0.99152c0.09899,-0.35856 0.22828,-0.69277 0.38741,-0.99152c-0.44968,-0.94126 -1.15499,-1.47239 -1.89024,-1.43711l0,0l-0.00002,0.00002z" fill="#cccccc" id="svg_20" stroke="#666666" stroke-width="5" transform="rotate(-86.1971, 40.3748, 24.9323)"/>
 </g>

</svg>