<?xml version="1.0" standalone="no"?>
<!DOCTYPE svg PUBLIC "-//W3C//DTD SVG 1.1//EN" "http://www.w3.org/Graphics/SVG/1.1/DTD/svg11.dtd" >
<svg xmlns="http://www.w3.org/2000/svg" xmlns:xlink="http://www.w3.org/1999/xlink" version="1.1">
<metadata>
Created by FontForge 20170731 at Fri Jan 11 13:45:33 2019
 By Aleksey,,,
Copyright (c) 2019 by Typetype. Designer Ivan Gladkikh, technical designers Philipp Nurullin, Marina Khodak, Nadezhda Polomoshnova, Roman Ershov. All rights reserved. Desktop use is strictly prohibited.
</metadata>
<defs>
<font id="TTSupermolotNeue-Bold" horiz-adv-x="1136" >
  <font-face 
    font-family="TT Supermolot Neue Bold"
    font-weight="700"
    font-stretch="normal"
    units-per-em="2048"
    panose-1="2 0 8 3 3 0 0 2 0 4"
    ascent="1638"
    descent="-410"
    x-height="1044"
    cap-height="1434"
    bbox="-369 -584 2945 1935"
    underline-thickness="0"
    underline-position="0"
    unicode-range="U+000D-FB06"
  />
<missing-glyph horiz-adv-x="0" 
 />
    <glyph glyph-name="uniFB00" unicode="ff" horiz-adv-x="1505" 
d="M123 0v1167q0 106 80 186.5t186 80.5h318q63 0 114 -29t72 -57l18 -27h11q6 12 20 30.5t67.5 50.5t116.5 32h410v-246h-287q-53 0 -77.5 -24.5t-24.5 -78.5v-143h276v-154l-51 -92h-225v-696h-297v1085q0 53 -24.5 78t-77.5 25h-226q-53 0 -77.5 -24.5t-24.5 -78.5v-143
h276v-154l-51 -92h-225v-696h-297z" />
    <glyph glyph-name="uniFB01" unicode="fi" horiz-adv-x="1259" 
d="M123 0v1167q0 106 80 186.5t186 80.5h717v-246h-584q-53 0 -77.5 -24.5t-24.5 -78.5v-143h727v-942h-297v696h-430v-696h-297z" />
    <glyph glyph-name="uniFB02" unicode="fl" horiz-adv-x="1269" 
d="M123 0v1167q0 106 80 186.5t186 80.5h758v-1434h-297v1188h-328q-53 0 -77.5 -24.5t-24.5 -78.5v-143h276v-154l-51 -92h-225v-696h-297z" />
    <glyph glyph-name="uniFB03" unicode="ffi" horiz-adv-x="1986" 
d="M123 0v1167q0 106 80 186.5t186 80.5h318q63 0 114 -29t72 -57l18 -27h11q6 12 20 30.5t67.5 50.5t116.5 32h707v-246h-584q-53 0 -77.5 -24.5t-24.5 -78.5v-143h727v-942h-297v696h-430v-696h-297v1085q0 53 -24.5 78t-77.5 25h-226q-53 0 -77.5 -24.5t-24.5 -78.5v-143
h276v-154l-51 -92h-225v-696h-297z" />
    <glyph glyph-name="uniFB04" unicode="ffl" horiz-adv-x="1996" 
d="M123 0v1167q0 106 80 186.5t186 80.5h318q63 0 114 -29t72 -57l18 -27h11q6 12 20 30.5t67.5 50.5t116.5 32h748v-1434h-297v1188h-328q-53 0 -77.5 -24.5t-24.5 -78.5v-143h276v-154l-51 -92h-225v-696h-297v1085q0 53 -24.5 78t-77.5 25h-226q-53 0 -77.5 -24.5
t-24.5 -78.5v-143h276v-154l-51 -92h-225v-696h-297z" />
    <glyph glyph-name="f_b.liga" unicode="fb" horiz-adv-x="1873" 
d="M1147 266h235q53 0 78 24.5t25 78.5v327q0 53 -24.5 78t-78.5 25h-92q-78 0 -110.5 -33t-32.5 -111v-389zM123 0v1167q0 106 80 186.5t186 80.5h758v-502h10q2 6 7 14t24.5 31.5t43 41t64.5 32t86 14.5h134q106 0 186 -80t80 -186v-533q0 -111 -77 -188.5t-189 -77.5
h-666v1188h-328q-53 0 -77.5 -24.5t-24.5 -78.5v-143h276v-154l-51 -92h-225v-696h-297z" />
    <glyph glyph-name="f_f_b.liga" unicode="ffb" horiz-adv-x="2600" 
d="M1874 266h235q53 0 78 24.5t25 78.5v327q0 53 -24.5 78t-78.5 25h-92q-76 0 -109.5 -33t-33.5 -111v-389zM123 0v1167q0 106 80 186.5t186 80.5h318q63 0 114 -29t72 -57l18 -27h11q6 12 20 30.5t67.5 50.5t116.5 32h748v-502h10q2 6 7 14t24.5 31.5t43 41t64.5 32
t86 14.5h134q109 0 187.5 -80t78.5 -186v-533q0 -111 -77 -188.5t-189 -77.5h-666v1188h-328q-53 0 -77.5 -24.5t-24.5 -78.5v-143h276v-154l-51 -92h-225v-696h-297v1085q0 53 -24.5 78t-77.5 25h-226q-53 0 -77.5 -24.5t-24.5 -78.5v-143h276v-154l-51 -92h-225v-696h-297
z" />
    <glyph glyph-name="f_f_f.liga" unicode="fff" horiz-adv-x="2232" 
d="M123 0v1167q0 106 80 186.5t186 80.5h318q63 0 114 -29t72 -57l18 -27h11q6 12 20 30.5t67.5 50.5t116.5 32h308q63 0 114 -29t70 -57l20 -27h11q6 12 20 30.5t67.5 50.5t116.5 32h410v-246h-287q-53 0 -77.5 -24.5t-24.5 -78.5v-143h276v-154l-51 -92h-225v-696h-297
v1085q0 53 -24.5 78t-77.5 25h-226q-53 0 -77.5 -24.5t-24.5 -78.5v-143h276v-154l-51 -92h-225v-696h-297v1085q0 53 -24.5 78t-77.5 25h-226q-53 0 -77.5 -24.5t-24.5 -78.5v-143h276v-154l-51 -92h-225v-696h-297z" />
    <glyph glyph-name="f_f_h.liga" unicode="ffh" horiz-adv-x="2590" 
d="M123 0v1167q0 106 80 186.5t186 80.5h318q63 0 114 -29t72 -57l18 -27h11q6 12 20 30.5t67.5 50.5t116.5 32h748v-502h10q2 6 7 14t25.5 31.5t45.5 41t67 32t91 14.5h92q106 0 186 -80t80 -186v-799h-297v696q0 53 -24.5 78t-77.5 25h-62q-76 0 -109.5 -33t-33.5 -111
v-655h-297v1188h-328q-53 0 -77.5 -24.5t-24.5 -78.5v-143h276v-154l-51 -92h-225v-696h-297v1085q0 53 -24.5 78t-77.5 25h-226q-53 0 -77.5 -24.5t-24.5 -78.5v-143h276v-154l-51 -92h-225v-696h-297z" />
    <glyph glyph-name="f_f_j.liga" unicode="ffj" horiz-adv-x="1986" 
d="M123 0v1167q0 106 80 186.5t186 80.5h318q63 0 114 -29t72 -57l18 -27h11q6 12 20 30.5t67.5 50.5t116.5 32h707v-246h-584q-53 0 -77.5 -24.5t-24.5 -78.5v-143h727v-1024q0 -106 -79 -186t-187 -80h-236v266h82q123 0 123 123v655h-430v-696h-297v1085q0 53 -24.5 78
t-77.5 25h-226q-53 0 -77.5 -24.5t-24.5 -78.5v-143h276v-154l-51 -92h-225v-696h-297z" />
    <glyph glyph-name="f_f_k.liga" unicode="ffk" horiz-adv-x="2560" 
d="M123 0v1167q0 106 80 186.5t186 80.5h318q63 0 114 -29t72 -57l18 -27h11q6 12 20 30.5t67.5 50.5t116.5 32h748v-779h174l174 389h266v-143l-194 -369l215 -389v-143h-277l-194 399h-164v-399h-297v1188h-328q-53 0 -77.5 -24.5t-24.5 -78.5v-143h276v-154l-51 -92h-225
v-696h-297v1085q0 53 -24.5 78t-77.5 25h-226q-53 0 -77.5 -24.5t-24.5 -78.5v-143h276v-154l-51 -92h-225v-696h-297z" />
    <glyph glyph-name="f_f_t.liga" unicode="fft" horiz-adv-x="2222" 
d="M123 0v1167q0 106 80 186.5t186 80.5h318q63 0 114 -29t72 -57l18 -27h11q6 12 20 30.5t67.5 50.5t116.5 32h482q109 0 187.5 -80t78.5 -187v-225h246v-164l-82 -82h-164v-327q0 -53 24.5 -78t77.5 -25h174v-266h-307q-106 0 -186 80t-80 186v819q0 53 -24.5 78t-77.5 25
h-226q-53 0 -77.5 -24.5t-24.5 -78.5v-143h276v-154l-51 -92h-225v-696h-297v1085q0 53 -24.5 78t-77.5 25h-226q-53 0 -77.5 -24.5t-24.5 -78.5v-143h276v-154l-51 -92h-225v-696h-297z" />
    <glyph glyph-name="f_h.liga" unicode="fh" horiz-adv-x="1863" 
d="M123 0v1167q0 106 80 186.5t186 80.5h758v-502h10q2 6 7 14t25.5 31.5t45.5 41t66.5 32t91.5 14.5h92q109 0 187.5 -80t78.5 -186v-799h-297v696q0 53 -24.5 78t-77.5 25h-62q-78 0 -110.5 -33t-32.5 -111v-655h-297v1188h-328q-53 0 -77.5 -24.5t-24.5 -78.5v-143h276
v-154l-51 -92h-225v-696h-297z" />
    <glyph glyph-name="f_j.liga" unicode="fj" horiz-adv-x="1259" 
d="M123 0v1167q0 106 80 186.5t186 80.5h717v-246h-584q-53 0 -77.5 -24.5t-24.5 -78.5v-143h727v-1024q0 -106 -80 -186t-186 -80h-236v266h82q123 0 123 123v655h-430v-696h-297z" />
    <glyph glyph-name="f_k.liga" unicode="fk" horiz-adv-x="1832" 
d="M123 0v1167q0 106 80 186.5t186 80.5h758v-779h174l174 389h266v-143l-194 -369l215 -389v-143h-277l-194 399h-164v-399h-297v1188h-328q-53 0 -77.5 -24.5t-24.5 -78.5v-143h276v-154l-51 -92h-225v-696h-297z" />
    <glyph glyph-name="f_t.liga" unicode="ft" horiz-adv-x="1495" 
d="M123 0v1167q0 106 80 186.5t186 80.5h492q106 0 186 -80t80 -187v-225h246v-164l-82 -82h-164v-327q0 -53 24.5 -78t77.5 -25h174v-266h-307q-109 0 -187.5 80t-78.5 186v819q0 53 -24.5 78t-77.5 25h-226q-53 0 -77.5 -24.5t-24.5 -78.5v-143h276v-154l-51 -92h-225
v-696h-297z" />
    <glyph glyph-name=".notdef" horiz-adv-x="0" 
 />
    <glyph glyph-name="glyph1" horiz-adv-x="0" 
 />
    <glyph glyph-name="glyph1" horiz-adv-x="0" 
 />
    <glyph glyph-name="glyph2" horiz-adv-x="681" 
 />
    <glyph glyph-name="uni000D" unicode="&#xd;" horiz-adv-x="0" 
 />
    <glyph glyph-name="space" unicode=" " horiz-adv-x="512" 
 />
    <glyph glyph-name="exclam" unicode="!" horiz-adv-x="552" 
d="M174 471l-61 492v471h327v-471l-61 -492h-205zM143 0v307h267v-307h-267z" />
    <glyph glyph-name="quotedbl" unicode="&#x22;" horiz-adv-x="747" 
d="M133 973l-41 225v236h215v-236l-41 -225h-133zM481 973l-41 225v236h215v-236l-41 -225h-133z" />
    <glyph glyph-name="numbersign" unicode="#" horiz-adv-x="1382" 
d="M143 0l62 287h-174v256h235l82 348h-184v256h246l61 287h266l-61 -287h235l62 287h266l-61 -287h174v-256h-236l-82 -348h185v-256h-246l-62 -287h-266l62 287h-236l-61 -287h-267zM532 543h236l82 348h-236z" />
    <glyph glyph-name="dollar" unicode="$" horiz-adv-x="1187" 
d="M82 0v287h625q47 0 74.5 28.5t27.5 73.5v51q0 102 -102 123l-349 72q-125 25 -200.5 110.5t-75.5 206.5v174q0 139 84 223.5t223 84.5h72v194h297v-194h317v-195l-92 -92h-491q-45 0 -74 -28.5t-29 -74.5v-20q0 -102 103 -123l348 -72q125 -25 200.5 -110.5t75.5 -206.5
v-205q0 -139 -85 -223t-222 -84h-51v-195h-297v195h-379z" />
    <glyph glyph-name="percent" unicode="%" horiz-adv-x="1628" 
d="M307 0v113l830 1321h184v-113l-829 -1321h-185zM51 973v266q0 84 65.5 149.5t149.5 65.5h185q84 0 149.5 -65.5t65.5 -149.5v-266q0 -84 -65.5 -149.5t-149.5 -65.5h-185q-84 0 -149.5 65.5t-65.5 149.5zM348 952h21q45 0 63.5 17.5t18.5 64.5v144q0 47 -18.5 64.5
t-63.5 17.5h-21q-45 0 -63.5 -17.5t-18.5 -64.5v-144q0 -47 18.5 -64.5t63.5 -17.5zM963 195v266q0 84 65.5 149.5t149.5 65.5h184q84 0 149.5 -65.5t65.5 -149.5v-266q0 -84 -65.5 -149.5t-149.5 -65.5h-184q-84 0 -149.5 65.5t-65.5 149.5zM1260 174h20q47 0 64.5 17.5
t17.5 64.5v143q0 47 -17.5 64.5t-64.5 17.5h-20q-47 0 -64.5 -17.5t-17.5 -64.5v-143q0 -47 17.5 -64.5t64.5 -17.5z" />
    <glyph glyph-name="ampersand" unicode="&#x26;" horiz-adv-x="1228" 
d="M51 287v164q0 123 80 204.5t197 81.5v21q-14 10 -35 28.5t-54.5 82t-33.5 135.5v122q0 139 84 223.5t223 84.5h502v-195l-92 -92h-308q-53 0 -77.5 -24.5t-24.5 -78.5v-20q0 -41 51 -102l666 -768v-154h-297l-82 102h-21q-2 -4 -8 -13t-30.5 -29.5t-54 -37t-82 -29.5
t-111.5 -13h-185q-137 0 -222 84t-85 223zM461 256h102q41 0 68.5 15.5t36.5 31.5l8 14l-184 215h-31q-53 0 -78 -24.5t-25 -77.5v-72q0 -53 25 -77.5t78 -24.5z" />
    <glyph glyph-name="quotesingle" unicode="'" horiz-adv-x="399" 
d="M133 973l-41 225v236h215v-236l-41 -225h-133z" />
    <glyph glyph-name="parenleft" unicode="(" horiz-adv-x="696" 
d="M133 -82v1372q0 139 85 223t222 84h205v-286h-82q-123 0 -123 -123v-1168q0 -123 123 -122h82v-287h-205q-137 0 -222 84t-85 223z" />
    <glyph glyph-name="parenright" unicode=")" horiz-adv-x="696" 
d="M51 -389v287h82q123 0 123 122v1168q0 123 -123 123h-82v286h205q137 0 222 -83.5t85 -223.5v-1372q0 -139 -85 -223t-222 -84h-205z" />
    <glyph glyph-name="asterisk" unicode="*" horiz-adv-x="819" 
d="M102 850l174 184l-225 41q12 61 41 185l236 -62l-21 236h205l-20 -236l235 62q29 -123 41 -185l-225 -41l174 -184l-154 -113l-153 205l-154 -205z" />
    <glyph glyph-name="plus" unicode="+" horiz-adv-x="1024" 
d="M72 522v266h307v308h266v-308h307v-266h-307v-307h-266v307h-307z" />
    <glyph glyph-name="comma" unicode="," horiz-adv-x="450" 
d="M92 -225v532h266v-246l-133 -286h-133z" />
    <glyph glyph-name="hyphen" unicode="-" horiz-adv-x="798" 
d="M72 522v266h655v-266h-655z" />
    <glyph glyph-name="period" unicode="." horiz-adv-x="450" 
d="M92 0v307h266v-307h-266z" />
    <glyph glyph-name="slash" unicode="/" horiz-adv-x="1013" 
d="M51 -102v147l645 1491h267v-150l-646 -1488h-266z" />
    <glyph glyph-name="zero" unicode="0" horiz-adv-x="1218" 
d="M543 266h133q123 0 123 123v655q0 123 -123 123h-133q-123 0 -123 -123v-655q0 -123 123 -123zM113 287v860q0 139 85 223t222 84h379q139 0 223 -84t84 -223v-860q0 -139 -84 -223t-223 -84h-379q-137 0 -222 84t-85 223z" />
    <glyph glyph-name="one" unicode="1" horiz-adv-x="921" 
d="M92 0v276h246v768h-236v267h236v133h307v-1168h246v-276h-799z" />
    <glyph glyph-name="two" unicode="2" horiz-adv-x="1075" 
d="M72 0v266l522 533q33 33 46 49t24.5 51t11.5 84v41q0 123 -123 123h-369l-92 92v195h584q139 0 223 -84t84 -224v-194q0 -72 -21.5 -129.5t-45 -86t-76.5 -81.5l-338 -338v-10h481v-287h-911z" />
    <glyph glyph-name="three" unicode="3" horiz-adv-x="1085" 
d="M72 0v287h491q123 0 123 123v51q0 123 -123 123h-266v235l276 318v10h-409l-92 92v195h870v-256l-276 -318v-20h41q131 0 214 -83t83 -214v-236q0 -139 -84 -223t-224 -84h-624z" />
    <glyph glyph-name="four" unicode="4" horiz-adv-x="1126" 
d="M41 287v266l430 881h246v-154l-338 -696v-11h287v308h276v-308h164v-286h-164v-287h-307v287h-594z" />
    <glyph glyph-name="five" unicode="5" horiz-adv-x="1105" 
d="M113 0v287h481q123 0 123 123v82q0 123 -123 122h-461v820h850v-195l-92 -92h-451v-246h277q139 0 223 -84t84 -223v-287q0 -139 -84 -223t-223 -84h-604z" />
    <glyph glyph-name="six" unicode="6" 
d="M512 266h113q123 0 123 123v103q0 123 -123 122h-113q-123 0 -123 -122v-103q0 -123 123 -123zM82 287v297q0 74 18.5 132t37 88t67.5 97l389 533h246v-154l-287 -389v-10h195q137 0 222 -84t85 -224v-286q0 -139 -85 -223t-222 -84h-359q-139 0 -223 84t-84 223z" />
    <glyph glyph-name="seven" unicode="7" horiz-adv-x="1003" 
d="M215 0v143l399 994v10h-583v287h921v-267l-460 -1167h-277z" />
    <glyph glyph-name="eight" unicode="8" horiz-adv-x="1187" 
d="M522 266h144q123 0 122 123v82q0 123 -122 123h-144q-123 0 -123 -123v-82q0 -123 123 -123zM553 881h82q123 0 123 123v40q0 123 -123 123h-82q-123 0 -123 -123v-40q0 -123 123 -123zM92 287v174q0 66 21.5 118t51.5 78.5t59.5 44t49.5 21.5l23 4v21q-6 2 -18.5 6
t-42 23.5t-53 46t-42 76.5t-18.5 114v133q0 139 84 223t223 84h328q139 0 223 -84t84 -223v-133q0 -63 -18.5 -113.5t-43 -78t-50 -46t-44.5 -22.5l-18 -6v-23q8 -2 22.5 -5t49 -20.5t61.5 -43t49.5 -78t22.5 -117.5v-174q0 -139 -85 -223t-223 -84h-389q-137 0 -222 84
t-85 223z" />
    <glyph glyph-name="nine" unicode="9" 
d="M512 819h113q123 0 123 123v102q0 123 -123 123h-113q-123 0 -123 -123v-102q0 -123 123 -123zM297 0v154l287 389v10h-195q-139 0 -223 84t-84 223v287q0 139 84 223t223 84h359q137 0 222 -84t85 -223v-297q0 -74 -18.5 -132.5t-37 -88t-67.5 -97.5l-389 -532h-246z
" />
    <glyph glyph-name="colon" unicode=":" horiz-adv-x="450" 
d="M92 0v307h266v-307h-266zM92 737v307h266v-307h-266z" />
    <glyph glyph-name="semicolon" unicode=";" horiz-adv-x="450" 
d="M92 -225v532h266v-246l-133 -286h-133zM92 737v307h266v-307h-266z" />
    <glyph glyph-name="less" unicode="&#x3c;" horiz-adv-x="1044" 
d="M82 399v246l860 389v-266l-522 -236v-20l522 -236v-266z" />
    <glyph glyph-name="equal" unicode="=" horiz-adv-x="1054" 
d="M113 737v246h829v-246h-829zM113 328v245h829v-245h-829z" />
    <glyph glyph-name="greater" unicode="&#x3e;" horiz-adv-x="1044" 
d="M102 10v266l523 236v20l-523 236v266l861 -389v-246z" />
    <glyph glyph-name="question" unicode="?" horiz-adv-x="993" 
d="M328 471v123q0 80 29.5 132t71.5 76.5t84 45t71.5 53.5t29.5 82v41q0 123 -122 123h-349l-92 92v195h563q139 0 223.5 -84t84.5 -224v-184q0 -90 -34 -152.5t-82 -92t-96 -51t-82 -48.5t-34 -66v-61h-266zM328 0v307h266v-307h-266z" />
    <glyph glyph-name="at" unicode="@" horiz-adv-x="1679" 
d="M113 41v983q0 123 81.5 205t204.5 82h881q123 0 205 -82t82 -205v-819h-215l-41 112h-11q-2 -6 -7 -14t-24.5 -31.5t-43 -41t-64.5 -32t-86 -14.5h-164q-109 0 -187.5 80t-78.5 187v143q0 106 79 186t187 80h359v82q0 123 -123 123h-615q-123 0 -122 -123v-819
q0 -123 122 -123h1014v-246h-1147q-123 0 -204.5 82t-81.5 205zM1034 430h92q78 0 111 33t33 110v62h-236q-92 0 -92 -92v-21q0 -92 92 -92z" />
    <glyph glyph-name="A" unicode="A" horiz-adv-x="1249" 
d="M461 553h327l-153 604h-21zM20 0v143l410 1291h389l410 -1291v-143h-297l-72 287h-471l-72 -287h-297z" />
    <glyph glyph-name="B" unicode="B" horiz-adv-x="1249" 
d="M133 0v1434h696q137 0 222.5 -84t85.5 -224v-102q0 -66 -20.5 -118t-48.5 -78.5t-56.5 -44t-48.5 -21.5l-21 -4v-21q8 -2 23.5 -5t54.5 -22.5t68.5 -47t54 -84t24.5 -127.5v-144q0 -139 -84 -223t-223 -84h-727zM440 266h297q123 0 123 123v92q0 123 -123 123h-297v-338z
M440 860h267q123 0 122 123v61q0 123 -122 123h-267v-307z" />
    <glyph glyph-name="C" unicode="C" horiz-adv-x="1157" 
d="M113 307v819q0 139 85 223.5t222 84.5h665v-195l-92 -92h-450q-123 0 -123 -123v-614q0 -123 123 -123h542v-287h-665q-137 0 -222 84t-85 223z" />
    <glyph glyph-name="D" unicode="D" horiz-adv-x="1320" 
d="M133 0v1434h768q139 0 223 -84t84 -224v-819q0 -139 -84 -223t-223 -84h-768zM440 287h338q123 0 123 123v614q0 123 -123 123h-338v-860z" />
    <glyph glyph-name="E" unicode="E" 
d="M133 0v1434h932v-195l-92 -92h-533v-287h420v-276h-420v-297h625v-287h-932z" />
    <glyph glyph-name="F" unicode="F" horiz-adv-x="1105" 
d="M133 0v1434h922v-195l-92 -92h-523v-348h410v-287h-410v-512h-307z" />
    <glyph glyph-name="G" unicode="G" horiz-adv-x="1269" 
d="M113 307v819q0 139 85 223.5t222 84.5h676v-195l-92 -92h-461q-123 0 -123 -123v-614q0 -123 123 -123h307v512h307v-799h-737q-137 0 -222 84t-85 223z" />
    <glyph glyph-name="H" unicode="H" horiz-adv-x="1351" 
d="M133 0v1434h307v-564h471v564h308v-1434h-308v584h-471v-584h-307z" />
    <glyph glyph-name="I" unicode="I" horiz-adv-x="573" 
d="M133 0v1434h307v-1434h-307z" />
    <glyph glyph-name="J" unicode="J" horiz-adv-x="890" 
d="M20 -20v286h318q123 0 123 123v1045h307v-1147q0 -139 -85 -223t-222 -84h-441z" />
    <glyph glyph-name="K" unicode="K" horiz-adv-x="1290" 
d="M133 0v1434h307v-564h226l286 564h267v-154l-287 -532l307 -594v-154h-287l-286 573h-226v-573h-307z" />
    <glyph glyph-name="L" unicode="L" horiz-adv-x="1085" 
d="M133 0v1434h307v-1147h615v-287h-922z" />
    <glyph glyph-name="M" unicode="M" horiz-adv-x="1761" 
d="M72 0v154l133 1280h358l307 -809h21l307 809h358l134 -1280v-154h-318l-61 922h-21l-266 -717h-287l-266 717h-20l-62 -922h-317z" />
    <glyph glyph-name="N" unicode="N" horiz-adv-x="1372" 
d="M133 0v1434h338l481 -902h11l-31 256v646h307v-1434h-338l-481 901h-10l30 -256v-645h-307z" />
    <glyph glyph-name="O" unicode="O" horiz-adv-x="1320" 
d="M543 266h235q123 0 123 123v655q0 123 -123 123h-235q-123 0 -123 -123v-655q0 -123 123 -123zM113 287v860q0 139 85 223t222 84h481q139 0 223 -84t84 -223v-860q0 -139 -84 -223t-223 -84h-481q-137 0 -222 84t-85 223z" />
    <glyph glyph-name="P" unicode="P" horiz-adv-x="1290" 
d="M133 0v1434h758q137 0 222 -84t85 -224v-389q0 -139 -85 -223t-222 -84h-451v-430h-307zM440 717h328q123 0 123 123v184q0 123 -123 123h-328v-430z" />
    <glyph glyph-name="Q" unicode="Q" horiz-adv-x="1320" 
d="M645 -328l-133 308h-92q-137 0 -222 83.5t-85 223.5v860q0 139 85 223t222 84h481q139 0 223 -84t84 -223v-860q0 -139 -84 -223t-223 -84h-102l133 -175v-133h-287zM543 266h235q123 0 123 123v655q0 123 -123 123h-235q-123 0 -123 -123v-655q0 -123 123 -123z" />
    <glyph glyph-name="R" unicode="R" horiz-adv-x="1300" 
d="M133 0v1434h758q137 0 222 -84t85 -224v-307q0 -63 -21.5 -113.5t-51 -78t-59.5 -46t-50 -24.5l-23 -4l236 -399v-154h-287l-256 512h-246v-512h-307zM440 799h328q123 0 123 123v102q0 123 -123 123h-328v-348z" />
    <glyph glyph-name="S" unicode="S" horiz-adv-x="1187" 
d="M82 0v287h625q47 0 74.5 28.5t27.5 73.5v51q0 102 -102 123l-349 72q-125 25 -200.5 110.5t-75.5 206.5v174q0 139 84 223.5t223 84.5h686v-195l-92 -92h-491q-45 0 -74 -28.5t-29 -74.5v-20q0 -102 103 -123l348 -72q125 -25 200.5 -110.5t75.5 -206.5v-205
q0 -139 -85 -223t-222 -84h-727z" />
    <glyph glyph-name="T" unicode="T" horiz-adv-x="1146" 
d="M420 0v1147h-389v287h1085v-195l-92 -92h-297v-1147h-307z" />
    <glyph glyph-name="U" unicode="U" horiz-adv-x="1331" 
d="M123 287v1147h307v-1045q0 -123 123 -123h225q123 0 123 123v1045h307v-1147q0 -139 -84 -223t-223 -84h-471q-139 0 -223 84t-84 223z" />
    <glyph glyph-name="V" unicode="V" horiz-adv-x="1269" 
d="M420 0l-379 1280v154h297l287 -1147h20l287 1147h297v-154l-379 -1280h-430z" />
    <glyph glyph-name="W" unicode="W" horiz-adv-x="1884" 
d="M328 0l-287 1280v154h338l123 -994h20l266 994h308l266 -994h20l123 994h338v-154l-287 -1280h-348l-256 993h-20l-256 -993h-348z" />
    <glyph glyph-name="X" unicode="X" horiz-adv-x="1228" 
d="M41 0v154l317 553l-276 573v154h297q43 -102 225 -533h21q182 430 225 533h297v-154l-277 -553l318 -573v-154h-297l-266 543h-21l-266 -543h-297z" />
    <glyph glyph-name="Y" unicode="Y" horiz-adv-x="1167" 
d="M430 0v451l-399 829v154h297l256 -646h20l236 646h297v-154l-400 -829v-451h-307z" />
    <glyph glyph-name="Z" unicode="Z" 
d="M51 0v266l615 860v21h-492l-92 92v195h983v-267l-614 -860v-20h614v-287h-1014z" />
    <glyph glyph-name="bracketleft" unicode="[" horiz-adv-x="706" 
d="M133 -389v1986h522v-286h-225v-1413h225v-287h-522z" />
    <glyph glyph-name="backslash" unicode="\" horiz-adv-x="1013" 
d="M696 -102l-645 1488v150h266l646 -1491v-147h-267z" />
    <glyph glyph-name="bracketright" unicode="]" horiz-adv-x="706" 
d="M51 -389v287h225v1413h-225v286h522v-1986h-522z" />
    <glyph glyph-name="asciicircum" unicode="^" horiz-adv-x="921" 
d="M51 922l277 512h266l276 -512h-286l-113 245h-20l-113 -245h-287z" />
    <glyph glyph-name="underscore" unicode="_" horiz-adv-x="819" 
d="M-61 -369v267h942v-267h-942z" />
    <glyph glyph-name="grave" unicode="`" horiz-adv-x="593" 
d="M297 1208l-236 328h308l163 -328h-235z" />
    <glyph glyph-name="a" unicode="a" horiz-adv-x="1064" 
d="M471 215h51q76 0 110 34t34 109v72h-195q-53 0 -77.5 -24.5t-24.5 -77.5v-11q0 -53 24.5 -77.5t77.5 -24.5zM72 246v123q0 106 78.5 186t187.5 80h328v72q0 53 -25 77.5t-78 24.5h-399v235h532q106 0 186.5 -79.5t80.5 -186.5v-778h-205l-41 113h-10q-2 -6 -7.5 -14.5
t-26 -32t-45 -41t-66.5 -31.5t-91 -14h-133q-109 0 -187.5 80t-78.5 186z" />
    <glyph glyph-name="b" unicode="b" horiz-adv-x="1146" 
d="M420 266h235q53 0 78 24.5t25 78.5v327q0 53 -24.5 78t-78.5 25h-92q-76 0 -109.5 -33t-33.5 -111v-389zM123 0v1413h297v-481h10q2 6 7 14t24.5 31.5t43 41t64.5 32t86 14.5h133q109 0 188 -80t79 -186v-533q0 -111 -77 -188.5t-190 -77.5h-665z" />
    <glyph glyph-name="c" unicode="c" horiz-adv-x="942" 
d="M92 266v512q0 106 79 186t187 80h523v-184l-82 -82h-307q-53 0 -78 -24.5t-25 -77.5v-307q0 -53 24.5 -78t78.5 -25h389v-266h-523q-109 0 -187.5 80t-78.5 186z" />
    <glyph glyph-name="d" unicode="d" horiz-adv-x="1146" 
d="M492 246h92q76 0 109.5 32.5t33.5 110.5v389h-235q-53 0 -78 -24.5t-25 -77.5v-328q0 -53 25 -77.5t78 -24.5zM92 246v532q0 106 79 186t187 80h369v369h297v-1413h-205l-41 113h-10q-2 -6 -7 -14.5t-25.5 -32t-45 -41t-66.5 -31.5t-92 -14h-174q-109 0 -187.5 80
t-78.5 186z" />
    <glyph glyph-name="e" unicode="e" horiz-adv-x="1095" 
d="M389 635h328v92q0 53 -24.5 77.5t-78.5 24.5h-122q-53 0 -78 -24.5t-25 -77.5v-92zM92 266v533q0 106 79 186t187 80h390q109 0 187.5 -80t78.5 -186v-389h-625v-72q0 -53 24.5 -77.5t78.5 -24.5h471v-236h-605q-109 0 -187.5 80t-78.5 186z" />
    <glyph glyph-name="f" unicode="f" horiz-adv-x="778" 
d="M123 0v1167q0 106 80 186.5t186 80.5h420v-246h-287q-53 0 -77.5 -24.5t-24.5 -78.5v-143h276v-154l-51 -92h-225v-696h-297z" />
    <glyph glyph-name="g" unicode="g" horiz-adv-x="1095" 
d="M502 604h92q53 0 77.5 24.5t24.5 78.5v20q0 53 -24.5 77.5t-77.5 24.5h-92q-53 0 -78 -24.5t-25 -77.5v-20q0 -53 25 -78t78 -25zM420 -133h246q92 0 92 92t-92 92h-246q-82 0 -82 -92t82 -92zM41 -102v102q0 82 46 135t93 66l45 14v21q-8 2 -20 8t-31.5 31.5t-19.5 62.5
q0 41 17 68.5t36 35.5l18 9v20q-4 2 -13 5t-29.5 19.5t-37 37t-30 59.5t-13.5 84v123q0 106 80 186t187 80h245l82 174h246v-143l-92 -72v-16q6 -2 15 -6.5t34 -21.5t44.5 -41t34.5 -67t15 -94v-143q0 -106 -78.5 -186t-187.5 -80h-287q-14 0 -27.5 -12.5t-13.5 -29
t13.5 -28.5t27.5 -12h348q109 0 188 -80t79 -187v-122q0 -106 -79 -186.5t-188 -80.5h-481q-106 0 -186 80.5t-80 186.5z" />
    <glyph glyph-name="h" unicode="h" 
d="M123 0v1413h297v-481h10q2 6 7 14t25.5 31.5t45 41t66.5 32t92 14.5h92q106 0 186 -80t80 -186v-799h-297v696q0 53 -24.5 78t-77.5 25h-62q-76 0 -109.5 -33t-33.5 -111v-655h-297z" />
    <glyph glyph-name="i" unicode="i" horiz-adv-x="542" 
d="M123 0v1044h297v-1044h-297zM123 1167v308h297v-308h-297z" />
    <glyph glyph-name="j" unicode="j" horiz-adv-x="563" 
d="M-61 -348v266h81q123 0 123 123v1003h297v-1126q0 -106 -78.5 -186t-187.5 -80h-235zM143 1167v308h297v-308h-297z" />
    <glyph glyph-name="k" unicode="k" horiz-adv-x="1105" 
d="M123 0v1413h297v-758h174l174 389h266v-143l-194 -369l215 -389v-143h-277l-194 399h-164v-399h-297z" />
    <glyph glyph-name="l" unicode="l" horiz-adv-x="542" 
d="M123 0v1413h297v-1413h-297z" />
    <glyph glyph-name="m" unicode="m" horiz-adv-x="1720" 
d="M113 0v1044h204l41 -112h11q2 6 7 14t25.5 31.5t45 41t66.5 32t91 14.5h103q45 0 86 -13.5t64.5 -33t42 -40t26.5 -32.5l6 -14h10q2 6 7 14t25.5 31.5t45 41t66.5 32t92 14.5h174q106 0 186 -80t80 -186v-799h-297v696q0 53 -24.5 78t-77.5 25h-103q-53 0 -77.5 -24.5
t-24.5 -78.5v-696h-297v696q0 53 -24.5 78t-78.5 25h-61q-78 0 -110.5 -33t-32.5 -111v-655h-297z" />
    <glyph glyph-name="n" unicode="n" horiz-adv-x="1116" 
d="M113 0v1044h204l41 -112h11q2 6 7 14t25.5 31.5t45 41t66.5 32t91 14.5h144q109 0 187.5 -80t78.5 -186v-799h-297v696q0 53 -24.5 78t-78.5 25h-61q-78 0 -110.5 -33t-32.5 -111v-655h-297z" />
    <glyph glyph-name="o" unicode="o" horiz-adv-x="1126" 
d="M92 246v553q0 106 79 186t187 80h410q109 0 187.5 -80t78.5 -186v-553q0 -106 -78.5 -186t-187.5 -80h-410q-109 0 -187.5 80t-78.5 186zM492 246h143q53 0 77.5 24.5t24.5 77.5v348q0 53 -24.5 78t-77.5 25h-143q-53 0 -78 -24.5t-25 -78.5v-348q0 -53 25 -77.5
t78 -24.5z" />
    <glyph glyph-name="p" unicode="p" 
d="M410 266h235q53 0 78 24.5t25 78.5v327q0 53 -25 78t-78 25h-92q-78 0 -110.5 -33t-32.5 -111v-389zM113 -348v1392h204l41 -112h11q2 6 7 14t25.5 31.5t45 41t66.5 32t91 14.5h174q106 0 186 -80t80 -186v-533q0 -106 -79.5 -186t-186.5 -80h-368v-348h-297z" />
    <glyph glyph-name="q" unicode="q" 
d="M492 266h92q76 0 109.5 33t33.5 111v368h-235q-53 0 -78 -24.5t-25 -77.5v-307q0 -53 25 -78t78 -25zM92 266v512q0 111 77 188.5t189 77.5h666v-1392h-297v471h-10q-2 -4 -6 -13.5t-22.5 -30t-42 -36.5t-64.5 -29.5t-90 -13.5h-134q-109 0 -187.5 80t-78.5 186z" />
    <glyph glyph-name="r" unicode="r" horiz-adv-x="819" 
d="M113 0v1044h204l41 -112h11q2 6 7 14t25.5 31.5t45 41t66.5 32t91 14.5h184v-287h-256q-123 0 -122 -123v-655h-297z" />
    <glyph glyph-name="s" unicode="s" horiz-adv-x="942" 
d="M51 0v246h471q31 0 51.5 20.5t20.5 50.5q0 23 -20.5 43.5t-51.5 28.5l-225 51q-109 25 -177.5 95.5t-68.5 160.5v82q0 106 79 186t187 80h533v-163l-82 -82h-348q-31 0 -51.5 -20.5t-20.5 -51.5q0 -53 72 -72l225 -51q102 -25 174 -95.5t72 -160.5v-82q0 -106 -79 -186
t-187 -80h-574z" />
    <glyph glyph-name="t" unicode="t" horiz-adv-x="839" 
d="M195 266v533h-144v245h164l102 287h175v-287h245v-163l-82 -82h-163v-430q0 -53 24.5 -78t77.5 -25h174v-266h-307q-109 0 -187.5 80t-78.5 186z" />
    <glyph glyph-name="u" unicode="u" horiz-adv-x="1126" 
d="M113 246v798h297v-696q0 -53 24.5 -77.5t77.5 -24.5h61q78 0 111 32.5t33 110.5v655h297v-1044h-205l-41 113h-10q-2 -6 -7.5 -14.5t-25.5 -32t-45 -41t-67 -31.5t-91 -14h-143q-109 0 -187.5 80t-78.5 186z" />
    <glyph glyph-name="v" unicode="v" horiz-adv-x="1044" 
d="M358 0l-317 901v143h287l194 -716h21l174 716h287v-143l-318 -901h-328z" />
    <glyph glyph-name="w" unicode="w" horiz-adv-x="1515" 
d="M266 0l-225 901v143h307l92 -655h21l174 655h246l174 -655h20l92 655h308v-143l-226 -901h-297l-184 645h-20l-185 -645h-297z" />
    <glyph glyph-name="x" unicode="x" horiz-adv-x="1034" 
d="M51 0v143l246 379l-225 379v143h276l164 -358h10l164 358h277v-143l-226 -358l246 -400v-143h-276l-185 358h-10l-184 -358h-277z" />
    <glyph glyph-name="y" unicode="y" horiz-adv-x="1044" 
d="M133 -348v266h154q61 0 92 92v10l-338 881v143h287l204 -696h21l164 696h287v-139l-308 -936q-104 -317 -409 -317h-154z" />
    <glyph glyph-name="z" unicode="z" horiz-adv-x="983" 
d="M72 0v236l440 532v20h-358l-82 82v174h839v-235l-440 -533v-20h440v-256h-839z" />
    <glyph glyph-name="braceleft" unicode="{" horiz-adv-x="819" 
d="M246 -102v471q0 45 -29 73.5t-74 28.5h-51v266h51q45 0 74 29t29 74v471q0 123 82 204.5t204 81.5h236v-266h-123q-53 0 -77.5 -24.5t-24.5 -77.5v-379q0 -82 -46 -140.5t-91 -76.5l-48 -19v-20q8 -2 20.5 -6t44.5 -23.5t56.5 -43t44 -67.5t19.5 -96v-378q0 -53 24.5 -78
t77.5 -25h123v-266h-236q-123 0 -204.5 82t-81.5 205z" />
    <glyph glyph-name="bar" unicode="|" horiz-adv-x="788" 
d="M246 -348v1986h297v-1986h-297z" />
    <glyph glyph-name="braceright" unicode="}" horiz-adv-x="819" 
d="M51 -389v266h123q53 0 77.5 24.5t24.5 78.5v378q0 82 46.5 140.5t91.5 76.5l47 19v20q-8 2 -20.5 6.5t-44 24t-56.5 43t-44.5 67.5t-19.5 95v379q0 53 -24.5 77.5t-77.5 24.5h-123v266h236q123 0 204.5 -81.5t81.5 -204.5v-471q0 -45 29 -74t74 -29h51v-266h-51
q-45 0 -74 -28.5t-29 -73.5v-471q0 -123 -81.5 -205t-204.5 -82h-236z" />
    <glyph glyph-name="asciitilde" unicode="~" horiz-adv-x="1024" 
d="M72 471v266q0 78 54 131.5t130 53.5h61q102 0 164 -62l164 -143q10 -10 31 -10q31 0 31 30v164h245v-266q0 -78 -54 -131t-130 -53h-61q-102 0 -164 61l-164 143q-10 10 -31 11q-31 0 -31 -31v-164h-245z" />
    <glyph glyph-name="uni00A0" unicode="&#xa0;" horiz-adv-x="512" 
 />
    <glyph glyph-name="exclamdown" unicode="&#xa1;" horiz-adv-x="552" 
d="M113 -348v440l61 481h205l61 -481v-440h-327zM143 737v307h267v-307h-267z" />
    <glyph glyph-name="cent" unicode="&#xa2;" horiz-adv-x="931" 
d="M369 -184v184h-21q-106 0 -186 80t-80 186v512q0 106 80 186t186 80h21v185h297v-185h204v-184l-82 -82h-307q-53 0 -77.5 -24.5t-24.5 -77.5v-307q0 -53 24.5 -78t77.5 -25h389v-266h-204v-184h-297z" />
    <glyph glyph-name="sterling" unicode="&#xa3;" horiz-adv-x="1054" 
d="M82 0v287q6 2 17.5 5t40 19.5t50 37t39 59t17.5 84.5v122h-164v277h164v256q0 123 82 205t204 82h400v-195l-92 -92h-185q-53 0 -77.5 -24.5t-24.5 -78.5v-153h276v-277h-276v-122q0 -63 -28.5 -109.5t-57.5 -60.5l-27 -15v-20h574v-287h-932z" />
    <glyph glyph-name="currency" unicode="&#xa4;" horiz-adv-x="1361" 
d="M205 0v225h-123v226h123v122h-123v226h123v635h758q139 0 223 -84t84 -224v-245q0 -139 -84 -223.5t-223 -84.5h-451v-122h553v-226h-553v-225h-307zM512 799h328q123 0 123 123v102q0 123 -123 123h-328v-348z" />
    <glyph glyph-name="yen" unicode="&#xa5;" horiz-adv-x="1208" 
d="M184 143v226h267v82l-21 41h-246v225h144l-277 563v154h297l246 -646h20l246 646h297v-154l-276 -563h143v-225h-246l-20 -41v-82h266v-226h-266v-143h-307v143h-267z" />
    <glyph glyph-name="brokenbar" unicode="&#xa6;" horiz-adv-x="788" 
d="M246 819v819h297v-819h-297zM246 -348v819h297v-819h-297z" />
    <glyph glyph-name="section" unicode="&#xa7;" horiz-adv-x="1054" 
d="M512 369l92 -21q51 41 51 144v98q0 63 -21.5 86.5t-90.5 40.5l-92 20q-51 -41 -52 -143v-98q0 -63 21.5 -87t91.5 -40zM102 -348v246h471q82 0 82 82v51q0 31 -20.5 53t-50.5 29l-236 51q-109 23 -177.5 93.5t-68.5 162.5v133q0 78 36 131t71 70l37 14v20q-6 2 -15.5 6.5
t-34 20.5t-44 37.5t-35 61.5t-15.5 90v163q0 106 80 186.5t187 80.5h542v-164l-82 -82h-348q-82 0 -82 -82v-51q0 -31 20.5 -53.5t51.5 -28.5l236 -51q109 -23 177 -93.5t68 -162.5v-134q0 -78 -35.5 -131t-72.5 -69l-35 -15v-20q6 -2 15.5 -6t34 -20.5t44 -38t34.5 -61.5
t15 -89v-164q0 -106 -78.5 -186t-187.5 -80h-584z" />
    <glyph glyph-name="dieresis" unicode="&#xa8;" horiz-adv-x="808" 
d="M61 1229v287h256v-287h-256zM492 1229v287h256v-287h-256z" />
    <glyph glyph-name="copyright" unicode="&#xa9;" horiz-adv-x="1699" 
d="M113 225v983q0 123 81.5 205t204.5 82h901q123 0 205 -82t82 -205v-983q0 -123 -82 -204.5t-205 -81.5h-901q-123 0 -204.5 81.5t-81.5 204.5zM481 164h738q76 0 109.5 32.5t33.5 110.5v819q0 78 -34 111t-109 33h-738q-76 0 -109.5 -33t-33.5 -111v-819
q0 -78 33.5 -110.5t109.5 -32.5zM553 563v307q0 92 61.5 153.5t153.5 61.5h369v-143l-62 -61h-205q-47 0 -64.5 -18.5t-17.5 -63.5v-164q0 -45 17.5 -63.5t64.5 -18.5h267v-205h-369q-92 0 -153.5 61.5t-61.5 153.5z" />
    <glyph glyph-name="ordfeminine" unicode="&#xaa;" horiz-adv-x="788" 
d="M72 922v61q0 78 54 131t130 53h215v21q0 45 -18.5 63.5t-63.5 18.5h-235v164h327q84 0 144.5 -60.5t60.5 -144.5v-492h-164l-30 72h-11q0 -2 -2 -7t-12 -17.5t-23.5 -21.5t-39 -17.5t-56.5 -8.5h-92q-76 0 -130 53.5t-54 131.5zM338 901h51q45 0 63.5 18.5t18.5 63.5v31
h-133q-51 0 -51 -62q0 -51 51 -51z" />
    <glyph glyph-name="guillemotleft" unicode="&#xab;" horiz-adv-x="1034" 
d="M297 184l-225 369l225 369h215v-103l-174 -266l174 -266v-103h-215zM727 184l-225 369l225 369h215v-103l-174 -266l174 -266v-103h-215z" />
    <glyph glyph-name="logicalnot" unicode="&#xac;" horiz-adv-x="1034" 
d="M72 655v267h870v-512h-287v245h-583z" />
    <glyph glyph-name="uni00AD" unicode="&#xad;" horiz-adv-x="798" 
d="M72 522v266h655v-266h-655z" />
    <glyph glyph-name="registered" unicode="&#xae;" horiz-adv-x="1699" 
d="M543 348v737h420q100 0 157.5 -57t57.5 -158v-51q0 -41 -11.5 -74.5t-28 -53t-34 -33t-27.5 -19.5l-12 -4l113 -174v-113h-205l-119 246h-76v-246h-235zM778 768h103q39 0 55 16.5t16 55.5t-16 55t-55 16h-103v-143zM113 225v983q0 123 81.5 205t204.5 82h901
q123 0 205 -82t82 -205v-983q0 -123 -82 -204.5t-205 -81.5h-901q-123 0 -204.5 81.5t-81.5 204.5zM481 164h738q76 0 109.5 32.5t33.5 110.5v819q0 78 -34 111t-109 33h-738q-76 0 -109.5 -33t-33.5 -111v-819q0 -78 33.5 -110.5t109.5 -32.5z" />
    <glyph glyph-name="macron" unicode="&#xaf;" horiz-adv-x="788" 
d="M61 1239v225h666v-225h-666z" />
    <glyph glyph-name="degree" unicode="&#xb0;" horiz-adv-x="880" 
d="M113 973v266q0 92 61.5 153.5t153.5 61.5h225q92 0 153.5 -61.5t61.5 -153.5v-266q0 -92 -61.5 -153.5t-153.5 -61.5h-225q-92 0 -153.5 61.5t-61.5 153.5zM399 963h82q61 0 62 61v164q0 61 -62 61h-82q-61 0 -61 -61v-164q0 -61 61 -61z" />
    <glyph glyph-name="plusminus" unicode="&#xb1;" horiz-adv-x="1024" 
d="M92 82v266h287v236h-307v266h307v307h266v-307h307v-266h-307v-236h287v-266h-840z" />
    <glyph glyph-name="uni00B2" unicode="&#xb2;" horiz-adv-x="716" 
d="M72 922v174l276 225q72 57 72 92q0 16 -13.5 28.5t-27.5 12.5h-225l-72 72v112h369q78 0 131 -53t53 -131v-31q0 -72 -24.5 -112.5t-78.5 -81.5l-143 -113v-10h246v-184h-563z" />
    <glyph glyph-name="uni00B3" unicode="&#xb3;" horiz-adv-x="716" 
d="M61 922v174h308q51 0 51 51t-51 51h-164v133l133 123v10h-215l-62 62v112h543v-143l-143 -133v-10q70 0 122 -54.5t52 -130.5v-61q0 -78 -53.5 -131t-130.5 -53h-390z" />
    <glyph glyph-name="acute" unicode="&#xb4;" horiz-adv-x="593" 
d="M61 1208l164 328h307l-235 -328h-236z" />
    <glyph glyph-name="mu" unicode="&#xb5;" horiz-adv-x="1126" 
d="M113 -348v1392h297v-696q0 -53 24.5 -77.5t77.5 -24.5h61q78 0 111 32.5t33 110.5v655h297v-1044h-205l-41 113h-10q-2 -6 -7.5 -14.5t-23.5 -32t-39.5 -41t-57.5 -31.5t-77 -14t-74 8t-45 16l-14 6h-10v-358h-297z" />
    <glyph glyph-name="paragraph" unicode="&#xb6;" horiz-adv-x="1269" 
d="M389 -348v1024h-61q-115 0 -196 81t-81 195v205q0 115 81 196t196 81h911v-267h-195v-1515h-266v1515h-123v-1515h-266z" />
    <glyph glyph-name="periodcentered" unicode="&#xb7;" horiz-adv-x="512" 
d="M123 553v307h266v-307h-266z" />
    <glyph glyph-name="cedilla" unicode="&#xb8;" horiz-adv-x="552" 
d="M61 -492v164h185q16 0 28.5 12.5t12.5 28.5q0 14 -12.5 27.5t-26.5 13.5h-115l-51 51v195h205v-82h20q78 0 131.5 -53t53.5 -131v-41q0 -78 -53.5 -131.5t-131.5 -53.5h-246z" />
    <glyph glyph-name="uni00B9" unicode="&#xb9;" horiz-adv-x="675" 
d="M123 922v184h123v307h-123v164h123v61h215v-532h123v-184h-461z" />
    <glyph glyph-name="ordmasculine" unicode="&#xba;" horiz-adv-x="798" 
d="M92 952v267q0 92 61.5 153.5t153.5 61.5h185q92 0 153.5 -61.5t61.5 -153.5v-267q0 -92 -61.5 -153.5t-153.5 -61.5h-185q-92 0 -153.5 61.5t-61.5 153.5zM389 922h21q45 0 63.5 18t18.5 64v163q0 45 -18.5 63.5t-63.5 18.5h-21q-45 0 -63.5 -18.5t-18.5 -63.5v-163
q0 -45 18.5 -63.5t63.5 -18.5z" />
    <glyph glyph-name="guillemotright" unicode="&#xbb;" horiz-adv-x="1034" 
d="M522 184v103l174 266l-174 266v103h215l226 -369l-226 -369h-215zM92 184v103l174 266l-174 266v103h215l225 -369l-225 -369h-215z" />
    <glyph glyph-name="onequarter" unicode="&#xbc;" horiz-adv-x="1525" 
d="M266 0v113l840 1321h184v-113l-839 -1321h-185zM82 717v184h123v307h-123v164h123v62h215v-533h123v-184h-461zM799 143v164l266 410h174v-82l-205 -318v-10h133v129h195v-129h82v-164h-82v-143h-215v143h-348z" />
    <glyph glyph-name="onehalf" unicode="&#xbd;" horiz-adv-x="1607" 
d="M266 0v113l840 1321h184v-113l-839 -1321h-185zM82 717v184h123v307h-123v164h123v62h215v-533h123v-184h-461zM963 0v174l276 225q72 57 72 93q0 16 -12.5 28t-28.5 12h-226l-71 72v113h368q76 0 130.5 -53.5t54.5 -131.5v-30q0 -72 -24.5 -113t-78.5 -82l-143 -112v-11
h246v-184h-563z" />
    <glyph glyph-name="threequarters" unicode="&#xbe;" horiz-adv-x="1607" 
d="M307 0v113l840 1321h184v-113l-839 -1321h-185zM881 143v164l266 410h174v-82l-205 -318v-10h133v129h195v-129h82v-164h-82v-143h-215v143h-348zM61 717v174h308q51 0 51 51t-51 51h-164v133l133 123v11h-215l-62 61v113h543v-144l-143 -133v-10q70 0 122 -54.5
t52 -129.5v-62q0 -78 -53.5 -131t-130.5 -53h-390z" />
    <glyph glyph-name="questiondown" unicode="&#xbf;" horiz-adv-x="972" 
d="M72 -41v164q0 90 33.5 152.5t82 92t96.5 51t81.5 48.5t33.5 65v62h267v-123q0 -80 -30 -132t-72 -76.5t-84 -45t-71.5 -53.5t-29.5 -82v-21q0 -123 123 -122h348l92 -93v-194h-563q-137 0 -222 84t-85 223zM399 737v307h267v-307h-267z" />
    <glyph glyph-name="Agrave" unicode="&#xc0;" horiz-adv-x="1249" 
d="M461 553h327l-153 604h-21zM20 0v143l410 1291h389l410 -1291v-143h-297l-72 287h-471l-72 -287h-297zM502 1577l-236 328h307l164 -328h-235z" />
    <glyph glyph-name="Aacute" unicode="&#xc1;" horiz-adv-x="1249" 
d="M461 553h327l-153 604h-21zM20 0v143l410 1291h389l410 -1291v-143h-297l-72 287h-471l-72 -287h-297zM512 1577l164 328h307l-235 -328h-236z" />
    <glyph glyph-name="Acircumflex" unicode="&#xc2;" horiz-adv-x="1249" 
d="M461 553h327l-153 604h-21zM20 0v143l410 1291h389l410 -1291v-143h-297l-72 287h-471l-72 -287h-297zM266 1577l215 328h287l215 -328h-266l-92 164l-93 -164h-266z" />
    <glyph glyph-name="Atilde" unicode="&#xc3;" horiz-adv-x="1249" 
d="M461 553h327l-153 604h-21zM20 0v143l410 1291h389l410 -1291v-143h-297l-72 287h-471l-72 -287h-297zM307 1577v184q0 61 41 102.5t103 41.5h41q57 0 107 -36t82 -72t46 -36q20 0 21 21v112h204v-184q0 -61 -41 -102t-102 -41h-41q-57 0 -107.5 35.5t-82 71.5t-46.5 36
q-20 0 -20 -20v-113h-205z" />
    <glyph glyph-name="Adieresis" unicode="&#xc4;" horiz-adv-x="1249" 
d="M461 553h327l-153 604h-21zM20 0v143l410 1291h389l410 -1291v-143h-297l-72 287h-471l-72 -287h-297zM276 1597v287h256v-287h-256zM717 1597v287h256v-287h-256z" />
    <glyph glyph-name="Aring" unicode="&#xc5;" horiz-adv-x="1249" 
d="M461 553h327l-153 604h-21zM20 0v143l410 1291h389l410 -1291v-143h-297l-72 287h-471l-72 -287h-297zM379 1700v41q0 78 58.5 136t135.5 58h107q74 0 132 -59t58 -135v-41q0 -78 -58 -136.5t-136 -58.5h-103q-78 0 -136 58.5t-58 136.5zM614 1659h21q51 0 51 51v21
q0 51 -51 51h-21q-51 0 -51 -51v-21q0 -51 51 -51z" />
    <glyph glyph-name="AE" unicode="&#xc6;" horiz-adv-x="1792" 
d="M20 0v143l410 1291h1290v-195l-92 -92h-532v-287h420v-276h-420v-297h624v-287h-932v297h-389l-82 -297h-297zM471 573h317v574h-163z" />
    <glyph glyph-name="Ccedilla" unicode="&#xc7;" horiz-adv-x="1157" 
d="M492 -492v164h184q16 0 28.5 12.5t12.5 28.5q0 14 -12.5 27.5t-26.5 13.5h-115l-51 51v195h-92q-137 0 -222 84t-85 223v819q0 139 85 223.5t222 84.5h665v-195l-92 -92h-450q-123 0 -123 -123v-614q0 -123 123 -123h542v-287h-368v-82h20q78 0 131.5 -53t53.5 -131v-41
q0 -78 -53.5 -131.5t-131.5 -53.5h-245z" />
    <glyph glyph-name="Egrave" unicode="&#xc8;" 
d="M133 0v1434h932v-195l-92 -92h-533v-287h420v-276h-420v-297h625v-287h-932zM512 1577l-236 328h308l164 -328h-236z" />
    <glyph glyph-name="Eacute" unicode="&#xc9;" 
d="M133 0v1434h932v-195l-92 -92h-533v-287h420v-276h-420v-297h625v-287h-932zM471 1577l164 328h307l-235 -328h-236z" />
    <glyph glyph-name="Ecircumflex" unicode="&#xca;" 
d="M133 0v1434h932v-195l-92 -92h-533v-287h420v-276h-420v-297h625v-287h-932zM246 1577l215 328h287l215 -328h-267l-92 164l-92 -164h-266z" />
    <glyph glyph-name="Edieresis" unicode="&#xcb;" 
d="M133 0v1434h932v-195l-92 -92h-533v-287h420v-276h-420v-297h625v-287h-932zM256 1597v287h256v-287h-256zM696 1597v287h256v-287h-256z" />
    <glyph glyph-name="Igrave" unicode="&#xcc;" horiz-adv-x="573" 
d="M133 0v1434h307v-1434h-307zM174 1577l-235 328h307l164 -328h-236z" />
    <glyph glyph-name="Iacute" unicode="&#xcd;" horiz-adv-x="573" 
d="M133 0v1434h307v-1434h-307zM174 1577l164 328h307l-235 -328h-236z" />
    <glyph glyph-name="Icircumflex" unicode="&#xce;" horiz-adv-x="573" 
d="M133 0v1434h307v-1434h-307zM-72 1577l215 328h287l215 -328h-266l-92 164l-92 -164h-267z" />
    <glyph glyph-name="Idieresis" unicode="&#xcf;" horiz-adv-x="573" 
d="M133 0v1434h307v-1434h-307zM-61 1597v287h256v-287h-256zM379 1597v287h256v-287h-256z" />
    <glyph glyph-name="Eth" unicode="&#xd0;" horiz-adv-x="1361" 
d="M174 0v604h-123v246h123v584h768q139 0 223 -84t84 -224v-819q0 -139 -84 -223t-223 -84h-768zM481 287h338q123 0 123 123v614q0 123 -123 123h-338v-297h246v-246h-246v-317z" />
    <glyph glyph-name="Ntilde" unicode="&#xd1;" horiz-adv-x="1372" 
d="M133 0v1434h338l481 -902h11l-31 256v646h307v-1434h-338l-481 901h-10l30 -256v-645h-307zM358 1577v184q0 61 41 102.5t103 41.5h41q57 0 107 -36t82 -72t46 -36q20 0 21 21v112h205v-184q0 -61 -41 -102t-103 -41h-41q-57 0 -107 35.5t-82 71.5t-46 36q-20 0 -21 -20
v-113h-205z" />
    <glyph glyph-name="Ograve" unicode="&#xd2;" horiz-adv-x="1320" 
d="M543 266h235q123 0 123 123v655q0 123 -123 123h-235q-123 0 -123 -123v-655q0 -123 123 -123zM113 287v860q0 139 85 223t222 84h481q139 0 223 -84t84 -223v-860q0 -139 -84 -223t-223 -84h-481q-137 0 -222 84t-85 223zM563 1577l-235 328h307l164 -328h-236z" />
    <glyph glyph-name="Oacute" unicode="&#xd3;" horiz-adv-x="1320" 
d="M543 266h235q123 0 123 123v655q0 123 -123 123h-235q-123 0 -123 -123v-655q0 -123 123 -123zM113 287v860q0 139 85 223t222 84h481q139 0 223 -84t84 -223v-860q0 -139 -84 -223t-223 -84h-481q-137 0 -222 84t-85 223zM543 1577l164 328h307l-236 -328h-235z" />
    <glyph glyph-name="Ocircumflex" unicode="&#xd4;" horiz-adv-x="1320" 
d="M543 266h235q123 0 123 123v655q0 123 -123 123h-235q-123 0 -123 -123v-655q0 -123 123 -123zM113 287v860q0 139 85 223t222 84h481q139 0 223 -84t84 -223v-860q0 -139 -84 -223t-223 -84h-481q-137 0 -222 84t-85 223zM307 1577l215 328h287l215 -328h-266l-92 164
l-93 -164h-266z" />
    <glyph glyph-name="Otilde" unicode="&#xd5;" horiz-adv-x="1320" 
d="M543 266h235q123 0 123 123v655q0 123 -123 123h-235q-123 0 -123 -123v-655q0 -123 123 -123zM113 287v860q0 139 85 223t222 84h481q139 0 223 -84t84 -223v-860q0 -139 -84 -223t-223 -84h-481q-137 0 -222 84t-85 223zM338 1577v184q0 61 41 102.5t102 41.5h41
q57 0 107.5 -36t82 -72t46.5 -36q20 0 20 21v112h205v-184q0 -61 -41 -102t-102 -41h-41q-57 0 -107.5 35.5t-82 71.5t-46.5 36q-20 0 -20 -20v-113h-205z" />
    <glyph glyph-name="Odieresis" unicode="&#xd6;" horiz-adv-x="1320" 
d="M543 266h235q123 0 123 123v655q0 123 -123 123h-235q-123 0 -123 -123v-655q0 -123 123 -123zM113 287v860q0 139 85 223t222 84h481q139 0 223 -84t84 -223v-860q0 -139 -84 -223t-223 -84h-481q-137 0 -222 84t-85 223zM317 1597v287h256v-287h-256zM758 1597v287h256
v-287h-256z" />
    <glyph glyph-name="multiply" unicode="&#xd7;" horiz-adv-x="1003" 
d="M82 430l235 236l-235 235l184 184l236 -235l235 235l185 -184l-236 -235l236 -236l-185 -184l-235 235l-236 -235z" />
    <glyph glyph-name="Oslash" unicode="&#xd8;" horiz-adv-x="1320" 
d="M113 287v860q0 139 85 223t222 84h481q139 0 223 -84t84 -223v-860q0 -139 -84 -223t-223 -84h-481q-137 0 -222 84t-85 223zM543 266h235q123 0 123 123v512l-420 -625q21 -10 62 -10zM420 532l420 625q-20 10 -62 10h-235q-123 0 -123 -123v-512z" />
    <glyph glyph-name="Ugrave" unicode="&#xd9;" horiz-adv-x="1331" 
d="M123 287v1147h307v-1045q0 -123 123 -123h225q123 0 123 123v1045h307v-1147q0 -139 -84 -223t-223 -84h-471q-139 0 -223 84t-84 223zM553 1577l-236 328h308l163 -328h-235z" />
    <glyph glyph-name="Uacute" unicode="&#xda;" horiz-adv-x="1331" 
d="M123 287v1147h307v-1045q0 -123 123 -123h225q123 0 123 123v1045h307v-1147q0 -139 -84 -223t-223 -84h-471q-139 0 -223 84t-84 223zM543 1577l164 328h307l-236 -328h-235z" />
    <glyph glyph-name="Ucircumflex" unicode="&#xdb;" horiz-adv-x="1331" 
d="M123 287v1147h307v-1045q0 -123 123 -123h225q123 0 123 123v1045h307v-1147q0 -139 -84 -223t-223 -84h-471q-139 0 -223 84t-84 223zM328 1577l215 328h286l215 -328h-266l-92 164l-92 -164h-266z" />
    <glyph glyph-name="Udieresis" unicode="&#xdc;" horiz-adv-x="1331" 
d="M123 287v1147h307v-1045q0 -123 123 -123h225q123 0 123 123v1045h307v-1147q0 -139 -84 -223t-223 -84h-471q-139 0 -223 84t-84 223zM317 1597v287h256v-287h-256zM758 1597v287h256v-287h-256z" />
    <glyph glyph-name="Yacute" unicode="&#xdd;" horiz-adv-x="1167" 
d="M430 0v451l-399 829v154h297l256 -646h20l236 646h297v-154l-400 -829v-451h-307zM471 1577l164 328h307l-235 -328h-236z" />
    <glyph glyph-name="Thorn" unicode="&#xde;" horiz-adv-x="1372" 
d="M133 0v1434h307v-287h533q137 0 222 -84t85 -223v-267q0 -139 -85 -223t-222 -84h-533v-266h-307zM440 553h410q123 0 123 123v61q0 123 -123 123h-410v-307z" />
    <glyph glyph-name="germandbls" unicode="&#xdf;" horiz-adv-x="1218" 
d="M133 0v1167q0 106 79 186.5t187 80.5h318q106 0 186 -80t80 -187v-82q0 -76 -20.5 -131t-46 -78.5t-46 -54t-20.5 -63.5q0 -27 32.5 -51.5t79 -49t93.5 -57.5t79.5 -92t32.5 -139v-103q0 -106 -79.5 -186t-186.5 -80h-317v246h184q53 0 77.5 24.5t24.5 77.5q0 33 -46 67
t-102 62.5t-102.5 89t-46.5 140.5v71q0 70 36 129.5t72 102.5t36 75q0 53 -24.5 78t-78.5 25h-82q-53 0 -77.5 -24.5t-24.5 -78.5v-1085h-297z" />
    <glyph glyph-name="agrave" unicode="&#xe0;" horiz-adv-x="1064" 
d="M461 1208l-236 328h307l164 -328h-235zM471 215h51q76 0 110 34t34 109v72h-195q-53 0 -78 -24q-25 -25 -24 -78v-11q0 -53 24 -77q25 -25 78 -25zM72 246v123q0 106 79 186t187 80h328v72q0 53 -25 77q-25 25 -78 25h-399v235h532q106 0 187 -79q80 -80 80 -187v-778
h-205l-41 113h-10q-2 -6 -8 -15q-5 -8 -25 -31q-20 -24 -45 -41t-67 -32q-42 -14 -91 -14h-133q-109 0 -187 79q-79 81 -79 187z" />
    <glyph glyph-name="aacute" unicode="&#xe1;" horiz-adv-x="1064" 
d="M471 215h51q76 0 110 34t34 109v72h-195q-53 0 -77.5 -24.5t-24.5 -77.5v-11q0 -53 24.5 -77.5t77.5 -24.5zM72 246v123q0 106 78.5 186t187.5 80h328v72q0 53 -25 77.5t-78 24.5h-399v235h532q106 0 186.5 -79.5t80.5 -186.5v-778h-205l-41 113h-10q-2 -6 -7.5 -14.5
t-26 -32t-45 -41t-66.5 -31.5t-91 -14h-133q-109 0 -187.5 80t-78.5 186zM430 1208l164 328h307l-235 -328h-236z" />
    <glyph glyph-name="acircumflex" unicode="&#xe2;" horiz-adv-x="1064" 
d="M205 1208l215 328h287l215 -328h-267l-92 164l-92 -164h-266zM471 215h51q76 0 110 34t34 109v72h-195q-53 0 -78 -24q-25 -25 -24 -78v-11q0 -53 24 -77q25 -25 78 -25zM72 246v123q0 106 79 186t187 80h328v72q0 53 -25 77q-25 25 -78 25h-399v235h532q106 0 187 -79
q80 -80 80 -187v-778h-205l-41 113h-10q-2 -6 -8 -15q-5 -8 -25 -31q-20 -24 -45 -41t-67 -32q-42 -14 -91 -14h-133q-109 0 -187 79q-79 81 -79 187z" />
    <glyph glyph-name="atilde" unicode="&#xe3;" horiz-adv-x="1064" 
d="M471 215h51q76 0 110 34t34 109v72h-195q-53 0 -77.5 -24.5t-24.5 -77.5v-11q0 -53 24.5 -77.5t77.5 -24.5zM72 246v123q0 106 78.5 186t187.5 80h328v72q0 53 -25 77.5t-78 24.5h-399v235h532q106 0 186.5 -79.5t80.5 -186.5v-778h-205l-41 113h-10q-2 -6 -7.5 -14.5
t-26 -32t-45 -41t-66.5 -31.5t-91 -14h-133q-109 0 -187.5 80t-78.5 186zM246 1208v185q0 61 41 102t102 41h41q57 0 107.5 -36t82 -71.5t46.5 -35.5q20 0 20 20v113h205v-185q0 -61 -41 -102t-102 -41h-41q-57 0 -107.5 36t-82.5 71.5t-46 35.5q-20 0 -20 -20v-113h-205z
" />
    <glyph glyph-name="adieresis" unicode="&#xe4;" horiz-adv-x="1064" 
d="M215 1229v287h256v-287h-256zM645 1229v287h256v-287h-256zM471 215h51q76 0 110 34t34 109v72h-195q-53 0 -78 -24q-25 -25 -24 -78v-11q0 -53 24 -77q25 -25 78 -25zM72 246v123q0 106 79 186t187 80h328v72q0 53 -25 77q-25 25 -78 25h-399v235h532q106 0 187 -79
q80 -80 80 -187v-778h-205l-41 113h-10q-2 -6 -8 -15q-5 -8 -25 -31q-20 -24 -45 -41t-67 -32q-42 -14 -91 -14h-133q-109 0 -187 79q-79 81 -79 187z" />
    <glyph glyph-name="aring" unicode="&#xe5;" horiz-adv-x="1064" 
d="M471 215h51q76 0 110 34t34 109v72h-195q-53 0 -77.5 -24.5t-24.5 -77.5v-11q0 -53 24.5 -77.5t77.5 -24.5zM72 246v123q0 106 78.5 186t187.5 80h328v72q0 53 -25 77.5t-78 24.5h-399v235h532q106 0 186.5 -79.5t80.5 -186.5v-778h-205l-41 113h-10q-2 -6 -7.5 -14.5
t-26 -32t-45 -41t-66.5 -31.5t-91 -14h-133q-109 0 -187.5 80t-78.5 186zM317 1341v62q0 76 58.5 135t136.5 59h102q78 0 136.5 -59t58.5 -135v-62q0 -76 -58.5 -135t-136.5 -59h-102q-78 0 -136.5 59t-58.5 135zM553 1311h20q51 0 52 51v20q0 51 -52 52h-20q-51 0 -51 -52
v-20q0 -51 51 -51z" />
    <glyph glyph-name="ae" unicode="&#xe6;" horiz-adv-x="1669" 
d="M72 246v123q0 106 78.5 186t187.5 80h328v72q0 53 -25 77.5t-78 24.5h-399v235h471q35 0 64.5 -9t49 -22.5t33 -27.5t19.5 -22l6 -11h12q8 12 23.5 30.5t72 50.5t119.5 32h287q109 0 187.5 -80t78.5 -186v-389h-624v-82q0 -92 102 -92h471v-236h-512q-55 0 -101 22.5
t-65 47.5l-18 22h-11q-6 -12 -20 -30.5t-70.5 -50t-124.5 -31.5h-276q-109 0 -187.5 80t-78.5 186zM963 635h327v92q0 53 -24.5 77.5t-77.5 24.5h-123q-102 0 -102 -92v-102zM471 215h51q76 0 110 34t34 109v72h-195q-53 0 -77.5 -24.5t-24.5 -77.5v-11q0 -53 24.5 -77.5
t77.5 -24.5z" />
    <glyph glyph-name="ccedilla" unicode="&#xe7;" horiz-adv-x="942" 
d="M358 -492v164h185q14 0 27.5 12.5t13.5 28.5q0 14 -12.5 27.5t-26.5 13.5h-115l-51 51v195h-21q-109 0 -187.5 80t-78.5 186v512q0 106 79 186t187 80h523v-184l-82 -82h-307q-53 0 -78 -24.5t-25 -77.5v-307q0 -53 24.5 -78t78.5 -25h389v-266h-297v-82h20q76 0 130 -53
t54 -131v-41q0 -78 -54 -131.5t-130 -53.5h-246z" />
    <glyph glyph-name="egrave" unicode="&#xe8;" horiz-adv-x="1095" 
d="M440 1208l-235 328h307l164 -328h-236zM389 635h328v92q0 53 -25 78t-78 24h-122q-53 0 -78 -24q-25 -25 -25 -78v-92zM92 266v533q0 106 79 186t187 80h390q109 0 187 -80q79 -80 79 -186v-389h-625v-72q0 -53 25 -78t78 -24h471v-236h-605q-109 0 -187 80
q-79 80 -79 186z" />
    <glyph glyph-name="eacute" unicode="&#xe9;" horiz-adv-x="1095" 
d="M389 635h328v92q0 53 -24.5 77.5t-78.5 24.5h-122q-53 0 -78 -24.5t-25 -77.5v-92zM92 266v533q0 106 79 186t187 80h390q109 0 187.5 -80t78.5 -186v-389h-625v-72q0 -53 24.5 -77.5t78.5 -24.5h471v-236h-605q-109 0 -187.5 80t-78.5 186zM430 1208l164 328h307
l-235 -328h-236z" />
    <glyph glyph-name="ecircumflex" unicode="&#xea;" horiz-adv-x="1095" 
d="M205 1208l215 328h287l215 -328h-267l-92 164l-92 -164h-266zM389 635h328v92q0 53 -25 78t-78 24h-122q-53 0 -78 -24q-25 -25 -25 -78v-92zM92 266v533q0 106 79 186t187 80h390q109 0 187 -80q79 -80 79 -186v-389h-625v-72q0 -53 25 -78t78 -24h471v-236h-605
q-109 0 -187 80q-79 80 -79 186z" />
    <glyph glyph-name="edieresis" unicode="&#xeb;" horiz-adv-x="1095" 
d="M389 635h328v92q0 53 -24.5 77.5t-78.5 24.5h-122q-53 0 -78 -24.5t-25 -77.5v-92zM92 266v533q0 106 79 186t187 80h390q109 0 187.5 -80t78.5 -186v-389h-625v-72q0 -53 24.5 -77.5t78.5 -24.5h471v-236h-605q-109 0 -187.5 80t-78.5 186zM215 1229v287h256v-287h-256z
M645 1229v287h256v-287h-256z" />
    <glyph glyph-name="igrave" unicode="&#xec;" horiz-adv-x="542" 
d="M154 1208l-236 328h307l164 -328h-235zM123 0v1044h297v-1044h-297z" />
    <glyph glyph-name="iacute" unicode="&#xed;" horiz-adv-x="542" 
d="M164 1208l164 328h307l-236 -328h-235zM123 0v1044h297v-1044h-297z" />
    <glyph glyph-name="icircumflex" unicode="&#xee;" horiz-adv-x="542" 
d="M-82 1208l215 328h287l215 -328h-266l-93 164l-92 -164h-266zM123 0v1044h297v-1044h-297z" />
    <glyph glyph-name="idieresis" unicode="&#xef;" horiz-adv-x="542" 
d="M-72 1229v287h256v-287h-256zM358 1229v287h256v-287h-256zM123 0v1044h297v-1044h-297z" />
    <glyph glyph-name="eth" unicode="&#xf0;" 
d="M492 246h133q53 0 77.5 24.5t24.5 77.5v103q0 78 -34 110.5t-109 32.5h-92q-53 0 -78 -24.5t-25 -77.5v-144q0 -53 25 -77.5t78 -24.5zM92 246v348q0 106 79 186t187 80h134q45 0 85.5 -13t64.5 -32.5t42 -40t25 -33.5l8 -14h10v246q0 51 -30.5 88t-71.5 45l-103 20
l-20 -133l-236 41l21 123l-164 31l41 276l174 -30l20 133l236 -41l-21 -123l144 -31q131 -29 219 -132t88 -257v-737q0 -106 -80 -186t-186 -80h-400q-109 0 -187.5 80t-78.5 186z" />
    <glyph glyph-name="ntilde" unicode="&#xf1;" horiz-adv-x="1116" 
d="M266 1208v185q0 61 41 102t103 41h41q57 0 107 -36t82 -72t46 -35q20 0 21 20v113h204v-185q0 -61 -41 -102t-102 -41h-41q-57 0 -107 36t-82 72t-46 35q-20 0 -21 -20v-113h-205zM113 0v1044h204l41 -112h11q2 6 7 14t25 32t45 41t67 32q42 14 91 14h144q109 0 187 -80
q79 -80 79 -186v-799h-297v696q0 53 -25 78t-78 25h-61q-78 0 -111 -33t-32 -111v-655h-297z" />
    <glyph glyph-name="ograve" unicode="&#xf2;" horiz-adv-x="1126" 
d="M451 1208l-236 328h307l164 -328h-235zM92 246v553q0 106 79 186t187 80h410q109 0 187 -80q79 -80 79 -186v-553q0 -106 -79 -187q-79 -80 -187 -79h-410q-109 0 -187 79q-79 81 -79 187zM492 246h143q53 0 78 24q25 25 24 78v348q0 53 -24 78q-25 25 -78 25h-143
q-53 0 -78 -25t-25 -78v-348q0 -53 25 -78q25 -24 78 -24z" />
    <glyph glyph-name="oacute" unicode="&#xf3;" horiz-adv-x="1126" 
d="M92 246v553q0 106 79 186t187 80h410q109 0 187.5 -80t78.5 -186v-553q0 -106 -78.5 -186t-187.5 -80h-410q-109 0 -187.5 80t-78.5 186zM492 246h143q53 0 77.5 24.5t24.5 77.5v348q0 53 -24.5 78t-77.5 25h-143q-53 0 -78 -24.5t-25 -78.5v-348q0 -53 25 -77.5
t78 -24.5zM451 1208l163 328h308l-236 -328h-235z" />
    <glyph glyph-name="ocircumflex" unicode="&#xf4;" horiz-adv-x="1126" 
d="M215 1208l215 328h287l215 -328h-266l-93 164l-92 -164h-266zM92 246v553q0 106 79 186t187 80h410q109 0 187 -80q79 -80 79 -186v-553q0 -106 -79 -187q-79 -80 -187 -79h-410q-109 0 -187 79q-79 81 -79 187zM492 246h143q53 0 78 24q25 25 24 78v348q0 53 -24 78
q-25 25 -78 25h-143q-53 0 -78 -25t-25 -78v-348q0 -53 25 -78q25 -24 78 -24z" />
    <glyph glyph-name="otilde" unicode="&#xf5;" horiz-adv-x="1126" 
d="M92 246v553q0 106 79 186t187 80h410q109 0 187.5 -80t78.5 -186v-553q0 -106 -78.5 -186t-187.5 -80h-410q-109 0 -187.5 80t-78.5 186zM492 246h143q53 0 77.5 24.5t24.5 77.5v348q0 53 -24.5 78t-77.5 25h-143q-53 0 -78 -24.5t-25 -78.5v-348q0 -53 25 -77.5
t78 -24.5zM246 1208v185q0 61 41 102t102 41h41q57 0 107.5 -36t82 -71.5t46.5 -35.5q20 0 20 20v113h205v-185q0 -61 -41 -102t-102 -41h-41q-57 0 -107.5 36t-82.5 71.5t-46 35.5q-20 0 -20 -20v-113h-205z" />
    <glyph glyph-name="odieresis" unicode="&#xf6;" horiz-adv-x="1126" 
d="M236 1229v287h256v-287h-256zM666 1229v287h256v-287h-256zM92 246v553q0 106 79 186t187 80h410q109 0 187 -80q79 -80 79 -186v-553q0 -106 -79 -187q-79 -80 -187 -79h-410q-109 0 -187 79q-79 81 -79 187zM492 246h143q53 0 78 24q25 25 24 78v348q0 53 -24 78
q-25 25 -78 25h-143q-53 0 -78 -25t-25 -78v-348q0 -53 25 -78q25 -24 78 -24z" />
    <glyph glyph-name="divide" unicode="&#xf7;" horiz-adv-x="1024" 
d="M72 522v266h880v-266h-880zM369 82v276h286v-276h-286zM369 952v277h286v-277h-286z" />
    <glyph glyph-name="oslash" unicode="&#xf8;" horiz-adv-x="1126" 
d="M92 246v553q0 106 79 186t187 80h410q109 0 187.5 -80t78.5 -186v-553q0 -106 -78.5 -186t-187.5 -80h-410q-109 0 -187.5 80t-78.5 186zM369 410l317 409h-215q-53 0 -77.5 -24.5t-24.5 -77.5v-307zM440 225h215q53 0 78 24.5t25 78.5v307z" />
    <glyph glyph-name="ugrave" unicode="&#xf9;" horiz-adv-x="1126" 
d="M461 1208l-236 328h307l164 -328h-235zM113 246v798h297v-696q0 -53 24 -78q25 -25 78 -24h61q78 0 111 33t33 110v655h297v-1044h-205l-41 113h-10q-2 -6 -7 -15q-5 -8 -26 -31q-20 -24 -45 -41t-67 -32q-42 -14 -91 -14h-143q-109 0 -188 79q-78 81 -78 187z" />
    <glyph glyph-name="uacute" unicode="&#xfa;" horiz-adv-x="1126" 
d="M113 246v798h297v-696q0 -53 24.5 -77.5t77.5 -24.5h61q78 0 111 32.5t33 110.5v655h297v-1044h-205l-41 113h-10q-2 -6 -7.5 -14.5t-25.5 -32t-45 -41t-67 -31.5t-91 -14h-143q-109 0 -187.5 80t-78.5 186zM451 1208l163 328h308l-236 -328h-235z" />
    <glyph glyph-name="ucircumflex" unicode="&#xfb;" horiz-adv-x="1126" 
d="M205 1208l215 328h287l215 -328h-267l-92 164l-92 -164h-266zM113 246v798h297v-696q0 -53 24 -78q25 -25 78 -24h61q78 0 111 33t33 110v655h297v-1044h-205l-41 113h-10q-2 -6 -7 -15q-5 -8 -26 -31q-20 -24 -45 -41t-67 -32q-42 -14 -91 -14h-143q-109 0 -188 79
q-78 81 -78 187z" />
    <glyph glyph-name="udieresis" unicode="&#xfc;" horiz-adv-x="1126" 
d="M113 246v798h297v-696q0 -53 24.5 -77.5t77.5 -24.5h61q78 0 111 32.5t33 110.5v655h297v-1044h-205l-41 113h-10q-2 -6 -7.5 -14.5t-25.5 -32t-45 -41t-67 -31.5t-91 -14h-143q-109 0 -187.5 80t-78.5 186zM225 1229v287h256v-287h-256zM655 1229v287h256v-287h-256z
" />
    <glyph glyph-name="yacute" unicode="&#xfd;" horiz-adv-x="1044" 
d="M410 1208l163 328h308l-236 -328h-235zM133 -348v266h154q61 0 92 92v10l-338 881v143h287l204 -696h21l164 696h287v-139l-308 -936q-104 -317 -409 -317h-154z" />
    <glyph glyph-name="thorn" unicode="&#xfe;" horiz-adv-x="1146" 
d="M123 -348v1761h297v-369h368q113 0 190 -77.5t77 -188.5v-512q0 -106 -79 -186t-188 -80h-368v-348h-297zM420 266h235q53 0 78 24.5t25 78.5v307q0 53 -24.5 77.5t-78.5 24.5h-235v-512z" />
    <glyph glyph-name="ydieresis" unicode="&#xff;" horiz-adv-x="1044" 
d="M133 -348v266h154q61 0 92 92v10l-338 881v143h287l204 -696h21l164 696h287v-139l-308 -936q-104 -317 -409 -317h-154zM195 1229v287h256v-287h-256zM625 1229v287h256v-287h-256z" />
    <glyph glyph-name="Amacron" unicode="&#x100;" horiz-adv-x="1249" 
d="M461 553h327l-153 604h-21zM20 0v143l410 1291h389l410 -1291v-143h-297l-72 287h-471l-72 -287h-297zM297 1608v225h655v-225h-655z" />
    <glyph glyph-name="amacron" unicode="&#x101;" horiz-adv-x="1064" 
d="M225 1239v225h666v-225h-666zM471 215h51q76 0 110 34t34 109v72h-195q-53 0 -78 -24q-25 -25 -24 -78v-11q0 -53 24 -77q25 -25 78 -25zM72 246v123q0 106 79 186t187 80h328v72q0 53 -25 77q-25 25 -78 25h-399v235h532q106 0 187 -79q80 -80 80 -187v-778h-205
l-41 113h-10q-2 -6 -8 -15q-5 -8 -25 -31q-20 -24 -45 -41t-67 -32q-42 -14 -91 -14h-133q-109 0 -187 79q-79 81 -79 187z" />
    <glyph glyph-name="Abreve" unicode="&#x102;" horiz-adv-x="1249" 
d="M461 553h327l-153 604h-21zM20 0v143l410 1291h389l410 -1291v-143h-297l-72 287h-471l-72 -287h-297zM276 1761v144h246v-62q0 -61 62 -61h82q61 0 61 61v62h246v-144q0 -78 -54.5 -131t-130.5 -53h-327q-76 0 -130.5 53t-54.5 131z" />
    <glyph glyph-name="abreve" unicode="&#x103;" horiz-adv-x="1064" 
d="M215 1393v143h246v-61q0 -61 61 -62h72q61 0 61 62v61h246v-143q0 -78 -54 -131t-130 -54h-318q-78 0 -131 54q-53 53 -53 131zM471 215h51q76 0 110 34t34 109v72h-195q-53 0 -78 -24q-25 -25 -24 -78v-11q0 -53 24 -77q25 -25 78 -25zM72 246v123q0 106 79 186t187 80
h328v72q0 53 -25 77q-25 25 -78 25h-399v235h532q106 0 187 -79q80 -80 80 -187v-778h-205l-41 113h-10q-2 -6 -8 -15q-5 -8 -25 -31q-20 -24 -45 -41t-67 -32q-42 -14 -91 -14h-133q-109 0 -187 79q-79 81 -79 187z" />
    <glyph glyph-name="Aogonek" unicode="&#x104;" horiz-adv-x="1249" 
d="M20 0v143l410 1291h389l410 -1291v-163q-8 -4 -21.5 -11.5t-46.5 -32t-58.5 -48t-47 -58.5t-21.5 -66q0 -51 51 -51h134v-184h-175q-98 0 -156.5 53t-58.5 137q0 80 51.5 150t102.5 100l51 31h-102l-72 287h-471l-72 -287h-297zM461 553h327l-153 604h-21z" />
    <glyph glyph-name="aogonek" unicode="&#x105;" horiz-adv-x="1064" 
d="M72 246v123q0 106 78.5 186t187.5 80h328v72q0 53 -25 77.5t-78 24.5h-399v235h532q106 0 186.5 -79.5t80.5 -186.5v-798q-8 -4 -21.5 -11.5t-46.5 -32t-58.5 -48t-47 -58.5t-21.5 -66q0 -51 51 -51h133v-184h-174q-98 0 -156.5 53t-58.5 137q0 80 51.5 150t102.5 100
l51 31h-10l-41 113h-10q-2 -6 -7.5 -14.5t-26 -32t-45 -41t-66.5 -31.5t-91 -14h-133q-109 0 -187.5 80t-78.5 186zM471 215h51q76 0 110 34t34 109v72h-195q-53 0 -77.5 -24.5t-24.5 -77.5v-11q0 -53 24.5 -77.5t77.5 -24.5z" />
    <glyph glyph-name="Cacute" unicode="&#x106;" horiz-adv-x="1157" 
d="M113 307v819q0 139 85 223.5t222 84.5h665v-195l-92 -92h-450q-123 0 -123 -123v-614q0 -123 123 -123h542v-287h-665q-137 0 -222 84t-85 223zM532 1577l164 328h308l-236 -328h-236z" />
    <glyph glyph-name="cacute" unicode="&#x107;" horiz-adv-x="942" 
d="M410 1208l163 328h308l-236 -328h-235zM92 266v512q0 106 79 187q79 80 187 79h523v-184l-82 -82h-307q-53 0 -78 -24q-25 -25 -25 -78v-307q0 -53 25 -78t78 -25h389v-266h-523q-109 0 -187 80q-79 80 -79 186z" />
    <glyph glyph-name="Ccircumflex" unicode="&#x108;" horiz-adv-x="1157" 
d="M113 307v819q0 139 85 223.5t222 84.5h665v-195l-92 -92h-450q-123 0 -123 -123v-614q0 -123 123 -123h542v-287h-665q-137 0 -222 84t-85 223zM287 1577l215 328h286l216 -328h-267l-92 164l-92 -164h-266z" />
    <glyph glyph-name="ccircumflex" unicode="&#x109;" horiz-adv-x="942" 
d="M164 1208l215 328h287l215 -328h-267l-92 164l-92 -164h-266zM92 266v512q0 106 79 187q79 80 187 79h523v-184l-82 -82h-307q-53 0 -78 -24q-25 -25 -25 -78v-307q0 -53 25 -78t78 -25h389v-266h-523q-109 0 -187 80q-79 80 -79 186z" />
    <glyph glyph-name="Ccaron" unicode="&#x10c;" horiz-adv-x="1157" 
d="M113 307v819q0 139 85 223.5t222 84.5h665v-195l-92 -92h-450q-123 0 -123 -123v-614q0 -123 123 -123h542v-287h-665q-137 0 -222 84t-85 223zM502 1577l-215 328h266l92 -164l92 164h267l-216 -328h-286z" />
    <glyph glyph-name="ccaron" unicode="&#x10d;" horiz-adv-x="942" 
d="M379 1208l-215 328h266l92 -164l92 164h267l-215 -328h-287zM92 266v512q0 106 79 187q79 80 187 79h523v-184l-82 -82h-307q-53 0 -78 -24q-25 -25 -25 -78v-307q0 -53 25 -78t78 -25h389v-266h-523q-109 0 -187 80q-79 80 -79 186z" />
    <glyph glyph-name="Dcaron" unicode="&#x10e;" horiz-adv-x="1320" 
d="M133 0v1434h768q139 0 223 -84t84 -224v-819q0 -139 -84 -223t-223 -84h-768zM440 287h338q123 0 123 123v614q0 123 -123 123h-338v-860zM522 1577l-215 328h266l93 -164l92 164h266l-215 -328h-287z" />
    <glyph glyph-name="dcaron" unicode="&#x10f;" horiz-adv-x="1351" 
d="M492 246h92q76 0 109.5 32.5t33.5 110.5v389h-235q-53 0 -78 -24.5t-25 -77.5v-328q0 -53 25 -77.5t78 -24.5zM92 246v532q0 106 79 186t187 80h369v369h297v-1413h-205l-41 113h-10q-2 -6 -7 -14.5t-25.5 -32t-45 -41t-66.5 -31.5t-92 -14h-174q-109 0 -187.5 80
t-78.5 186zM1157 963v471h246v-215l-123 -256h-123z" />
    <glyph glyph-name="Dcroat" unicode="&#x110;" horiz-adv-x="1361" 
d="M174 0v604h-123v246h123v584h768q139 0 223 -84t84 -224v-819q0 -139 -84 -223t-223 -84h-768zM481 287h338q123 0 123 123v614q0 123 -123 123h-338v-297h246v-246h-246v-317z" />
    <glyph glyph-name="dcroat" unicode="&#x111;" horiz-adv-x="1187" 
d="M92 246v348q0 106 79 186t187 80h369v123h-246v246h246v184h297v-184h154v-246h-154v-983h-205l-41 113h-10q-2 -6 -7 -14.5t-25.5 -32t-45 -41t-66.5 -31.5t-92 -14h-174q-109 0 -187.5 80t-78.5 186zM492 246h92q76 0 109.5 32.5t33.5 110.5v205h-235q-53 0 -78 -24.5
t-25 -77.5v-144q0 -53 25 -77.5t78 -24.5z" />
    <glyph glyph-name="Emacron" unicode="&#x112;" 
d="M133 0v1434h932v-195l-92 -92h-533v-287h420v-276h-420v-297h625v-287h-932zM266 1608v225h656v-225h-656z" />
    <glyph glyph-name="emacron" unicode="&#x113;" horiz-adv-x="1095" 
d="M225 1239v225h666v-225h-666zM389 635h328v92q0 53 -25 78t-78 24h-122q-53 0 -78 -24q-25 -25 -25 -78v-92zM92 266v533q0 106 79 186t187 80h390q109 0 187 -80q79 -80 79 -186v-389h-625v-72q0 -53 25 -78t78 -24h471v-236h-605q-109 0 -187 80q-79 80 -79 186z" />
    <glyph glyph-name="Edotaccent" unicode="&#x116;" 
d="M133 0v1434h932v-195l-92 -92h-533v-287h420v-276h-420v-297h625v-287h-932zM451 1577v307h307v-307h-307z" />
    <glyph glyph-name="edotaccent" unicode="&#x117;" horiz-adv-x="1095" 
d="M410 1208v308h297v-308h-297zM389 635h328v92q0 53 -25 78t-78 24h-122q-53 0 -78 -24q-25 -25 -25 -78v-92zM92 266v533q0 106 79 186t187 80h390q109 0 187 -80q79 -80 79 -186v-389h-625v-72q0 -53 25 -78t78 -24h471v-236h-605q-109 0 -187 80q-79 80 -79 186z" />
    <glyph glyph-name="Eogonek" unicode="&#x118;" 
d="M133 0v1434h932v-195l-92 -92h-533v-287h420v-276h-420v-297h625v-307q-8 -4 -21.5 -11.5t-46 -32t-58.5 -48t-47.5 -58.5t-21.5 -66q0 -51 52 -51h133v-184h-174q-98 0 -156.5 53t-58.5 137q0 80 51 150t102 100l51 31h-737z" />
    <glyph glyph-name="eogonek" unicode="&#x119;" horiz-adv-x="1095" 
d="M92 266v533q0 106 79 186t187 80h390q109 0 187.5 -80t78.5 -186v-389h-625v-72q0 -53 24.5 -77.5t78.5 -24.5h471v-256q-8 -4 -21.5 -11.5t-46.5 -32t-58.5 -48t-47 -58.5t-21.5 -66q0 -51 51 -51h133v-184h-174q-98 0 -156.5 53t-58.5 137q0 80 51.5 150t102.5 100
l51 31h-410q-109 0 -187.5 80t-78.5 186zM389 635h328v92q0 53 -24.5 77.5t-78.5 24.5h-122q-53 0 -78 -24.5t-25 -77.5v-92z" />
    <glyph glyph-name="Ecaron" unicode="&#x11a;" 
d="M133 0v1434h932v-195l-92 -92h-533v-287h420v-276h-420v-297h625v-287h-932zM461 1577l-215 328h266l92 -164l92 164h267l-215 -328h-287z" />
    <glyph glyph-name="ecaron" unicode="&#x11b;" horiz-adv-x="1095" 
d="M410 1208l-215 328h266l92 -164l92 164h266l-215 -328h-286zM389 635h328v92q0 53 -25 78t-78 24h-122q-53 0 -78 -24q-25 -25 -25 -78v-92zM92 266v533q0 106 79 186t187 80h390q109 0 187 -80q79 -80 79 -186v-389h-625v-72q0 -53 25 -78t78 -24h471v-236h-605
q-109 0 -187 80q-79 80 -79 186z" />
    <glyph glyph-name="Gbreve" unicode="&#x11e;" horiz-adv-x="1269" 
d="M113 307v819q0 139 85 223.5t222 84.5h676v-195l-92 -92h-461q-123 0 -123 -123v-614q0 -123 123 -123h307v512h307v-799h-737q-137 0 -222 84t-85 223zM297 1761v144h246v-62q0 -61 61 -61h82q61 0 62 61v62h245v-144q0 -78 -54 -131t-130 -53h-328q-76 0 -130 53
t-54 131z" />
    <glyph glyph-name="gbreve" unicode="&#x11f;" horiz-adv-x="1095" 
d="M502 604h92q53 0 77.5 24.5t24.5 78.5v20q0 53 -24.5 77.5t-77.5 24.5h-92q-53 0 -78 -24.5t-25 -77.5v-20q0 -53 25 -78t78 -25zM420 -133h246q92 0 92 92t-92 92h-246q-82 0 -82 -92t82 -92zM41 -102v102q0 82 46 135t93 66l45 14v21q-8 2 -20 8t-31.5 31.5t-19.5 62.5
q0 41 17 68.5t36 35.5l18 9v20q-4 2 -13 5t-29.5 19.5t-37 37t-30 59.5t-13.5 84v123q0 106 80 186t187 80h245l62 102h266v-92l-92 -51v-16q6 -2 15 -6.5t34 -21.5t44.5 -41t34.5 -67t15 -94v-143q0 -106 -78.5 -186t-187.5 -80h-256q-16 0 -28.5 -12.5t-12.5 -29
t12.5 -28.5t28.5 -12h317q109 0 188 -80t79 -187v-122q0 -106 -79 -186.5t-188 -80.5h-481q-106 0 -186 80.5t-80 186.5zM205 1393v143h246v-61q0 -61 61 -62h72q61 0 61 62v61h246v-143q0 -78 -54.5 -131.5t-129.5 -53.5h-318q-78 0 -131 53.5t-53 131.5z" />
    <glyph glyph-name="uni0122" unicode="&#x122;" horiz-adv-x="1269" 
d="M113 307v819q0 139 85 223.5t222 84.5h676v-195l-92 -92h-461q-123 0 -123 -123v-614q0 -123 123 -123h307v512h307v-799h-737q-137 0 -222 84t-85 223zM553 -584v451h246v-215l-123 -236h-123z" />
    <glyph glyph-name="uni0123" unicode="&#x123;" horiz-adv-x="1095" 
d="M502 604h92q53 0 77.5 24.5t24.5 78.5v20q0 53 -24.5 77.5t-77.5 24.5h-92q-53 0 -78 -24.5t-25 -77.5v-20q0 -53 25 -78t78 -25zM420 -133h246q92 0 92 92t-92 92h-246q-82 0 -82 -92t82 -92zM41 -102v102q0 82 46 135t93 66l45 14v21q-8 2 -20 8t-31.5 31.5t-19.5 62.5
q0 41 17 68.5t36 35.5l18 9v20q-4 2 -13 5t-29.5 19.5t-37 37t-30 59.5t-13.5 84v123q0 106 80 186t187 80h245l62 102h266v-92l-92 -51v-16q6 -2 15 -6.5t34 -21.5t44.5 -41t34.5 -67t15 -94v-143q0 -106 -78.5 -186t-187.5 -80h-256q-16 0 -28.5 -12.5t-12.5 -29
t12.5 -28.5t28.5 -12h317q109 0 188 -80t79 -187v-122q0 -106 -79 -186.5t-188 -80.5h-481q-106 0 -186 80.5t-80 186.5zM410 1208v215l122 256h123v-471h-245z" />
    <glyph glyph-name="Imacron" unicode="&#x12a;" horiz-adv-x="573" 
d="M133 0v1434h307v-1434h-307zM-41 1608v225h655v-225h-655z" />
    <glyph glyph-name="imacron" unicode="&#x12b;" horiz-adv-x="542" 
d="M-61 1239v225h665v-225h-665zM123 0v1044h297v-1044h-297z" />
    <glyph glyph-name="Iogonek" unicode="&#x12e;" horiz-adv-x="573" 
d="M430 -471h-174q-98 0 -156.5 53t-58.5 137q0 80 51 150t103 100l51 31h-113v1434h307v-1454q-8 -4 -21 -11.5t-46 -32t-58.5 -48t-47 -58.5t-21.5 -66q0 -51 51 -51h133v-184z" />
    <glyph glyph-name="iogonek" unicode="&#x12f;" horiz-adv-x="542" 
d="M410 -471h-174q-98 0 -157 53t-59 137q0 80 51.5 150t102.5 100l51 31h-102v1044h297v-1064q-8 -4 -21.5 -11.5t-46.5 -32t-58.5 -48t-47 -58.5t-21.5 -66q0 -51 51 -51h134v-184zM123 1167v308h297v-308h-297z" />
    <glyph glyph-name="Idotaccent" unicode="&#x130;" horiz-adv-x="573" 
d="M133 0v1434h307v-1434h-307zM133 1577v307h307v-307h-307z" />
    <glyph glyph-name="dotlessi" unicode="&#x131;" horiz-adv-x="542" 
d="M123 0v1044h297v-1044h-297z" />
    <glyph glyph-name="uni0136" unicode="&#x136;" horiz-adv-x="1290" 
d="M133 0v1434h307v-564h226l286 564h267v-154l-287 -532l307 -594v-154h-287l-286 573h-226v-573h-307zM553 -584v451h246v-215l-123 -236h-123z" />
    <glyph glyph-name="uni0137" unicode="&#x137;" horiz-adv-x="1105" 
d="M123 0v1413h297v-758h174l174 389h266v-143l-194 -369l215 -389v-143h-277l-194 399h-164v-399h-297zM471 -584v451h246v-215l-123 -236h-123z" />
    <glyph glyph-name="Lacute" unicode="&#x139;" horiz-adv-x="1085" 
d="M133 0v1434h307v-1147h615v-287h-922zM174 1577l164 328h307l-235 -328h-236z" />
    <glyph glyph-name="lacute" unicode="&#x13a;" horiz-adv-x="532" 
d="M123 0v1413h297v-1413h-297zM164 1577l164 328h307l-236 -328h-235z" />
    <glyph glyph-name="uni013B" unicode="&#x13b;" horiz-adv-x="1085" 
d="M133 0v1434h307v-1147h615v-287h-922zM522 -584v451h246v-215l-123 -236h-123z" />
    <glyph glyph-name="uni013C" unicode="&#x13c;" horiz-adv-x="542" 
d="M123 0v1413h297v-1413h-297zM143 -584v451h246v-215l-123 -236h-123z" />
    <glyph glyph-name="Lcaron" unicode="&#x13d;" horiz-adv-x="1085" 
d="M133 0v1434h307v-1147h615v-287h-922zM645 963v471h246v-215l-123 -256h-123z" />
    <glyph glyph-name="lcaron" unicode="&#x13e;" horiz-adv-x="747" 
d="M123 0v1413h297v-1413h-297zM553 963v471h246v-215l-123 -256h-123z" />
    <glyph glyph-name="Lslash" unicode="&#x141;" horiz-adv-x="1126" 
d="M164 0v522l-113 -51v266l113 51v646h307v-512l287 122v-266l-287 -123v-368h625v-287h-932z" />
    <glyph glyph-name="lslash" unicode="&#x142;" horiz-adv-x="665" 
d="M174 0v614l-123 -51v246l123 51v553h297v-420l143 72v-246l-143 -71v-748h-297z" />
    <glyph glyph-name="Nacute" unicode="&#x143;" horiz-adv-x="1372" 
d="M133 0v1434h338l481 -902h11l-31 256v646h307v-1434h-338l-481 901h-10l30 -256v-645h-307zM573 1577l164 328h307l-235 -328h-236z" />
    <glyph glyph-name="nacute" unicode="&#x144;" horiz-adv-x="1116" 
d="M451 1208l163 328h308l-236 -328h-235zM113 0v1044h204l41 -112h11q2 6 7 14t25 32t45 41t67 32q42 14 91 14h144q109 0 187 -80q79 -80 79 -186v-799h-297v696q0 53 -25 78t-78 25h-61q-78 0 -111 -33t-32 -111v-655h-297z" />
    <glyph glyph-name="uni0145" unicode="&#x145;" horiz-adv-x="1372" 
d="M133 0v1434h338l481 -902h11l-31 256v646h307v-1434h-338l-481 901h-10l30 -256v-645h-307zM563 -584v451h246v-215l-123 -236h-123z" />
    <glyph glyph-name="uni0146" unicode="&#x146;" horiz-adv-x="1116" 
d="M113 0v1044h204l41 -112h11q2 6 7 14t25.5 31.5t45 41t66.5 32t91 14.5h144q109 0 187.5 -80t78.5 -186v-799h-297v696q0 53 -24.5 78t-78.5 25h-61q-78 0 -110.5 -33t-32.5 -111v-655h-297zM440 -584v451h246v-215l-123 -236h-123z" />
    <glyph glyph-name="Ncaron" unicode="&#x147;" horiz-adv-x="1372" 
d="M133 0v1434h338l481 -902h11l-31 256v646h307v-1434h-338l-481 901h-10l30 -256v-645h-307zM543 1577l-215 328h266l92 -164l92 164h266l-215 -328h-286z" />
    <glyph glyph-name="ncaron" unicode="&#x148;" horiz-adv-x="1116" 
d="M430 1208l-215 328h266l92 -164l93 164h266l-215 -328h-287zM113 0v1044h204l41 -112h11q2 6 7 14t25 32t45 41t67 32q42 14 91 14h144q109 0 187 -80q79 -80 79 -186v-799h-297v696q0 53 -25 78t-78 25h-61q-78 0 -111 -33t-32 -111v-655h-297z" />
    <glyph glyph-name="Omacron" unicode="&#x14c;" horiz-adv-x="1320" 
d="M543 266h235q123 0 123 123v655q0 123 -123 123h-235q-123 0 -123 -123v-655q0 -123 123 -123zM113 287v860q0 139 85 223t222 84h481q139 0 223 -84t84 -223v-860q0 -139 -84 -223t-223 -84h-481q-137 0 -222 84t-85 223zM348 1608v225h656v-225h-656z" />
    <glyph glyph-name="omacron" unicode="&#x14d;" horiz-adv-x="1126" 
d="M236 1239v225h665v-225h-665zM92 246v553q0 106 79 186t187 80h410q109 0 187 -80q79 -80 79 -186v-553q0 -106 -79 -187q-79 -80 -187 -79h-410q-109 0 -187 79q-79 81 -79 187zM492 246h143q53 0 78 24q25 25 24 78v348q0 53 -24 78q-25 25 -78 25h-143q-53 0 -78 -25
t-25 -78v-348q0 -53 25 -78q25 -24 78 -24z" />
    <glyph glyph-name="Ohungarumlaut" unicode="&#x150;" horiz-adv-x="1320" 
d="M543 266h235q123 0 123 123v655q0 123 -123 123h-235q-123 0 -123 -123v-655q0 -123 123 -123zM113 287v860q0 139 85 223t222 84h481q139 0 223 -84t84 -223v-860q0 -139 -84 -223t-223 -84h-481q-137 0 -222 84t-85 223zM358 1577l164 328h266l-215 -328h-215z
M737 1577l174 328h267l-226 -328h-215z" />
    <glyph glyph-name="ohungarumlaut" unicode="&#x151;" horiz-adv-x="1126" 
d="M256 1208l164 328h266l-215 -328h-215zM635 1208l174 328h266l-225 -328h-215zM92 246v553q0 106 79 186t187 80h410q109 0 187 -80q79 -80 79 -186v-553q0 -106 -79 -187q-79 -80 -187 -79h-410q-109 0 -187 79q-79 81 -79 187zM492 246h143q53 0 78 24q25 25 24 78v348
q0 53 -24 78q-25 25 -78 25h-143q-53 0 -78 -25t-25 -78v-348q0 -53 25 -78q25 -24 78 -24z" />
    <glyph glyph-name="OE" unicode="&#x152;" horiz-adv-x="1843" 
d="M113 307v819q0 139 85 223.5t222 84.5h1352v-195l-93 -92h-522v-287h410v-276h-410v-297h615v-287h-1352q-137 0 -222 84t-85 223zM543 287h307v860h-307q-123 0 -123 -123v-614q0 -123 123 -123z" />
    <glyph glyph-name="oe" unicode="&#x153;" horiz-adv-x="1740" 
d="M492 246h143q53 0 77.5 24.5t24.5 77.5v348q0 53 -24.5 78t-77.5 25h-143q-53 0 -78 -24.5t-25 -78.5v-348q0 -53 25 -77.5t78 -24.5zM1034 635h328v92q0 53 -24.5 77.5t-77.5 24.5h-123q-53 0 -78 -24.5t-25 -77.5v-92zM92 246v553q0 106 79 186t187 80h328
q59 0 107.5 -25.5t66.5 -52.5l21 -24h10q6 12 20.5 28.5t67.5 45t117 28.5h297q106 0 186 -80t80 -186v-389h-625v-72q0 -53 24.5 -77.5t78.5 -24.5h471v-236h-523q-55 0 -101 22.5t-64 47.5l-19 22h-10q-6 -12 -20.5 -30.5t-67.5 -50t-117 -31.5h-328q-109 0 -187.5 80
t-78.5 186z" />
    <glyph glyph-name="Racute" unicode="&#x154;" horiz-adv-x="1300" 
d="M133 0v1434h758q137 0 222 -84t85 -224v-307q0 -63 -21.5 -113.5t-51 -78t-59.5 -46t-50 -24.5l-23 -4l236 -399v-154h-287l-256 512h-246v-512h-307zM440 799h328q123 0 123 123v102q0 123 -123 123h-328v-348zM543 1577l164 328h307l-236 -328h-235z" />
    <glyph glyph-name="racute" unicode="&#x155;" horiz-adv-x="819" 
d="M348 1208l164 328h307l-235 -328h-236zM113 0v1044h204l41 -112h11q2 6 7 14t25 32t45 41t67 32q42 14 91 14h184v-287h-256q-123 0 -122 -123v-655h-297z" />
    <glyph glyph-name="uni0156" unicode="&#x156;" horiz-adv-x="1300" 
d="M133 0v1434h758q137 0 222 -84t85 -224v-307q0 -63 -21.5 -113.5t-51 -78t-59.5 -46t-50 -24.5l-23 -4l236 -399v-154h-287l-256 512h-246v-512h-307zM440 799h328q123 0 123 123v102q0 123 -123 123h-328v-348zM563 -584v451h246v-215l-123 -236h-123z" />
    <glyph glyph-name="uni0157" unicode="&#x157;" horiz-adv-x="819" 
d="M113 0v1044h204l41 -112h11q2 6 7 14t25.5 31.5t45 41t66.5 32t91 14.5h184v-287h-256q-123 0 -122 -123v-655h-297zM143 -584v451h246v-215l-123 -236h-123z" />
    <glyph glyph-name="Rcaron" unicode="&#x158;" horiz-adv-x="1300" 
d="M133 0v1434h758q137 0 222 -84t85 -224v-307q0 -63 -21.5 -113.5t-51 -78t-59.5 -46t-50 -24.5l-23 -4l236 -399v-154h-287l-256 512h-246v-512h-307zM440 799h328q123 0 123 123v102q0 123 -123 123h-328v-348zM522 1577l-215 328h266l93 -164l92 164h266l-215 -328
h-287z" />
    <glyph glyph-name="rcaron" unicode="&#x159;" horiz-adv-x="819" 
d="M328 1208l-215 328h266l92 -164l92 164h266l-215 -328h-286zM113 0v1044h204l41 -112h11q2 6 7 14t25 32t45 41t67 32q42 14 91 14h184v-287h-256q-123 0 -122 -123v-655h-297z" />
    <glyph glyph-name="Sacute" unicode="&#x15a;" horiz-adv-x="1187" 
d="M82 0v287h625q47 0 74.5 28.5t27.5 73.5v51q0 102 -102 123l-349 72q-125 25 -200.5 110.5t-75.5 206.5v174q0 139 84 223.5t223 84.5h686v-195l-92 -92h-491q-45 0 -74 -28.5t-29 -74.5v-20q0 -102 103 -123l348 -72q125 -25 200.5 -110.5t75.5 -206.5v-205
q0 -139 -85 -223t-222 -84h-727zM492 1577l163 328h308l-236 -328h-235z" />
    <glyph glyph-name="sacute" unicode="&#x15b;" horiz-adv-x="942" 
d="M358 1208l164 328h307l-235 -328h-236zM51 0v246h471q31 0 51 20t21 51q0 23 -21 43q-20 20 -51 29l-225 51q-109 25 -177 96q-69 71 -69 160v82q0 106 79 187q79 80 187 79h533v-163l-82 -82h-348q-31 0 -51 -21q-20 -20 -21 -51q0 -53 72 -72l225 -51q102 -25 174 -95
q72 -71 72 -161v-82q0 -106 -79 -186t-187 -80h-574z" />
    <glyph glyph-name="Scedilla" unicode="&#x15e;" horiz-adv-x="1187" 
d="M430 -492v164h184q16 0 28.5 12.5t12.5 28.5q0 14 -12 27.5t-27 13.5h-114l-51 51v195h-369v287h625q47 0 74.5 28.5t27.5 73.5v51q0 102 -102 123l-349 72q-125 25 -200.5 110.5t-75.5 206.5v174q0 139 84 223.5t223 84.5h686v-195l-92 -92h-491q-45 0 -74 -28.5
t-29 -74.5v-20q0 -102 103 -123l348 -72q125 -25 200.5 -110.5t75.5 -206.5v-205q0 -139 -85 -223t-222 -84h-154v-82h21q78 0 131 -53t53 -131v-41q0 -78 -53 -131.5t-131 -53.5h-246z" />
    <glyph glyph-name="scedilla" unicode="&#x15f;" horiz-adv-x="942" 
d="M287 -492v164h184q16 0 28.5 12.5t12.5 28.5q0 14 -12.5 27.5t-26.5 13.5h-115l-51 51v195h-256v246h471q31 0 51.5 20.5t20.5 50.5q0 23 -20.5 43.5t-51.5 28.5l-225 51q-109 25 -177.5 95.5t-68.5 160.5v82q0 106 79 186t187 80h533v-163l-82 -82h-348
q-31 0 -51.5 -20.5t-20.5 -51.5q0 -53 72 -72l225 -51q102 -25 174 -95.5t72 -160.5v-82q0 -106 -79 -186t-187 -80h-113v-82h20q78 0 131.5 -53t53.5 -131v-41q0 -78 -53.5 -131.5t-131.5 -53.5h-245z" />
    <glyph glyph-name="Scaron" unicode="&#x160;" horiz-adv-x="1187" 
d="M82 0v287h625q47 0 74.5 28.5t27.5 73.5v51q0 102 -102 123l-349 72q-125 25 -200.5 110.5t-75.5 206.5v174q0 139 84 223.5t223 84.5h686v-195l-92 -92h-491q-45 0 -74 -28.5t-29 -74.5v-20q0 -102 103 -123l348 -72q125 -25 200.5 -110.5t75.5 -206.5v-205
q0 -139 -85 -223t-222 -84h-727zM471 1577l-215 328h266l92 -164l93 164h266l-215 -328h-287z" />
    <glyph glyph-name="scaron" unicode="&#x161;" horiz-adv-x="942" 
d="M328 1208l-215 328h266l92 -164l92 164h266l-215 -328h-286zM51 0v246h471q31 0 51 20t21 51q0 23 -21 43q-20 20 -51 29l-225 51q-109 25 -177 96q-69 71 -69 160v82q0 106 79 187q79 80 187 79h533v-163l-82 -82h-348q-31 0 -51 -21q-20 -20 -21 -51q0 -53 72 -72
l225 -51q102 -25 174 -95q72 -71 72 -161v-82q0 -106 -79 -186t-187 -80h-574z" />
    <glyph glyph-name="uni0162" unicode="&#x162;" horiz-adv-x="1146" 
d="M420 0v1147h-389v287h1085v-195l-92 -92h-297v-1147h-307zM451 -584v451h245v-215l-123 -236h-122z" />
    <glyph glyph-name="uni0163" unicode="&#x163;" horiz-adv-x="839" 
d="M195 266v533h-144v245h164l102 287h175v-287h245v-163l-82 -82h-163v-430q0 -53 24.5 -78t77.5 -25h174v-266h-307q-109 0 -187.5 80t-78.5 186zM348 -584v451h246v-215l-123 -236h-123z" />
    <glyph glyph-name="Tcaron" unicode="&#x164;" horiz-adv-x="1146" 
d="M420 0v1147h-389v287h1085v-195l-92 -92h-297v-1147h-307zM430 1577l-215 328h266l92 -164l93 164h266l-215 -328h-287z" />
    <glyph glyph-name="tcaron" unicode="&#x165;" horiz-adv-x="1003" 
d="M195 266v533h-144v245h164l102 287h175v-287h245v-163l-82 -82h-163v-430q0 -53 24.5 -78t77.5 -25h174v-266h-307q-109 0 -187.5 80t-78.5 186zM809 963v471h246v-215l-123 -256h-123z" />
    <glyph glyph-name="Umacron" unicode="&#x16a;" horiz-adv-x="1331" 
d="M123 287v1147h307v-1045q0 -123 123 -123h225q123 0 123 123v1045h307v-1147q0 -139 -84 -223t-223 -84h-471q-139 0 -223 84t-84 223zM338 1608v225h655v-225h-655z" />
    <glyph glyph-name="umacron" unicode="&#x16b;" horiz-adv-x="1126" 
d="M246 1239v225h665v-225h-665zM113 246v798h297v-696q0 -53 24 -78q25 -25 78 -24h61q78 0 111 33t33 110v655h297v-1044h-205l-41 113h-10q-2 -6 -7 -15q-5 -8 -26 -31q-20 -24 -45 -41t-67 -32q-42 -14 -91 -14h-143q-109 0 -188 79q-78 81 -78 187z" />
    <glyph glyph-name="Uring" unicode="&#x16e;" horiz-adv-x="1331" 
d="M123 287v1147h307v-1045q0 -123 123 -123h225q123 0 123 123v1045h307v-1147q0 -139 -84 -223t-223 -84h-471q-139 0 -223 84t-84 223zM430 1700v41q0 78 59.5 136t135.5 58h106q74 0 132.5 -59t58.5 -135v-41q0 -78 -59.5 -136.5t-135.5 -58.5h-102q-76 0 -135.5 58.5
t-59.5 136.5zM666 1659h20q51 0 51 51v21q0 51 -51 51h-20q-51 0 -52 -51v-21q1 -51 52 -51z" />
    <glyph glyph-name="uring" unicode="&#x16f;" horiz-adv-x="1126" 
d="M328 1341v62q0 76 59 135t135 59h103q76 0 135 -59t59 -135v-62q0 -76 -59 -135t-135 -59h-103q-76 0 -135 59t-59 135zM563 1311h21q51 0 51 51v20q0 51 -51 52h-21q-51 0 -51 -52v-20q0 -51 51 -51zM113 246v798h297v-696q0 -53 24 -78q25 -25 78 -24h61q78 0 111 33
t33 110v655h297v-1044h-205l-41 113h-10q-2 -6 -7 -15q-5 -8 -26 -31q-20 -24 -45 -41t-67 -32q-42 -14 -91 -14h-143q-109 0 -188 79q-78 81 -78 187z" />
    <glyph glyph-name="Uhungarumlaut" unicode="&#x170;" horiz-adv-x="1331" 
d="M123 287v1147h307v-1045q0 -123 123 -123h225q123 0 123 123v1045h307v-1147q0 -139 -84 -223t-223 -84h-471q-139 0 -223 84t-84 223zM369 1577l163 328h267l-215 -328h-215zM748 1577l174 328h266l-225 -328h-215z" />
    <glyph glyph-name="uhungarumlaut" unicode="&#x171;" horiz-adv-x="1126" 
d="M276 1208l164 328h267l-215 -328h-216zM655 1208l174 328h267l-226 -328h-215zM113 246v798h297v-696q0 -53 24 -78q25 -25 78 -24h61q78 0 111 33t33 110v655h297v-1044h-205l-41 113h-10q-2 -6 -7 -15q-5 -8 -26 -31q-20 -24 -45 -41t-67 -32q-42 -14 -91 -14h-143
q-109 0 -188 79q-78 81 -78 187z" />
    <glyph glyph-name="Uogonek" unicode="&#x172;" horiz-adv-x="1331" 
d="M840 -471h-174q-98 0 -156.5 53t-58.5 137q0 86 53 154t117 107h-191q-139 0 -223 83.5t-84 223.5v1147h307v-1045q0 -123 123 -123h225q123 0 123 123v1045h307v-1147q0 -139 -84 -223t-223 -84h-51q-8 -4 -21.5 -11.5t-46 -32t-58.5 -48t-47.5 -58.5t-21.5 -66
q0 -51 52 -51h133v-184z" />
    <glyph glyph-name="uogonek" unicode="&#x173;" horiz-adv-x="1126" 
d="M113 246v798h297v-696q0 -53 24.5 -77.5t77.5 -24.5h61q78 0 111 32.5t33 110.5v655h297v-1064q-8 -4 -21.5 -11.5t-46.5 -32t-58.5 -48t-47 -58.5t-21.5 -66q0 -51 51 -51h134v-184h-175q-98 0 -156.5 53t-58.5 137q0 80 51.5 150t102.5 100l51 31h-10l-41 113h-10
q-2 -6 -7.5 -14.5t-25.5 -32t-45 -41t-67 -31.5t-91 -14h-143q-109 0 -187.5 80t-78.5 186z" />
    <glyph glyph-name="Ydieresis" unicode="&#x178;" horiz-adv-x="1167" 
d="M430 0v451l-399 829v154h297l256 -646h20l236 646h297v-154l-400 -829v-451h-307zM246 1597v287h256v-287h-256zM686 1597v287h256v-287h-256z" />
    <glyph glyph-name="Zacute" unicode="&#x179;" 
d="M51 0v266l615 860v21h-492l-92 92v195h983v-267l-614 -860v-20h614v-287h-1014zM461 1577l164 328h307l-236 -328h-235z" />
    <glyph glyph-name="zacute" unicode="&#x17a;" horiz-adv-x="983" 
d="M369 1208l163 328h308l-236 -328h-235zM72 0v236l440 532v20h-358l-82 82v174h839v-235l-440 -533v-20h440v-256h-839z" />
    <glyph glyph-name="Zdotaccent" unicode="&#x17b;" 
d="M51 0v266l615 860v21h-492l-92 92v195h983v-267l-614 -860v-20h614v-287h-1014zM440 1577v307h308v-307h-308z" />
    <glyph glyph-name="zdotaccent" unicode="&#x17c;" horiz-adv-x="983" 
d="M358 1208v308h297v-308h-297zM72 0v236l440 532v20h-358l-82 82v174h839v-235l-440 -533v-20h440v-256h-839z" />
    <glyph glyph-name="Zcaron" unicode="&#x17d;" 
d="M51 0v266l615 860v21h-492l-92 92v195h983v-267l-614 -860v-20h614v-287h-1014zM451 1577l-215 328h266l92 -164l92 164h266l-215 -328h-286z" />
    <glyph glyph-name="zcaron" unicode="&#x17e;" horiz-adv-x="983" 
d="M369 1208l-215 328h266l92 -164l92 164h266l-215 -328h-286zM72 0v236l440 532v20h-358l-82 82v174h839v-235l-440 -533v-20h440v-256h-839z" />
    <glyph glyph-name="florin" unicode="&#x192;" horiz-adv-x="962" 
d="M-92 -348l51 266h113q96 0 123 123l143 635h-215l51 246h205l51 245q25 113 112 190t206 77h419l-41 -246h-297q-96 0 -122 -123l-31 -143h276l-30 -164l-103 -82h-194l-154 -737q-31 -147 -105.5 -217t-211.5 -70h-246z" />
    <glyph glyph-name="uni0218" unicode="&#x218;" horiz-adv-x="1187" 
d="M82 0v287h625q47 0 74.5 28.5t27.5 73.5v51q0 102 -102 123l-349 72q-125 25 -200.5 110.5t-75.5 206.5v174q0 139 84 223.5t223 84.5h686v-195l-92 -92h-491q-45 0 -74 -28.5t-29 -74.5v-20q0 -102 103 -123l348 -72q125 -25 200.5 -110.5t75.5 -206.5v-205
q0 -139 -85 -223t-222 -84h-727zM471 -584v451h246v-215l-123 -236h-123z" />
    <glyph glyph-name="uni0219" unicode="&#x219;" horiz-adv-x="942" 
d="M51 0v246h471q31 0 51.5 20.5t20.5 50.5q0 23 -20.5 43.5t-51.5 28.5l-225 51q-109 25 -177.5 95.5t-68.5 160.5v82q0 106 79 186t187 80h533v-163l-82 -82h-348q-31 0 -51.5 -20.5t-20.5 -51.5q0 -53 72 -72l225 -51q102 -25 174 -95.5t72 -160.5v-82q0 -106 -79 -186
t-187 -80h-574zM348 -584v451h246v-215l-123 -236h-123z" />
    <glyph glyph-name="uni021A" unicode="&#x21a;" horiz-adv-x="1146" 
d="M420 0v1147h-389v287h1085v-195l-92 -92h-297v-1147h-307zM451 -584v451h245v-215l-123 -236h-122z" />
    <glyph glyph-name="uni021B" unicode="&#x21b;" horiz-adv-x="839" 
d="M195 266v533h-144v245h164l102 287h175v-287h245v-163l-82 -82h-163v-430q0 -53 24.5 -78t77.5 -25h174v-266h-307q-109 0 -187.5 80t-78.5 186zM348 -584v451h246v-215l-123 -236h-123z" />
    <glyph glyph-name="uni02BC" unicode="&#x2bc;" horiz-adv-x="368" 
d="M61 963v471h246v-215l-123 -256h-123z" />
    <glyph glyph-name="circumflex" unicode="&#x2c6;" horiz-adv-x="839" 
d="M61 1208l215 328h287l215 -328h-266l-92 164l-92 -164h-267z" />
    <glyph glyph-name="caron" unicode="&#x2c7;" horiz-adv-x="839" 
d="M276 1208l-215 328h267l92 -164l92 164h266l-215 -328h-287z" />
    <glyph glyph-name="breve" unicode="&#x2d8;" horiz-adv-x="808" 
d="M61 1393v143h246v-61q0 -61 62 -62h71q61 0 62 62v61h246v-143q0 -78 -54.5 -131.5t-130.5 -53.5h-317q-78 0 -131.5 53.5t-53.5 131.5z" />
    <glyph glyph-name="dotaccent" unicode="&#x2d9;" horiz-adv-x="419" 
d="M61 1208v308h297v-308h-297z" />
    <glyph glyph-name="ring" unicode="&#x2da;" horiz-adv-x="614" 
d="M61 1341v62q0 76 59.5 135t135.5 59h102q76 0 135.5 -59t59.5 -135v-62q0 -76 -59.5 -135t-135.5 -59h-102q-76 0 -135.5 59t-59.5 135zM297 1311h20q51 0 52 51v20q0 51 -52 52h-20q-51 0 -51 -52v-20q0 -51 51 -51z" />
    <glyph glyph-name="ogonek" unicode="&#x2db;" horiz-adv-x="522" 
d="M451 -471h-175q-98 0 -156.5 53t-58.5 137q0 80 51.5 150t102.5 100l51 31h195v-20q-8 -4 -21.5 -11.5t-46.5 -32t-58.5 -48t-47 -58.5t-21.5 -66q0 -51 51 -51h134v-184z" />
    <glyph glyph-name="tilde" unicode="&#x2dc;" horiz-adv-x="768" 
d="M61 1208v185q0 61 41 102t103 41h41q57 0 107 -36t82 -71.5t46 -35.5q20 0 21 20v113h205v-185q0 -61 -41 -102t-103 -41h-41q-57 0 -107 36t-82 71.5t-46 35.5q-20 0 -21 -20v-113h-205z" />
    <glyph glyph-name="hungarumlaut" unicode="&#x2dd;" horiz-adv-x="942" 
d="M61 1208l164 328h267l-216 -328h-215zM440 1208l174 328h267l-226 -328h-215z" />
    <glyph glyph-name="uni0401" unicode="&#x401;" 
d="M133 0v1434h932v-195l-92 -92h-533v-287h420v-276h-420v-297h625v-287h-932zM256 1597v287h256v-287h-256zM696 1597v287h256v-287h-256z" />
    <glyph glyph-name="uni0402" unicode="&#x402;" horiz-adv-x="1433" 
d="M317 0v1147h-297v287h994v-195l-92 -92h-297v-246h419q139 0 223.5 -84t84.5 -223v-328q0 -139 -84 -223t-224 -84h-194v287h72q123 0 122 123v123q0 123 -122 122h-297v-614h-308z" />
    <glyph glyph-name="uni0403" unicode="&#x403;" horiz-adv-x="1034" 
d="M133 0v1434h881v-195l-92 -92h-482v-1147h-307zM451 1577l163 328h308l-236 -328h-235z" />
    <glyph glyph-name="uni0404" unicode="&#x404;" horiz-adv-x="1157" 
d="M113 307v819q0 139 85 223.5t222 84.5h665v-195l-92 -92h-450q-123 0 -123 -123v-164h420v-276h-420v-174q0 -123 123 -123h542v-287h-665q-137 0 -222 84t-85 223z" />
    <glyph glyph-name="uni0405" unicode="&#x405;" horiz-adv-x="1187" 
d="M82 0v287h625q47 0 74.5 28.5t27.5 73.5v51q0 102 -102 123l-349 72q-125 25 -200.5 110.5t-75.5 206.5v174q0 139 84 223.5t223 84.5h686v-195l-92 -92h-491q-45 0 -74 -28.5t-29 -74.5v-20q0 -102 103 -123l348 -72q125 -25 200.5 -110.5t75.5 -206.5v-205
q0 -139 -85 -223t-222 -84h-727z" />
    <glyph glyph-name="uni0406" unicode="&#x406;" horiz-adv-x="573" 
d="M133 0v1434h307v-1434h-307z" />
    <glyph glyph-name="uni0407" unicode="&#x407;" horiz-adv-x="573" 
d="M133 0v1434h307v-1434h-307zM-61 1597v287h256v-287h-256zM379 1597v287h256v-287h-256z" />
    <glyph glyph-name="uni0408" unicode="&#x408;" horiz-adv-x="890" 
d="M20 -20v286h318q123 0 123 123v1045h307v-1147q0 -139 -85 -223t-222 -84h-441z" />
    <glyph glyph-name="uni0409" unicode="&#x409;" horiz-adv-x="2037" 
d="M0 -20v286h102q94 0 103 94l112 1074h891v-471h441q137 0 222 -84t85 -224v-348q0 -139 -85 -223t-222 -84h-748v1147h-307l-82 -830q-16 -162 -105.5 -249.5t-242.5 -87.5h-164zM1208 287h318q123 0 123 123v143q0 123 -123 123h-318v-389z" />
    <glyph glyph-name="uni040A" unicode="&#x40a;" horiz-adv-x="2037" 
d="M133 0v1434h307v-543h471v543h308v-543h430q137 0 222 -85t85 -222v-277q0 -139 -85 -223t-222 -84h-738v604h-471v-604h-307zM1219 287h307q123 0 123 123v71q0 123 -123 123h-307v-317z" />
    <glyph glyph-name="uni040B" unicode="&#x40b;" horiz-adv-x="1464" 
d="M317 0v1147h-297v287h994v-195l-92 -92h-297v-246h419q139 0 223.5 -84t84.5 -223v-594h-308v492q0 123 -122 122h-297v-614h-308z" />
    <glyph glyph-name="uni040C" unicode="&#x40c;" horiz-adv-x="1290" 
d="M133 0v1434h307v-564h226l286 564h267v-154l-287 -532l307 -594v-154h-287l-286 573h-226v-573h-307zM563 1577l164 328h307l-235 -328h-236z" />
    <glyph glyph-name="uni040E" unicode="&#x40e;" horiz-adv-x="1198" 
d="M184 -20v286h92q109 0 164 92v21l-409 901v154h297l286 -758h21l225 758h297v-150l-348 -977q-59 -162 -161.5 -244.5t-278.5 -82.5h-185zM266 1761v164h246v-82q0 -61 61 -61h82q61 0 62 61v82h246v-164q0 -78 -53.5 -131t-131.5 -53h-327q-78 0 -131.5 53t-53.5 131z
" />
    <glyph glyph-name="uni040F" unicode="&#x40f;" horiz-adv-x="1331" 
d="M133 0v1434h307v-1147h451v1147h307v-1434h-379v-266h-307v266h-379z" />
    <glyph glyph-name="uni0410" unicode="&#x410;" horiz-adv-x="1249" 
d="M461 553h327l-153 604h-21zM20 0v143l410 1291h389l410 -1291v-143h-297l-72 287h-471l-72 -287h-297z" />
    <glyph glyph-name="uni0411" unicode="&#x411;" horiz-adv-x="1269" 
d="M133 0v1434h952v-195l-92 -92h-553v-266h441q139 0 223 -84t84 -224v-266q0 -139 -84 -223t-223 -84h-748zM440 266h318q123 0 123 123v103q0 123 -123 122h-318v-348z" />
    <glyph glyph-name="uni0412" unicode="&#x412;" horiz-adv-x="1249" 
d="M133 0v1434h696q137 0 222.5 -84t85.5 -224v-102q0 -66 -20.5 -118t-48.5 -78.5t-56.5 -44t-48.5 -21.5l-21 -4v-21q8 -2 23.5 -5t54.5 -22.5t68.5 -47t54 -84t24.5 -127.5v-144q0 -139 -84 -223t-223 -84h-727zM440 266h297q123 0 123 123v92q0 123 -123 123h-297v-338z
M440 860h267q123 0 122 123v61q0 123 -122 123h-267v-307z" />
    <glyph glyph-name="uni0413" unicode="&#x413;" horiz-adv-x="1034" 
d="M133 0v1434h881v-195l-92 -92h-482v-1147h-307z" />
    <glyph glyph-name="uni0414" unicode="&#x414;" horiz-adv-x="1392" 
d="M0 -266v553h72q4 2 12 7t29.5 23.5t38 40t33 57.5t20.5 77l102 942h901v-1147h154v-553h-307v266h-748v-266h-307zM410 287h491v860h-328l-61 -655q-6 -63 -31.5 -109.5t-48.5 -60.5l-22 -15v-20z" />
    <glyph glyph-name="uni0415" unicode="&#x415;" 
d="M133 0v1434h932v-195l-92 -92h-533v-287h420v-276h-420v-297h625v-287h-932z" />
    <glyph glyph-name="uni0416" unicode="&#x416;" horiz-adv-x="1966" 
d="M51 0v154l318 594l-287 532v154h266l287 -564h194v564h308v-564h194l287 564h266v-154l-287 -532l318 -594v-154h-297l-287 573h-194v-573h-308v573h-194l-287 -573h-297z" />
    <glyph glyph-name="uni0417" unicode="&#x417;" horiz-adv-x="1146" 
d="M61 0v287h574q123 0 123 123v61q0 123 -123 123h-307v266h286q123 0 123 123v41q0 123 -123 123h-460l-93 92v195h676q139 0 223 -84t84 -224v-102q0 -66 -20 -118t-49 -78.5t-56.5 -44t-48.5 -21.5l-20 -4v-21q8 -2 22.5 -5t52.5 -22.5t65.5 -47t51 -84t23.5 -127.5
v-144q0 -139 -84 -223t-223 -84h-697z" />
    <glyph glyph-name="uni0418" unicode="&#x418;" horiz-adv-x="1361" 
d="M133 0v1434h307v-656l-30 -256h20l502 912h297v-1434h-307v655l30 256h-20l-502 -911h-297z" />
    <glyph glyph-name="uni0419" unicode="&#x419;" horiz-adv-x="1361" 
d="M133 0v1434h307v-656l-30 -256h20l502 912h297v-1434h-307v655l30 256h-20l-502 -911h-297zM338 1761v164h246v-82q0 -61 61 -61h82q61 0 61 61v82h246v-164q0 -78 -54 -131t-130 -53h-328q-76 0 -130 53t-54 131z" />
    <glyph glyph-name="uni041A" unicode="&#x41a;" horiz-adv-x="1290" 
d="M133 0v1434h307v-564h226l286 564h267v-154l-287 -532l307 -594v-154h-287l-286 573h-226v-573h-307z" />
    <glyph glyph-name="uni041B" unicode="&#x41b;" horiz-adv-x="1361" 
d="M0 -20v286h102q94 0 103 94l112 1074h912v-1434h-307v1147h-328l-82 -830q-16 -162 -105.5 -249.5t-242.5 -87.5h-164z" />
    <glyph glyph-name="uni041C" unicode="&#x41c;" horiz-adv-x="1761" 
d="M72 0v154l133 1280h358l307 -809h21l307 809h358l134 -1280v-154h-318l-61 922h-21l-266 -717h-287l-266 717h-20l-62 -922h-317z" />
    <glyph glyph-name="uni041D" unicode="&#x41d;" horiz-adv-x="1351" 
d="M133 0v1434h307v-564h471v564h308v-1434h-308v584h-471v-584h-307z" />
    <glyph glyph-name="uni041E" unicode="&#x41e;" horiz-adv-x="1320" 
d="M543 266h235q123 0 123 123v655q0 123 -123 123h-235q-123 0 -123 -123v-655q0 -123 123 -123zM113 287v860q0 139 85 223t222 84h481q139 0 223 -84t84 -223v-860q0 -139 -84 -223t-223 -84h-481q-137 0 -222 84t-85 223z" />
    <glyph glyph-name="uni041F" unicode="&#x41f;" horiz-adv-x="1331" 
d="M133 0v1434h1065v-1434h-307v1147h-451v-1147h-307z" />
    <glyph glyph-name="uni0420" unicode="&#x420;" horiz-adv-x="1290" 
d="M133 0v1434h758q137 0 222 -84t85 -224v-389q0 -139 -85 -223t-222 -84h-451v-430h-307zM440 717h328q123 0 123 123v184q0 123 -123 123h-328v-430z" />
    <glyph glyph-name="uni0421" unicode="&#x421;" horiz-adv-x="1157" 
d="M113 307v819q0 139 85 223.5t222 84.5h665v-195l-92 -92h-450q-123 0 -123 -123v-614q0 -123 123 -123h542v-287h-665q-137 0 -222 84t-85 223z" />
    <glyph glyph-name="uni0422" unicode="&#x422;" horiz-adv-x="1146" 
d="M420 0v1147h-389v287h1085v-195l-92 -92h-297v-1147h-307z" />
    <glyph glyph-name="uni0423" unicode="&#x423;" horiz-adv-x="1198" 
d="M184 -20v286h92q109 0 164 92v21l-409 901v154h297l286 -758h21l225 758h297v-150l-348 -977q-59 -162 -161.5 -244.5t-278.5 -82.5h-185z" />
    <glyph glyph-name="uni0424" unicode="&#x424;" horiz-adv-x="1740" 
d="M92 410v634q0 139 85 223.5t222 84.5h318v143h307v-143h317q137 0 222.5 -84t85.5 -224v-634q0 -139 -85 -223.5t-223 -84.5h-317v-143h-307v143h-318q-137 0 -222 84.5t-85 223.5zM1024 389h195q123 0 122 123v430q0 123 -122 123h-195v-676zM522 389h195v676h-195
q-123 0 -123 -123v-430q0 -123 123 -123z" />
    <glyph glyph-name="uni0425" unicode="&#x425;" horiz-adv-x="1228" 
d="M41 0v154l317 553l-276 573v154h297q43 -102 225 -533h21q182 430 225 533h297v-154l-277 -553l318 -573v-154h-297l-266 543h-21l-266 -543h-297z" />
    <glyph glyph-name="uni0426" unicode="&#x426;" horiz-adv-x="1382" 
d="M133 0v1434h307v-1147h451v1147h307v-1147h154v-553h-308v266h-911z" />
    <glyph glyph-name="uni0427" unicode="&#x427;" horiz-adv-x="1280" 
d="M840 0v471h-420q-137 0 -222 84t-85 223v656h307v-553q0 -123 123 -123h297v676h307v-1434h-307z" />
    <glyph glyph-name="uni0428" unicode="&#x428;" horiz-adv-x="1945" 
d="M133 0v1434h307v-1147h379v1147h307v-1147h379v1147h307v-1434h-1679z" />
    <glyph glyph-name="uni0429" unicode="&#x429;" horiz-adv-x="1996" 
d="M133 0v1434h307v-1147h379v1147h307v-1147h379v1147h307v-1147h154v-553h-307v266h-1526z" />
    <glyph glyph-name="uni042A" unicode="&#x42a;" horiz-adv-x="1433" 
d="M307 0v1147h-276v287h583v-471h430q139 0 223.5 -84t84.5 -224v-348q0 -139 -84 -223t-224 -84h-737zM614 287h308q123 0 122 123v143q0 123 -122 123h-308v-389z" />
    <glyph glyph-name="uni042B" unicode="&#x42b;" horiz-adv-x="1792" 
d="M1352 0v1434h307v-1434h-307zM133 0v1434h307v-471h430q137 0 222.5 -84t85.5 -224v-348q0 -139 -85 -223t-223 -84h-737zM440 287h308q123 0 122 123v143q0 123 -122 123h-308v-389z" />
    <glyph glyph-name="uni042C" unicode="&#x42c;" horiz-adv-x="1280" 
d="M133 0v1434h307v-471h451q137 0 222 -84t85 -224v-348q0 -139 -85 -223t-222 -84h-758zM440 287h328q123 0 123 123v143q0 123 -123 123h-328v-389z" />
    <glyph glyph-name="uni042D" unicode="&#x42d;" horiz-adv-x="1146" 
d="M61 0v287h543q123 0 123 123v174h-420v276h420v164q0 123 -123 123h-450l-93 92v195h666q137 0 222 -84t85 -224v-819q0 -139 -85 -223t-222 -84h-666z" />
    <glyph glyph-name="uni042E" unicode="&#x42e;" horiz-adv-x="1832" 
d="M133 0v1434h307v-574h236v287q0 139 84 223t223 84h430q139 0 223 -84t84 -223v-860q0 -139 -84 -223t-223 -84h-430q-139 0 -223 83.5t-84 223.5v286h-236v-573h-307zM1106 266h184q123 0 123 123v655q0 123 -123 123h-184q-123 0 -123 -123v-655q0 -123 123 -123z" />
    <glyph glyph-name="uni042F" unicode="&#x42f;" horiz-adv-x="1290" 
d="M72 0v154l245 399q-8 2 -22 6t-49 23.5t-61.5 46t-49 77t-22.5 113.5v307q0 139 85 223.5t222 84.5h737v-1434h-307v512h-225l-267 -512h-286zM543 799h307v348h-307q-123 0 -123 -123v-102q0 -123 123 -123z" />
    <glyph glyph-name="uni0430" unicode="&#x430;" horiz-adv-x="1064" 
d="M471 215h51q76 0 110 34t34 109v72h-195q-53 0 -77.5 -24.5t-24.5 -77.5v-11q0 -53 24.5 -77.5t77.5 -24.5zM72 246v123q0 106 78.5 186t187.5 80h328v72q0 53 -25 77.5t-78 24.5h-399v235h532q106 0 186.5 -79.5t80.5 -186.5v-778h-205l-41 113h-10q-2 -6 -7.5 -14.5
t-26 -32t-45 -41t-66.5 -31.5t-91 -14h-133q-109 0 -187.5 80t-78.5 186z" />
    <glyph glyph-name="uni0431" unicode="&#x431;" 
d="M512 246h133q53 0 78 24.5t25 77.5v205q0 53 -25 77.5t-78 24.5h-92q-78 0 -110.5 -32.5t-32.5 -110.5v-164q0 -53 24.5 -77.5t77.5 -24.5zM113 246v737q0 164 89 264.5t238 124.5l533 82l41 -266l-533 -82q-72 -10 -71 -102v-216h10q2 6 7 14.5t24.5 32t43 41t64.5 32
t86 14.5h133q106 0 186 -80t80 -187v-409q0 -106 -79.5 -186t-186.5 -80h-399q-109 0 -187.5 80t-78.5 186z" />
    <glyph glyph-name="uni0432" unicode="&#x432;" horiz-adv-x="1075" 
d="M410 225h225q92 0 92 92.5t-92 92.5h-225v-185zM113 0v1044h645q92 0 169 -76.5t77 -168.5v-21q0 -51 -13.5 -94t-33 -68.5t-40 -43t-32.5 -23.5l-15 -6v-21q6 -2 16.5 -7t37 -25.5t47 -45t37 -66.5t16.5 -91v-21q0 -106 -80 -186t-186 -80h-645zM410 635h194q92 0 92 92
t-92 92h-194v-184z" />
    <glyph glyph-name="uni0433" unicode="&#x433;" horiz-adv-x="890" 
d="M113 0v1044h757v-184l-82 -82h-378v-778h-297z" />
    <glyph glyph-name="uni0434" unicode="&#x434;" horiz-adv-x="1177" 
d="M0 -225v491h82q10 4 24.5 14.5t43 55.5t34.5 104l62 604h778v-778h123v-491h-287v225h-573v-225h-287zM379 266h358v512h-235l-41 -338q-6 -55 -26.5 -93t-37.5 -48l-18 -12v-21z" />
    <glyph glyph-name="uni0435" unicode="&#x435;" horiz-adv-x="1095" 
d="M389 635h328v92q0 53 -24.5 77.5t-78.5 24.5h-122q-53 0 -78 -24.5t-25 -77.5v-92zM92 266v533q0 106 79 186t187 80h390q109 0 187.5 -80t78.5 -186v-389h-625v-72q0 -53 24.5 -77.5t78.5 -24.5h471v-236h-605q-109 0 -187.5 80t-78.5 186z" />
    <glyph glyph-name="uni0436" unicode="&#x436;" horiz-adv-x="1607" 
d="M51 0v143l215 389l-194 369v143h266l174 -389h143v389h297v-389h144l174 389h266v-143l-195 -369l215 -389v-143h-276l-195 399h-133v-399h-297v399h-133l-194 -399h-277z" />
    <glyph glyph-name="uni0437" unicode="&#x437;" horiz-adv-x="962" 
d="M51 0v236h471q82 0 82 81v11q0 82 -82 82h-235v225h215q82 0 82 82v10q0 82 -82 82h-348l-82 82v153h553q100 0 178 -77.5t78 -178.5v-40q0 -45 -12.5 -83t-31 -59.5t-37 -37t-30.5 -19.5l-12 -6v-21q6 -2 15 -6t33.5 -22.5t44 -42t35 -64.5t15.5 -90v-41
q0 -100 -78 -178t-178 -78h-594z" />
    <glyph glyph-name="uni0438" unicode="&#x438;" horiz-adv-x="1167" 
d="M113 0v1044h297v-389l-31 -235h20l359 624h297v-1044h-297v389l30 236h-20l-358 -625h-297z" />
    <glyph glyph-name="uni0439" unicode="&#x439;" horiz-adv-x="1167" 
d="M113 0v1044h297v-389l-31 -235h20l359 624h297v-1044h-297v389l30 236h-20l-358 -625h-297zM256 1393v143h246v-61q0 -61 61 -62h41q61 0 62 62v61h245v-143q0 -78 -54 -131.5t-130 -53.5h-287q-76 0 -130 53.5t-54 131.5z" />
    <glyph glyph-name="uni043A" unicode="&#x43a;" horiz-adv-x="1095" 
d="M113 0v1044h297v-389h174l174 389h266v-143l-195 -369l215 -389v-143h-276l-195 399h-163v-399h-297z" />
    <glyph glyph-name="uni043B" unicode="&#x43b;" horiz-adv-x="1157" 
d="M0 -20v266h72q55 0 79.5 28.5t32.5 104.5l72 665h788v-1044h-296v778h-226l-61 -502q-35 -297 -293 -296h-168z" />
    <glyph glyph-name="uni043C" unicode="&#x43c;" horiz-adv-x="1392" 
d="M61 0v143l103 901h307l215 -552h21l215 552h307l102 -901v-143h-297l-30 645h-11l-194 -502h-205l-195 502h-10l-31 -645h-297z" />
    <glyph glyph-name="uni043D" unicode="&#x43d;" horiz-adv-x="1146" 
d="M113 0v1044h297v-378h327v378h297v-1044h-297v399h-327v-399h-297z" />
    <glyph glyph-name="uni043E" unicode="&#x43e;" horiz-adv-x="1126" 
d="M92 246v553q0 106 79 186t187 80h410q109 0 187.5 -80t78.5 -186v-553q0 -106 -78.5 -186t-187.5 -80h-410q-109 0 -187.5 80t-78.5 186zM492 246h143q53 0 77.5 24.5t24.5 77.5v348q0 53 -24.5 78t-77.5 25h-143q-53 0 -78 -24.5t-25 -78.5v-348q0 -53 25 -77.5
t78 -24.5z" />
    <glyph glyph-name="uni043F" unicode="&#x43f;" horiz-adv-x="1146" 
d="M113 0v1044h921v-1044h-297v778h-327v-778h-297z" />
    <glyph glyph-name="uni0440" unicode="&#x440;" 
d="M410 266h235q53 0 78 24.5t25 78.5v327q0 53 -25 78t-78 25h-92q-78 0 -110.5 -33t-32.5 -111v-389zM113 -348v1392h204l41 -112h11q2 6 7 14t25.5 31.5t45 41t66.5 32t91 14.5h174q106 0 186 -80t80 -186v-533q0 -106 -79.5 -186t-186.5 -80h-368v-348h-297z" />
    <glyph glyph-name="uni0441" unicode="&#x441;" horiz-adv-x="942" 
d="M92 266v512q0 106 79 186t187 80h523v-184l-82 -82h-307q-53 0 -78 -24.5t-25 -77.5v-307q0 -53 24.5 -78t78.5 -25h389v-266h-523q-109 0 -187.5 80t-78.5 186z" />
    <glyph glyph-name="uni0442" unicode="&#x442;" horiz-adv-x="931" 
d="M317 0v778h-286v266h870v-184l-82 -82h-205v-778h-297z" />
    <glyph glyph-name="uni0443" unicode="&#x443;" horiz-adv-x="1044" 
d="M133 -348v266h154q61 0 92 92v10l-338 881v143h287l204 -696h21l164 696h287v-139l-308 -936q-104 -317 -409 -317h-154z" />
    <glyph glyph-name="uni0444" unicode="&#x444;" horiz-adv-x="1546" 
d="M492 266h133v512h-133q-53 0 -78 -24.5t-25 -77.5v-307q0 -53 25 -78t78 -25zM625 -348v348h-267q-109 0 -187.5 80t-78.5 186v512q0 106 79 186t187 80h267v369h297v-369h266q106 0 186 -79.5t80 -186.5v-512q0 -106 -80 -186t-186 -80h-266v-348h-297zM922 266h133
q53 0 77.5 24.5t24.5 78.5v307q0 53 -24.5 77.5t-77.5 24.5h-133v-512z" />
    <glyph glyph-name="uni0445" unicode="&#x445;" horiz-adv-x="1034" 
d="M51 0v143l246 379l-225 379v143h276l164 -358h10l164 358h277v-143l-226 -358l246 -400v-143h-276l-185 358h-10l-184 -358h-277z" />
    <glyph glyph-name="uni0446" unicode="&#x446;" horiz-adv-x="1167" 
d="M113 0v1044h297v-778h307v778h297v-778h123v-491h-297v225h-727z" />
    <glyph glyph-name="uni0447" unicode="&#x447;" horiz-adv-x="1075" 
d="M666 0v328h-308q-109 0 -187.5 79.5t-78.5 186.5v450h297v-358q0 -53 24.5 -77.5t78.5 -24.5h174v460h297v-1044h-297z" />
    <glyph glyph-name="uni0448" unicode="&#x448;" horiz-adv-x="1648" 
d="M113 0v1044h297v-778h266v778h297v-778h266v778h297v-1044h-1423z" />
    <glyph glyph-name="uni0449" unicode="&#x449;" horiz-adv-x="1689" 
d="M113 0v1044h297v-778h266v778h297v-778h266v778h297v-778h123v-491h-297v225h-1249z" />
    <glyph glyph-name="uni044A" unicode="&#x44a;" horiz-adv-x="1198" 
d="M276 0v778h-245v266h542v-327h297q109 0 188 -80t79 -186v-185q0 -106 -79 -186t-188 -80h-594zM573 246h164q53 0 78 24.5t25 77.5v21q0 53 -24.5 77.5t-78.5 24.5h-164v-225z" />
    <glyph glyph-name="uni044B" unicode="&#x44b;" horiz-adv-x="1505" 
d="M1096 0v1044h297v-1044h-297zM410 246h163q53 0 78 24.5t25 77.5v21q0 53 -24.5 77.5t-78.5 24.5h-163v-225zM113 0v1044h297v-327h297q109 0 187.5 -80t78.5 -186v-185q0 -106 -79 -186t-187 -80h-594z" />
    <glyph glyph-name="uni044C" unicode="&#x44c;" horiz-adv-x="1054" 
d="M410 246h184q53 0 77.5 24.5t24.5 77.5v21q0 53 -24.5 77.5t-77.5 24.5h-184v-225zM113 0v1044h297v-327h317q109 0 187.5 -80t78.5 -186v-185q0 -106 -78.5 -186t-187.5 -80h-614z" />
    <glyph glyph-name="uni044D" unicode="&#x44d;" horiz-adv-x="942" 
d="M61 0v236h390q53 0 77.5 24.5t24.5 77.5v72h-266v235h266v62q0 53 -24.5 77.5t-77.5 24.5h-308l-82 82v153h523q109 0 187.5 -79.5t78.5 -186.5v-512q0 -106 -79 -186t-187 -80h-523z" />
    <glyph glyph-name="uni044E" unicode="&#x44e;" horiz-adv-x="1566" 
d="M113 0v1044h297v-389h153v144q0 106 79 186t187 80h379q106 0 186.5 -80t80.5 -186v-553q0 -106 -80 -186t-187 -80h-379q-109 0 -187.5 79.5t-78.5 186.5v153h-153v-399h-297zM963 246h112q53 0 78 24.5t25 77.5v348q0 53 -25 78t-78 25h-112q-53 0 -78 -24.5t-25 -78.5
v-348q0 -53 25 -77.5t78 -24.5z" />
    <glyph glyph-name="uni044F" unicode="&#x44f;" horiz-adv-x="1105" 
d="M61 0v143l195 256q-6 2 -16.5 7.5t-37 26t-47 45t-37 66.5t-16.5 91v143q0 106 80 186t187 80h624v-1044h-297v328h-174l-174 -328h-287zM492 573h204v226h-194q-53 0 -78 -24.5t-25 -78.5v-20q1 -103 93 -103z" />
    <glyph glyph-name="uni0451" unicode="&#x451;" horiz-adv-x="1095" 
d="M215 1229v287h256v-287h-256zM645 1229v287h256v-287h-256zM389 635h328v92q0 53 -25 78t-78 24h-122q-53 0 -78 -24q-25 -25 -25 -78v-92zM92 266v533q0 106 79 186t187 80h390q109 0 187 -80q79 -80 79 -186v-389h-625v-72q0 -53 25 -78t78 -24h471v-236h-605
q-109 0 -187 80q-79 80 -79 186z" />
    <glyph glyph-name="uni0452" unicode="&#x452;" horiz-adv-x="1157" 
d="M164 0v983h-144v246h164l62 194h215v-194h235v-246h-235v-123h338q106 0 186 -80t80 -186v-481q0 -109 -80 -188t-186 -79h-185v267h52q53 0 77.5 24.5t24.5 77.5v277q0 53 -24.5 77.5t-77.5 24.5h-205v-594h-297z" />
    <glyph glyph-name="uni0453" unicode="&#x453;" horiz-adv-x="890" 
d="M113 0v1044h757v-184l-82 -82h-378v-778h-297zM379 1208l164 328h307l-236 -328h-235z" />
    <glyph glyph-name="uni0454" unicode="&#x454;" horiz-adv-x="942" 
d="M92 266v512q0 106 79 186t187 80h523v-153l-82 -82h-307q-53 0 -78 -24.5t-25 -77.5v-62h266v-235h-266v-72q0 -53 24.5 -77.5t78.5 -24.5h389v-236h-523q-109 0 -187.5 80t-78.5 186z" />
    <glyph glyph-name="uni0455" unicode="&#x455;" horiz-adv-x="942" 
d="M51 0v246h471q31 0 51.5 20.5t20.5 50.5q0 23 -20.5 43.5t-51.5 28.5l-225 51q-109 25 -177.5 95.5t-68.5 160.5v82q0 106 79 186t187 80h533v-163l-82 -82h-348q-31 0 -51.5 -20.5t-20.5 -51.5q0 -53 72 -72l225 -51q102 -25 174 -95.5t72 -160.5v-82q0 -106 -79 -186
t-187 -80h-574z" />
    <glyph glyph-name="uni0456" unicode="&#x456;" horiz-adv-x="542" 
d="M123 0v1044h297v-1044h-297zM123 1167v308h297v-308h-297z" />
    <glyph glyph-name="uni0457" unicode="&#x457;" horiz-adv-x="542" 
d="M123 0v1044h297v-1044h-297zM-72 1229v287h256v-287h-256zM358 1229v287h256v-287h-256z" />
    <glyph glyph-name="uni0458" unicode="&#x458;" horiz-adv-x="563" 
d="M-61 -348v266h81q123 0 123 123v1003h297v-1126q0 -106 -78.5 -186t-187.5 -80h-235zM143 1167v308h297v-308h-297z" />
    <glyph glyph-name="uni0459" unicode="&#x459;" horiz-adv-x="1658" 
d="M0 -20v266h72q55 0 79.5 28.5t32.5 104.5l72 665h778v-327h297q106 0 186 -80t80 -186v-185q0 -106 -79.5 -186t-186.5 -80h-594v778h-215l-61 -502q-35 -297 -293 -296h-168zM1034 246h164q53 0 77.5 24.5t24.5 77.5v21q0 53 -24.5 77.5t-77.5 24.5h-164v-225z" />
    <glyph glyph-name="uni045A" unicode="&#x45a;" horiz-adv-x="1638" 
d="M113 0v1044h297v-348h317v348h297v-348h287q106 0 186 -79.5t80 -186.5v-164q0 -106 -80 -186t-186 -80h-584v430h-317v-430h-297zM1024 246h154q53 0 77.5 24.5t24.5 77.5t-24.5 78t-77.5 25h-154v-205z" />
    <glyph glyph-name="uni045B" unicode="&#x45b;" horiz-adv-x="1167" 
d="M164 0v983h-144v246h164l62 194h215v-194h235v-246h-235v-123h338q106 0 186 -80t80 -186v-594h-297v492q0 53 -24.5 77.5t-77.5 24.5h-205v-594h-297z" />
    <glyph glyph-name="uni045C" unicode="&#x45c;" horiz-adv-x="1095" 
d="M113 0v1044h297v-389h174l174 389h266v-143l-195 -369l215 -389v-143h-276l-195 399h-163v-399h-297zM451 1208l163 328h308l-236 -328h-235z" />
    <glyph glyph-name="uni045E" unicode="&#x45e;" horiz-adv-x="1044" 
d="M133 -348v266h154q61 0 92 92v10l-338 881v143h287l204 -696h21l164 696h287v-139l-308 -936q-104 -317 -409 -317h-154zM195 1393v143h245v-61q0 -61 62 -62h41q61 0 61 62v61h246v-143q0 -78 -54.5 -131.5t-129.5 -53.5h-287q-76 0 -130 53.5t-54 131.5z" />
    <glyph glyph-name="uni045F" unicode="&#x45f;" 
d="M113 0v1044h297v-778h317v778h297v-1044h-307v-225h-297v225h-307z" />
    <glyph glyph-name="uni0490" unicode="&#x490;" horiz-adv-x="1044" 
d="M133 0v1434h615l30 184h246v-471h-584v-1147h-307z" />
    <glyph glyph-name="uni0491" unicode="&#x491;" horiz-adv-x="890" 
d="M113 0v1044h491l31 144h235v-410h-460v-778h-297z" />
    <glyph glyph-name="uni1E9E" unicode="&#x1e9e;" horiz-adv-x="1331" 
d="M133 0v1126q0 139 85 223.5t222 84.5h727v-267l-215 -313v-14q123 0 205 -84t82 -213v-236q0 -139 -85 -223t-222 -84h-266v287h143q123 0 123 123v61q0 123 -123 123h-184v225l215 307v21h-277q-123 0 -123 -123v-1024h-307z" />
    <glyph glyph-name="endash" unicode="&#x2013;" horiz-adv-x="1146" 
d="M72 512v256h1003v-256h-1003z" />
    <glyph glyph-name="emdash" unicode="&#x2014;" horiz-adv-x="1720" 
d="M72 512v256h1577v-256h-1577z" />
    <glyph glyph-name="quoteleft" unicode="&#x2018;" horiz-adv-x="450" 
d="M92 963v245l133 287h133v-532h-266z" />
    <glyph glyph-name="quoteright" unicode="&#x2019;" horiz-adv-x="450" 
d="M92 901v533h266v-246l-133 -287h-133z" />
    <glyph glyph-name="quotesinglbase" unicode="&#x201a;" horiz-adv-x="450" 
d="M92 -225v532h266v-246l-133 -286h-133z" />
    <glyph glyph-name="quotedblleft" unicode="&#x201c;" horiz-adv-x="839" 
d="M92 963v245l133 287h133v-532h-266zM481 963v245l133 287h134v-532h-267z" />
    <glyph glyph-name="quotedblright" unicode="&#x201d;" horiz-adv-x="839" 
d="M92 901v533h266v-246l-133 -287h-133zM481 901v533h267v-246l-134 -287h-133z" />
    <glyph glyph-name="quotedblbase" unicode="&#x201e;" horiz-adv-x="839" 
d="M92 -225v532h266v-246l-133 -286h-133zM481 -225v532h267v-246l-134 -286h-133z" />
    <glyph glyph-name="dagger" unicode="&#x2020;" horiz-adv-x="1116" 
d="M410 -348v1085h-338v307h338l51 431h194l52 -431h337v-307h-337v-1085h-297z" />
    <glyph glyph-name="daggerdbl" unicode="&#x2021;" horiz-adv-x="1116" 
d="M72 -41v307h338v553h-338v307h338l41 349h215l41 -349h337v-307h-337v-553h337v-307h-337l-41 -348h-215l-41 348h-338z" />
    <glyph glyph-name="bullet" unicode="&#x2022;" horiz-adv-x="860" 
d="M246 573v123q0 123 123 123h123q123 0 122 -123v-123q0 -123 -122 -122h-123q-123 -1 -123 122z" />
    <glyph glyph-name="ellipsis" unicode="&#x2026;" horiz-adv-x="1556" 
d="M92 0v307h266v-307h-266zM645 0v307h266v-307h-266zM1198 0v307h266v-307h-266z" />
    <glyph glyph-name="perthousand" unicode="&#x2030;" horiz-adv-x="2344" 
d="M307 0v113l830 1321h184v-113l-829 -1321h-185zM51 973v266q0 84 65.5 149.5t149.5 65.5h185q84 0 149.5 -65.5t65.5 -149.5v-266q0 -84 -65.5 -149.5t-149.5 -65.5h-185q-84 0 -149.5 65.5t-65.5 149.5zM348 952h21q45 0 63.5 17.5t18.5 64.5v144q0 47 -18.5 64.5
t-63.5 17.5h-21q-45 0 -63.5 -17.5t-18.5 -64.5v-144q0 -47 18.5 -64.5t63.5 -17.5zM963 195v266q0 84 65.5 149.5t149.5 65.5h184q84 0 149.5 -65.5t65.5 -149.5v-266q0 -84 -65.5 -149.5t-149.5 -65.5h-184q-84 0 -149.5 65.5t-65.5 149.5zM1260 174h20q47 0 64.5 17.5
t17.5 64.5v143q0 47 -17.5 64.5t-64.5 17.5h-20q-47 0 -64.5 -17.5t-17.5 -64.5v-143q0 -47 17.5 -64.5t64.5 -17.5zM1679 195v266q0 84 65.5 149.5t149.5 65.5h185q84 0 149.5 -65.5t65.5 -149.5v-266q0 -84 -65.5 -149.5t-149.5 -65.5h-185q-84 0 -149.5 65.5t-65.5 149.5
zM1976 174h21q47 0 64.5 17.5t17.5 64.5v143q0 47 -17.5 64.5t-64.5 17.5h-21q-47 0 -64.5 -17.5t-17.5 -64.5v-143q0 -47 17.5 -64.5t64.5 -17.5z" />
    <glyph glyph-name="guilsinglleft" unicode="&#x2039;" horiz-adv-x="716" 
d="M399 82l-327 450l327 451h205v-133l-235 -318l235 -317v-133h-205z" />
    <glyph glyph-name="guilsinglright" unicode="&#x203a;" horiz-adv-x="716" 
d="M113 82v133l235 317l-235 318v133h204l328 -451l-328 -450h-204z" />
    <glyph glyph-name="fraction" unicode="&#x2044;" horiz-adv-x="286" 
d="M-369 0v113l840 1321h184v-113l-839 -1321h-185z" />
    <glyph glyph-name="uni2070" unicode="&#x2070;" horiz-adv-x="716" 
d="M61 1106v348q0 78 60.5 136.5t144.5 58.5h185q84 0 144 -58.5t60 -136.5v-348q0 -78 -60 -136.5t-144 -58.5h-185q-84 0 -144.5 58.5t-60.5 136.5zM338 1106h41q61 0 61 61v226q0 61 -61 61h-41q-61 0 -62 -61v-226q1 -61 62 -61z" />
    <glyph glyph-name="uni2074" unicode="&#x2074;" horiz-adv-x="716" 
d="M20 1065v164l267 409h174v-82l-205 -317v-10h133v129h195v-129h82v-164h-82v-143h-215v143h-349z" />
    <glyph glyph-name="uni2075" unicode="&#x2075;" horiz-adv-x="665" 
d="M51 922v174h287q61 0 61 61.5t-61 61.5h-277v419h533v-112l-62 -62h-256v-82h154q78 0 131 -54t53 -130v-92q0 -78 -53 -131t-131 -53h-379z" />
    <glyph glyph-name="uni2076" unicode="&#x2076;" horiz-adv-x="665" 
d="M41 1096v92q0 68 61 153l215 297h164v-82l-123 -174v-10h82q76 0 130.5 -53t54.5 -131v-92q0 -76 -54.5 -130.5t-130.5 -54.5h-215q-78 0 -131 54.5t-53 130.5zM317 1085h31q61 0 61.5 61.5t-61.5 61.5h-31q-61 0 -61 -61.5t61 -61.5z" />
    <glyph glyph-name="uni2077" unicode="&#x2077;" horiz-adv-x="614" 
d="M143 922v82l236 450v10h-338v174h573v-153l-266 -563h-205z" />
    <glyph glyph-name="uni2078" unicode="&#x2078;" horiz-adv-x="686" 
d="M317 1075h52q61 0 61 61.5t-61 61.5h-52q-61 0 -61 -61.5t61 -61.5zM328 1362h30q61 0 62 63q0 59 -62 60h-30q-61 0 -62 -60q1 -63 62 -63zM41 1106v20q0 59 28.5 100.5t57.5 51.5l27 12v10q-4 2 -10.5 4.5t-22 13.5t-27.5 26.5t-22.5 42t-10.5 57.5v20q0 84 50.5 134.5
t134.5 50.5h194q84 0 134.5 -50.5t50.5 -134.5v-20q0 -49 -23.5 -85t-46.5 -48l-23 -11v-10q4 -2 12.5 -4t28 -15.5t34 -29.5t26.5 -47t12 -68v-20q0 -92 -53 -143.5t-152 -51.5h-194q-98 0 -151.5 51.5t-53.5 143.5z" />
    <glyph glyph-name="uni2079" unicode="&#x2079;" horiz-adv-x="665" 
d="M184 922v82l123 174v10h-82q-78 0 -131 53t-53 131v92q0 76 53 130.5t131 54.5h215q76 0 130.5 -54.5t54.5 -130.5v-92q0 -68 -62 -153l-215 -297h-164zM317 1352h31q61 0 61.5 61.5t-61.5 61.5h-31q-61 0 -61 -61.5t61 -61.5z" />
    <glyph glyph-name="uni2080" unicode="&#x2080;" horiz-adv-x="716" 
d="M61 -20v348q0 78 60.5 136t144.5 58h185q84 0 144 -58t60 -136v-348q0 -78 -60 -136.5t-144 -58.5h-185q-84 0 -144.5 58.5t-60.5 136.5zM338 -20h41q61 0 61 61v225q0 61 -61 62h-41q-61 0 -62 -62v-225q1 -61 62 -61z" />
    <glyph glyph-name="uni2081" unicode="&#x2081;" horiz-adv-x="675" 
d="M123 -205v185h123v307h-123v164h123v61h215v-532h123v-185h-461z" />
    <glyph glyph-name="uni2082" unicode="&#x2082;" horiz-adv-x="716" 
d="M72 -205v174l276 226q72 57 72 92q0 16 -13.5 28.5t-27.5 12.5h-225l-72 71v113h369q78 0 131 -53t53 -131v-31q0 -72 -24.5 -113t-78.5 -82l-143 -112v-10h246v-185h-563z" />
    <glyph glyph-name="uni2083" unicode="&#x2083;" horiz-adv-x="716" 
d="M61 -205v174h308q51 0 51 51.5t-51 51.5h-164v133l133 123v10h-215l-62 61v113h543v-143l-143 -133v-11q70 0 122 -54t52 -130v-61q0 -78 -53.5 -131.5t-130.5 -53.5h-390z" />
    <glyph glyph-name="uni2084" unicode="&#x2084;" horiz-adv-x="716" 
d="M20 -61v163l267 410h174v-82l-205 -317v-11h133v129h195v-129h82v-163h-82v-144h-215v144h-349z" />
    <glyph glyph-name="uni2085" unicode="&#x2085;" horiz-adv-x="665" 
d="M51 -205v174h287q61 0 61 61.5t-61 61.5h-277v420h533v-113l-62 -61h-256v-82h154q78 0 131 -54.5t53 -129.5v-92q0 -78 -53 -131.5t-131 -53.5h-379z" />
    <glyph glyph-name="uni2086" unicode="&#x2086;" horiz-adv-x="665" 
d="M41 -31v92q0 68 61 154l215 297h164v-82l-123 -174v-10h82q76 0 130.5 -53.5t54.5 -131.5v-92q0 -76 -54.5 -130t-130.5 -54h-215q-78 0 -131 54t-53 130zM317 -41h31q61 0 61.5 61.5t-61.5 61.5h-31q-61 0 -61 -61.5t61 -61.5z" />
    <glyph glyph-name="uni2087" unicode="&#x2087;" horiz-adv-x="614" 
d="M143 -205v82l236 451v10h-338v174h573v-154l-266 -563h-205z" />
    <glyph glyph-name="uni2088" unicode="&#x2088;" horiz-adv-x="686" 
d="M317 -51h52q61 0 61 61.5t-61 61.5h-52q-61 0 -61 -61.5t61 -61.5zM328 236h30q61 0 62 63q0 59 -62 59h-30q-61 0 -62 -59q1 -63 62 -63zM41 -20v20q0 59 28.5 100t57.5 52l27 12v10q-4 2 -10.5 4t-22 13.5t-27.5 26.5t-22.5 42t-10.5 57v21q0 84 50.5 134t134.5 50h194
q84 0 134.5 -50t50.5 -134v-21q0 -49 -23.5 -84.5t-46.5 -48.5l-23 -10v-10q4 -2 12.5 -4t28 -15.5t34 -30t26.5 -47t12 -67.5v-20q0 -92 -53 -143.5t-152 -51.5h-194q-98 0 -151.5 51.5t-53.5 143.5z" />
    <glyph glyph-name="uni2089" unicode="&#x2089;" horiz-adv-x="665" 
d="M184 -205v82l123 174v10h-82q-78 0 -131 53.5t-53 131.5v92q0 76 53 130t131 54h215q76 0 130.5 -54t54.5 -130v-92q0 -68 -62 -154l-215 -297h-164zM317 225h31q61 0 61.5 61.5t-61.5 61.5h-31q-61 0 -61 -61.5t61 -61.5z" />
    <glyph glyph-name="Euro" unicode="&#x20ac;" horiz-adv-x="1239" 
d="M195 307v154h-144v205h144v102h-144v205h144v153q0 139 85 223.5t222 84.5h665v-195l-92 -92h-450q-123 0 -123 -123v-51h461l-31 -205h-430v-102h409l-30 -205h-379v-51q0 -123 123 -123h542v-287h-665q-137 0 -222 84t-85 223z" />
    <glyph glyph-name="uni20B4" unicode="&#x20b4;" horiz-adv-x="1280" 
d="M184 307v82l11 72h-144v205h1178v-205h-727q-10 -20 -10 -51v-21q0 -53 24.5 -77.5t77.5 -24.5h553v-287h-655q-139 0 -223.5 84t-84.5 223zM51 768v205h727q10 20 10 51v20q0 53 -24.5 78t-77.5 25h-410l-92 92v195h604q137 0 222.5 -84t85.5 -224v-82l-11 -71h144v-205
h-1178z" />
    <glyph glyph-name="uni20BD" unicode="&#x20bd;" horiz-adv-x="1361" 
d="M205 0v225h-123v226h123v122h-123v226h123v635h758q139 0 223 -84t84 -224v-245q0 -139 -84 -223.5t-223 -84.5h-451v-122h553v-226h-553v-225h-307zM512 799h328q123 0 123 123v102q0 123 -123 123h-328v-348z" />
    <glyph glyph-name="uni2116" unicode="&#x2116;" horiz-adv-x="2140" 
d="M1393 256v195h635v-195h-635zM1393 788v205q0 84 65.5 149.5t149.5 65.5h204q84 0 150 -65.5t66 -149.5v-205q0 -84 -66 -149.5t-150 -65.5h-204q-84 0 -149.5 65.5t-65.5 149.5zM1690 768h41q47 0 64 17.5t17 64.5v82q0 47 -17 64.5t-64 17.5h-41q-47 0 -64.5 -17.5
t-17.5 -64.5v-82q0 -47 17.5 -64.5t64.5 -17.5zM133 0v1434h338l481 -902h11l-31 256v646h307v-1434h-338l-481 901h-10l30 -256v-645h-307z" />
    <glyph glyph-name="trademark" unicode="&#x2122;" horiz-adv-x="1648" 
d="M696 717v92l82 625h215l133 -338h21l133 338h215l82 -625v-92h-225l-21 368h-10l-102 -256h-164l-103 256h-10l-20 -368h-226zM256 717v522h-205v195h635v-134l-61 -61h-144v-522h-225z" />
    <glyph glyph-name="minus" unicode="&#x2212;" horiz-adv-x="1024" 
d="M72 522v266h880v-266h-880z" />
    <glyph glyph-name="uniF6C3" unicode="&#xf6c3;" horiz-adv-x="368" 
d="M61 -584v451h246v-215l-123 -236h-123z" />
    <glyph glyph-name="uniF6C9" unicode="&#xf6c9;" horiz-adv-x="593" 
d="M61 1577l164 328h307l-235 -328h-236z" />
    <glyph glyph-name="uniF6CA" unicode="&#xf6ca;" horiz-adv-x="839" 
d="M276 1577l-215 328h267l92 -164l92 164h266l-215 -328h-287z" />
    <glyph glyph-name="uniF6CB" unicode="&#xf6cb;" horiz-adv-x="819" 
d="M61 1597v287h256v-287h-256zM502 1597v287h256v-287h-256z" />
    <glyph glyph-name="uniF6CE" unicode="&#xf6ce;" horiz-adv-x="593" 
d="M297 1577l-236 328h308l163 -328h-235z" />
    <glyph glyph-name="uniF6CF" unicode="&#xf6cf;" horiz-adv-x="942" 
d="M61 1577l164 328h267l-216 -328h-215zM440 1577l174 328h267l-226 -328h-215z" />
    <glyph glyph-name="uniF6D0" unicode="&#xf6d0;" horiz-adv-x="778" 
d="M61 1608v225h656v-225h-656z" />
    <glyph glyph-name="uniF6D1" unicode="&#xf6d1;" horiz-adv-x="819" 
d="M61 1761v164h246v-82q0 -61 62 -61h82q61 0 61 61v82h246v-164q0 -78 -53.5 -131t-131.5 -53h-327q-78 0 -131.5 53t-53.5 131z" />
    <glyph glyph-name="uniF6D4" unicode="&#xf6d4;" horiz-adv-x="778" 
d="M61 1393v143h246v-61q0 -61 62 -62h41q61 0 61 62v61h246v-143q0 -78 -53.5 -131.5t-131.5 -53.5h-286q-78 0 -131.5 53.5t-53.5 131.5z" />
    <glyph glyph-name="uniF730" unicode="&#xf730;" horiz-adv-x="1146" 
d="M522 266h103q123 0 123 123v266q0 123 -123 123h-103q-123 0 -123 -123v-266q0 -123 123 -123zM92 287v471q0 139 85 223t222 84h349q137 0 222 -84t85 -223v-471q0 -139 -85 -223t-222 -84h-349q-137 0 -222 84t-85 223z" />
    <glyph glyph-name="uniF731" unicode="&#xf731;" horiz-adv-x="972" 
d="M82 0v287h287v399h-246v246h246v112h307v-757h256v-287h-850z" />
    <glyph glyph-name="uniF732" unicode="&#xf732;" horiz-adv-x="1044" 
d="M61 0v236l492 296q82 49 82 123v21q0 82 -82 82h-379l-92 92v194h584q137 0 222 -83.5t85 -223.5v-61q0 -209 -174 -297l-185 -92v-21h359v-266h-912z" />
    <glyph glyph-name="uniF733" unicode="&#xf733;" horiz-adv-x="1054" 
d="M61 -348v287h492q123 0 123 122v21q0 123 -123 123h-266v246l266 286v21h-399l-93 92v194h871v-256l-277 -296v-21h41q131 0 214 -83t83 -214v-215q0 -139 -85 -223t-222 -84h-625z" />
    <glyph glyph-name="uniF734" unicode="&#xf734;" horiz-adv-x="1126" 
d="M41 0v266l512 778h246v-133q-68 -104 -205 -307t-205 -307v-10h277v256h286v-256h154v-287h-154v-348h-317v348h-594z" />
    <glyph glyph-name="uniF735" unicode="&#xf735;" horiz-adv-x="1064" 
d="M92 -348v287h481q123 0 123 122v62q0 123 -123 123h-460v798h850v-194l-93 -92h-450v-226h276q139 0 223.5 -83.5t84.5 -223.5v-266q0 -139 -84 -223t-224 -84h-604z" />
    <glyph glyph-name="uniF736" unicode="&#xf736;" 
d="M512 266h113q123 0 123 123v103q0 123 -123 122h-113q-123 0 -123 -122v-103q0 -123 123 -123zM82 287v297q0 74 18.5 132t37 88t67.5 97l389 533h246v-154l-287 -389v-10h195q137 0 222 -84t85 -224v-286q0 -139 -85 -223t-222 -84h-359q-139 0 -223 84t-84 223z" />
    <glyph glyph-name="uniF737" unicode="&#xf737;" horiz-adv-x="983" 
d="M215 -348v153l399 938v15h-583v286h921v-266l-460 -1126h-277z" />
    <glyph glyph-name="uniF738" unicode="&#xf738;" horiz-adv-x="1167" 
d="M512 266h143q123 0 123 123v82q0 123 -123 123h-143q-123 0 -123 -123v-82q0 -123 123 -123zM543 881h82q123 0 123 123v40q0 123 -123 123h-82q-123 0 -123 -123v-40q0 -123 123 -123zM82 287v174q0 66 21.5 118t51 78.5t59.5 44t52 21.5l21 4v21q-6 2 -18.5 6t-42 23.5
t-53 46t-42 76.5t-18.5 114v133q0 139 85 223t222 84h328q137 0 222 -84t85 -223v-133q0 -63 -18.5 -113.5t-44 -78t-50 -46t-43.5 -22.5l-18 -6v-23q8 -2 22.5 -5t49 -20.5t61 -43t49 -78t22.5 -117.5v-174q0 -139 -83.5 -223t-223.5 -84h-389q-139 0 -223 84t-84 223z" />
    <glyph glyph-name="uniF739" unicode="&#xf739;" 
d="M307 -348v133l277 369v10h-195q-139 0 -223 84t-84 223v287q0 139 84 223t223 84h359q137 0 222 -84t85 -223v-297q0 -98 -30 -166t-93 -152l-369 -491h-256zM512 430h113q123 0 123 123v102q0 123 -123 123h-113q-123 0 -123 -123v-102q0 -123 123 -123z" />
    <glyph glyph-name="uniFB06" unicode="&#xfb06;" horiz-adv-x="1720" 
d="M51 0v246h471q31 0 51.5 20.5t20.5 50.5q0 23 -20.5 43.5t-51.5 28.5l-225 51q-109 25 -177.5 95.5t-68.5 160.5v82q0 106 79 186t187 80h246v103q0 106 79 186t187 80h277q106 0 186 -80t80 -186v-103h246v-163l-82 -82h-164v-430q0 -53 24.5 -78t78.5 -25h174v-266
h-308q-109 0 -187.5 80t-78.5 186v778q0 53 -24.5 78t-77.5 25h-10q-53 0 -78 -24.5t-25 -78.5v-163l-82 -82h-358q-31 0 -51.5 -20.5t-20.5 -51.5q0 -53 72 -72l225 -51q102 -25 174 -95.5t72 -160.5v-82q0 -106 -79 -186t-187 -80h-574z" />
    <glyph glyph-name="c_h.dlig" horiz-adv-x="2088" 
d="M92 266v512q0 106 79 186t187 80h205v103q0 106 79 186t187 80h543v-481h10q2 6 7.5 14t26 31.5t45 41t66.5 32t91 14.5h92q109 0 187.5 -80t78.5 -186v-799h-297v696q0 53 -24.5 78t-77.5 25h-61q-78 0 -111 -33t-33 -111v-655h-297v1147h-112q-53 0 -78 -24.5
t-25 -78.5v-184l-82 -82h-286q-53 0 -78 -24.5t-25 -77.5v-307q0 -53 24.5 -78t78.5 -25h389v-266h-523q-109 0 -187.5 80t-78.5 186z" />
    <glyph glyph-name="c_k.dlig" horiz-adv-x="2058" 
d="M92 266v512q0 106 79 186t187 80h205v103q0 106 79 186t187 80h543v-758h174l174 389h267v-143l-195 -358l215 -400v-143h-276l-185 399h-174v-399h-297v1147h-112q-53 0 -78 -24.5t-25 -78.5v-184l-82 -82h-286q-53 0 -78 -24.5t-25 -77.5v-307q0 -53 24.5 -78t78.5 -25
h389v-266h-523q-109 0 -187.5 80t-78.5 186z" />
    <glyph glyph-name="c_p.dlig" horiz-adv-x="2099" 
d="M92 266v512q0 106 79 186t187 80h205v103q0 106 79 186t187 80h277q106 0 186 -80t80 -186v-215h10q2 6 7.5 14t26 31.5t45 41t66.5 32t91 14.5h123q106 0 186 -80t80 -186v-533q0 -106 -80 -186t-186 -80h-369v-348h-297v1392q0 53 -24.5 78t-77.5 25h-10
q-53 0 -78 -24.5t-25 -78.5v-184l-82 -82h-286q-53 0 -78 -24.5t-25 -77.5v-307q0 -53 24.5 -78t78.5 -25h389v-266h-523q-109 0 -187.5 80t-78.5 186zM1372 266h236q53 0 77.5 24.5t24.5 78.5v327q0 53 -24.5 78t-77.5 25h-92q-78 0 -111 -33t-33 -111v-389z" />
    <glyph glyph-name="c_t.dlig" horiz-adv-x="1720" 
d="M92 266v512q0 106 79 186t187 80h205v103q0 106 79 186t187 80h277q106 0 186 -80t80 -186v-103h246v-163l-82 -82h-164v-430q0 -53 24.5 -78t78.5 -25h174v-266h-308q-109 0 -187.5 80t-78.5 186v778q0 53 -24.5 78t-77.5 25h-10q-53 0 -78 -24.5t-25 -78.5v-184
l-82 -82h-286q-53 0 -78 -24.5t-25 -77.5v-307q0 -53 24.5 -78t78.5 -25h389v-266h-523q-109 0 -187.5 80t-78.5 186z" />
    <glyph glyph-name="s_h.dlig" horiz-adv-x="2099" 
d="M51 0v246h471q31 0 51.5 20.5t20.5 50.5q0 23 -20.5 43.5t-51.5 28.5l-225 51q-109 25 -177.5 95.5t-68.5 160.5v82q0 106 79 186t187 80h246v103q0 106 79 186t187 80h553v-481h11q2 6 7 14t25.5 31.5t45 41t66.5 32t91 14.5h92q106 0 186.5 -80t80.5 -186v-799h-297
v696q0 53 -25 78t-78 25h-61q-76 0 -110 -33t-34 -111v-655h-297v1147h-122q-53 0 -78 -24.5t-25 -78.5v-163l-82 -82h-358q-31 0 -51.5 -20.5t-20.5 -51.5q0 -53 72 -72l225 -51q102 -25 174 -95.5t72 -160.5v-82q0 -106 -79 -186t-187 -80h-574z" />
    <glyph glyph-name="s_k.dlig" horiz-adv-x="2068" 
d="M51 0v246h471q31 0 51.5 20.5t20.5 50.5q0 23 -20.5 43.5t-51.5 28.5l-225 51q-109 25 -177.5 95.5t-68.5 160.5v82q0 106 79 186t187 80h246v103q0 106 79 186t187 80h553v-758h174l175 389h266v-143l-195 -369l215 -389v-143h-276l-195 399h-164v-399h-297v1147h-122
q-53 0 -78 -24.5t-25 -78.5v-163l-82 -82h-358q-31 0 -51.5 -20.5t-20.5 -51.5q0 -53 72 -72l225 -51q102 -25 174 -95.5t72 -160.5v-82q0 -106 -79 -186t-187 -80h-574z" />
    <glyph glyph-name="s_p.dlig" horiz-adv-x="2099" 
d="M1372 266h236q53 0 77.5 24.5t24.5 78.5v327q0 53 -24.5 78t-77.5 25h-92q-78 0 -111 -33t-33 -111v-389zM51 0v246h471q31 0 51.5 20.5t20.5 50.5q0 23 -20.5 43.5t-51.5 28.5l-225 51q-109 25 -177.5 95.5t-68.5 160.5v82q0 106 79 186t187 80h246v103q0 106 79 186
t187 80h277q106 0 186 -80t80 -186v-215h10q2 6 7.5 14t26 31.5t45 41t66.5 32t91 14.5h123q106 0 186 -80t80 -186v-533q0 -106 -80 -186t-186 -80h-369v-348h-297v1392q0 53 -24.5 78t-77.5 25h-10q-53 0 -78 -24.5t-25 -78.5v-163l-82 -82h-358q-31 0 -51.5 -20.5
t-20.5 -51.5q0 -53 72 -72l225 -51q102 -25 174 -95.5t72 -160.5v-82q0 -106 -79 -186t-187 -80h-574z" />
    <glyph glyph-name="glyph473" horiz-adv-x="819" 
d="M61 1761v144h246v-62q0 -61 62 -61h82q61 0 61 61v62h246v-144q0 -78 -53.5 -131t-131.5 -53h-327q-78 0 -131.5 53t-53.5 131z" />
    <glyph glyph-name="glyph474" horiz-adv-x="839" 
d="M61 1577l215 328h287l215 -328h-266l-92 164l-92 -164h-267z" />
    <glyph glyph-name="glyph475" horiz-adv-x="430" 
d="M61 1577v307h308v-307h-308z" />
    <glyph glyph-name="glyph476" horiz-adv-x="1331" 
d="M133 0v1126q0 139 85 223.5t222 84.5h727v-267l-215 -313v-14q123 0 205 -84t82 -213v-236q0 -139 -85 -223t-222 -84h-266v287h143q123 0 123 123v61q0 123 -123 123h-184v225l215 307v21h-277q-123 0 -123 -123v-1024h-307z" />
    <glyph glyph-name="glyph477" horiz-adv-x="614" 
d="M61 1700v41q0 78 59.5 136t135.5 58h106q74 0 132.5 -59t58.5 -135v-41q0 -78 -59.5 -136.5t-135.5 -58.5h-102q-76 0 -135.5 58.5t-59.5 136.5zM297 1659h20q51 0 52 51v21q0 51 -52 51h-20q-51 0 -51 -51v-21q0 -51 51 -51z" />
    <glyph glyph-name="glyph478" horiz-adv-x="768" 
d="M61 1577v184q0 61 41 102.5t103 41.5h41q57 0 107 -36t82 -72t46 -36q20 0 21 21v112h205v-184q0 -61 -41 -102t-103 -41h-41q-57 0 -107 35.5t-82 71.5t-46 36q-20 0 -21 -20v-113h-205z" />
    <glyph glyph-name="I.salt" horiz-adv-x="819" 
d="M82 0v287h174v860h-174v287h655v-287h-174v-860h174v-287h-655z" />
    <glyph glyph-name="a.salt" 
d="M492 246h92q76 0 109.5 32.5t33.5 110.5v266q0 78 -34 111t-109 33h-92q-53 0 -78 -24.5t-25 -78.5v-348q0 -53 25 -77.5t78 -24.5zM92 246v553q0 106 79 186t187 80h174q49 0 91.5 -13.5t68 -33t44 -40t26.5 -32.5l6 -14h10l41 112h205v-1044h-205l-41 113h-10
q-2 -6 -7 -14.5t-25.5 -32t-45 -41t-66.5 -31.5t-92 -14h-174q-109 0 -187.5 80t-78.5 186z" />
    <glyph glyph-name="g.salt" 
d="M164 -348v246h461q53 0 77.5 24.5t24.5 77.5v154h-10q-2 -4 -6 -13.5t-22.5 -30t-42 -37t-64.5 -29.5t-90 -13h-134q-109 0 -187.5 78.5t-78.5 187.5v481q0 106 79 186t187 80h666v-1126q0 -106 -80 -186t-186 -80h-594zM492 297h92q76 0 109.5 34t33.5 109v338h-235
q-53 0 -78 -24.5t-25 -77.5v-277q0 -53 25 -77.5t78 -24.5z" />
    <glyph glyph-name="l.salt" horiz-adv-x="624" 
d="M123 266v1147h297v-1044q0 -53 24.5 -78t77.5 -25h82v-266h-215q-106 0 -186 80t-80 186z" />
    <glyph glyph-name="y.salt" 
d="M184 -348v246h441q53 0 77.5 24.5t24.5 77.5v154h-10q-2 -4 -6 -13.5t-22.5 -30t-42 -37t-64.5 -29.5t-90 -13h-113q-109 0 -187.5 78.5t-78.5 187.5v747h297v-645q0 -53 24.5 -77.5t77.5 -24.5h72q76 0 109.5 34t33.5 109v604h297v-1126q0 -106 -80 -186t-186 -80h-574z
" />
    <glyph glyph-name="Igrave.salt" horiz-adv-x="819" 
d="M82 0v287h174v860h-174v287h655v-287h-174v-860h174v-287h-655zM297 1577l-236 328h308l163 -328h-235z" />
    <glyph glyph-name="Iacute.salt" horiz-adv-x="819" 
d="M82 0v287h174v860h-174v287h655v-287h-174v-860h174v-287h-655zM297 1577l164 328h307l-236 -328h-235z" />
    <glyph glyph-name="Icircumflex.salt" horiz-adv-x="819" 
d="M82 0v287h174v860h-174v287h655v-287h-174v-860h174v-287h-655zM51 1577l215 328h287l215 -328h-266l-92 164l-93 -164h-266z" />
    <glyph glyph-name="Idieresis.salt" horiz-adv-x="819" 
d="M82 0v287h174v860h-174v287h655v-287h-174v-860h174v-287h-655zM61 1597v287h256v-287h-256zM502 1597v287h256v-287h-256z" />
    <glyph glyph-name="agrave.salt" 
d="M492 246h92q76 0 109.5 32.5t33.5 110.5v266q0 78 -34 111t-109 33h-92q-53 0 -78 -24.5t-25 -78.5v-348q0 -53 25 -77.5t78 -24.5zM92 246v553q0 106 79 186t187 80h174q49 0 91.5 -13.5t68 -33t44 -40t26.5 -32.5l6 -14h10l41 112h205v-1044h-205l-41 113h-10
q-2 -6 -7 -14.5t-25.5 -32t-45 -41t-66.5 -31.5t-92 -14h-174q-109 0 -187.5 80t-78.5 186zM451 1208l-236 328h307l164 -328h-235z" />
    <glyph glyph-name="aacute.salt" 
d="M492 246h92q76 0 109.5 32.5t33.5 110.5v266q0 78 -34 111t-109 33h-92q-53 0 -78 -24.5t-25 -78.5v-348q0 -53 25 -77.5t78 -24.5zM92 246v553q0 106 79 186t187 80h174q49 0 91.5 -13.5t68 -33t44 -40t26.5 -32.5l6 -14h10l41 112h205v-1044h-205l-41 113h-10
q-2 -6 -7 -14.5t-25.5 -32t-45 -41t-66.5 -31.5t-92 -14h-174q-109 0 -187.5 80t-78.5 186zM440 1208l164 328h307l-235 -328h-236z" />
    <glyph glyph-name="acircumflex.salt" 
d="M492 246h92q76 0 109.5 32.5t33.5 110.5v266q0 78 -34 111t-109 33h-92q-53 0 -78 -24.5t-25 -78.5v-348q0 -53 25 -77.5t78 -24.5zM92 246v553q0 106 79 186t187 80h174q49 0 91.5 -13.5t68 -33t44 -40t26.5 -32.5l6 -14h10l41 112h205v-1044h-205l-41 113h-10
q-2 -6 -7 -14.5t-25.5 -32t-45 -41t-66.5 -31.5t-92 -14h-174q-109 0 -187.5 80t-78.5 186zM225 1208l215 328h287l215 -328h-266l-92 164l-92 -164h-267z" />
    <glyph glyph-name="atilde.salt" 
d="M492 246h92q76 0 109.5 32.5t33.5 110.5v266q0 78 -34 111t-109 33h-92q-53 0 -78 -24.5t-25 -78.5v-348q0 -53 25 -77.5t78 -24.5zM92 246v553q0 106 79 186t187 80h174q49 0 91.5 -13.5t68 -33t44 -40t26.5 -32.5l6 -14h10l41 112h205v-1044h-205l-41 113h-10
q-2 -6 -7 -14.5t-25.5 -32t-45 -41t-66.5 -31.5t-92 -14h-174q-109 0 -187.5 80t-78.5 186zM256 1208v185q0 61 41 102t102 41h41q57 0 107.5 -36t82.5 -71.5t46 -35.5q20 0 20 20v113h205v-185q0 -61 -41 -102t-102 -41h-41q-57 0 -107.5 36t-82 71.5t-46.5 35.5
q-20 0 -20 -20v-113h-205z" />
    <glyph glyph-name="adieresis.salt" 
d="M492 246h92q76 0 109.5 32.5t33.5 110.5v266q0 78 -34 111t-109 33h-92q-53 0 -78 -24.5t-25 -78.5v-348q0 -53 25 -77.5t78 -24.5zM92 246v553q0 106 79 186t187 80h174q49 0 91.5 -13.5t68 -33t44 -40t26.5 -32.5l6 -14h10l41 112h205v-1044h-205l-41 113h-10
q-2 -6 -7 -14.5t-25.5 -32t-45 -41t-66.5 -31.5t-92 -14h-174q-109 0 -187.5 80t-78.5 186zM236 1229v287h256v-287h-256zM666 1229v287h256v-287h-256z" />
    <glyph glyph-name="aring.salt" 
d="M492 246h92q76 0 109.5 32.5t33.5 110.5v266q0 78 -34 111t-109 33h-92q-53 0 -78 -24.5t-25 -78.5v-348q0 -53 25 -77.5t78 -24.5zM92 246v553q0 106 79 186t187 80h174q49 0 91.5 -13.5t68 -33t44 -40t26.5 -32.5l6 -14h10l41 112h205v-1044h-205l-41 113h-10
q-2 -6 -7 -14.5t-25.5 -32t-45 -41t-66.5 -31.5t-92 -14h-174q-109 0 -187.5 80t-78.5 186zM328 1341v62q0 76 59 135t135 59h103q76 0 135 -59t59 -135v-62q0 -76 -59.5 -135t-134.5 -59h-103q-76 0 -135 59t-59 135zM563 1311h21q51 0 51 51v20q0 51 -51 52h-21
q-51 0 -51 -52v-20q0 -51 51 -51z" />
    <glyph glyph-name="yacute.salt" 
d="M184 -348v246h441q53 0 77.5 24.5t24.5 77.5v154h-10q-2 -4 -6 -13.5t-22.5 -30t-42 -37t-64.5 -29.5t-90 -13h-113q-109 0 -187.5 78.5t-78.5 187.5v747h297v-645q0 -53 24.5 -77.5t77.5 -24.5h72q76 0 109.5 34t33.5 109v604h297v-1126q0 -106 -80 -186t-186 -80h-574z
M451 1208l163 328h308l-236 -328h-235z" />
    <glyph glyph-name="ydieresis.salt" 
d="M184 -348v246h441q53 0 77.5 24.5t24.5 77.5v154h-10q-2 -4 -6 -13.5t-22.5 -30t-42 -37t-64.5 -29.5t-90 -13h-113q-109 0 -187.5 78.5t-78.5 187.5v747h297v-645q0 -53 24.5 -77.5t77.5 -24.5h72q76 0 109.5 34t33.5 109v604h297v-1126q0 -106 -80 -186t-186 -80h-574z
M225 1229v287h256v-287h-256zM655 1229v287h256v-287h-256z" />
    <glyph glyph-name="amacron.salt" 
d="M492 246h92q76 0 109.5 32.5t33.5 110.5v266q0 78 -34 111t-109 33h-92q-53 0 -78 -24.5t-25 -78.5v-348q0 -53 25 -77.5t78 -24.5zM92 246v553q0 106 79 186t187 80h174q49 0 91.5 -13.5t68 -33t44 -40t26.5 -32.5l6 -14h10l41 112h205v-1044h-205l-41 113h-10
q-2 -6 -7 -14.5t-25.5 -32t-45 -41t-66.5 -31.5t-92 -14h-174q-109 0 -187.5 80t-78.5 186zM236 1239v225h665v-225h-665z" />
    <glyph glyph-name="abreve.salt" 
d="M492 246h92q76 0 109.5 32.5t33.5 110.5v266q0 78 -34 111t-109 33h-92q-53 0 -78 -24.5t-25 -78.5v-348q0 -53 25 -77.5t78 -24.5zM92 246v553q0 106 79 186t187 80h174q49 0 91.5 -13.5t68 -33t44 -40t26.5 -32.5l6 -14h10l41 112h205v-1044h-205l-41 113h-10
q-2 -6 -7 -14.5t-25.5 -32t-45 -41t-66.5 -31.5t-92 -14h-174q-109 0 -187.5 80t-78.5 186zM236 1393v143h245v-61q0 -61 62 -62h71q61 0 62 62v61h246v-143q0 -78 -53.5 -131.5t-131.5 -53.5h-317q-76 0 -130 53.5t-54 131.5z" />
    <glyph glyph-name="aogonek.salt" 
d="M92 246v553q0 106 79 186t187 80h174q49 0 91.5 -13.5t68 -33t44 -40t26.5 -32.5l6 -14h10l41 112h205v-1064q-8 -4 -21.5 -11.5t-46 -32t-58.5 -48t-47.5 -58.5t-21.5 -66q0 -51 52 -51h133v-184h-174q-98 0 -156.5 53t-58.5 137q0 80 51 150t102 100l51 31h-10l-41 113
h-10q-2 -6 -7 -14.5t-25.5 -32t-45 -41t-66.5 -31.5t-92 -14h-174q-109 0 -187.5 80t-78.5 186zM492 246h92q76 0 109.5 32.5t33.5 110.5v266q0 78 -34 111t-109 33h-92q-53 0 -78 -24.5t-25 -78.5v-348q0 -53 25 -77.5t78 -24.5z" />
    <glyph glyph-name="gbreve.salt" 
d="M164 -348v246h461q53 0 77.5 24.5t24.5 77.5v154h-10q-2 -4 -6 -13.5t-22.5 -30t-42 -37t-64.5 -29.5t-90 -13h-134q-109 0 -187.5 78.5t-78.5 187.5v481q0 106 79 186t187 80h666v-1126q0 -106 -80 -186t-186 -80h-594zM492 297h92q76 0 109.5 34t33.5 109v338h-235
q-53 0 -78 -24.5t-25 -77.5v-277q0 -53 25 -77.5t78 -24.5zM236 1393v143h245v-61q0 -61 62 -62h71q61 0 62 62v61h246v-143q0 -78 -53.5 -131.5t-131.5 -53.5h-317q-76 0 -130 53.5t-54 131.5z" />
    <glyph glyph-name="uni0123.salt" 
d="M461 1208v215l123 256h123v-471h-246zM164 -348v246h461q53 0 77.5 24.5t24.5 77.5v154h-10q-2 -4 -6 -13.5t-22.5 -30t-42 -37t-64.5 -29.5t-90 -13h-134q-109 0 -187.5 78.5t-78.5 187.5v481q0 106 79 186t187 80h666v-1126q0 -106 -80 -186t-186 -80h-594zM492 297h92
q76 0 109.5 34t33.5 109v338h-235q-53 0 -78 -24.5t-25 -77.5v-277q0 -53 25 -77.5t78 -24.5z" />
    <glyph glyph-name="Imacron.salt" horiz-adv-x="819" 
d="M82 0v287h174v860h-174v287h655v-287h-174v-860h174v-287h-655zM82 1608v225h655v-225h-655z" />
    <glyph glyph-name="Iogonek.salt" horiz-adv-x="819" 
d="M82 0v287h174v860h-174v287h655v-287h-174v-860h174v-307q-8 -4 -21.5 -11.5t-46 -32t-58 -48t-47 -58.5t-21.5 -66q0 -51 51 -51h133v-184h-174q-98 0 -156.5 53t-58.5 137q0 80 51 150t103 100l51 31h-461z" />
    <glyph glyph-name="Idotaccent.salt" horiz-adv-x="819" 
d="M82 0v287h174v860h-174v287h655v-287h-174v-860h174v-287h-655zM256 1577v307h307v-307h-307z" />
    <glyph glyph-name="lacute.salt" horiz-adv-x="624" 
d="M123 266v1147h297v-1044q0 -53 24.5 -78t77.5 -25h82v-266h-215q-106 0 -186 80t-80 186zM154 1577l163 328h308l-236 -328h-235z" />
    <glyph glyph-name="uni013C.salt" horiz-adv-x="624" 
d="M123 266v1147h297v-1044q0 -53 24.5 -78t77.5 -25h82v-266h-215q-106 0 -186 80t-80 186zM256 -584v451h246v-215l-123 -236h-123z" />
    <glyph glyph-name="lcaron.salt" horiz-adv-x="747" 
d="M123 266v1147h297v-1044q0 -53 24.5 -78t77.5 -25h82v-266h-215q-106 0 -186 80t-80 186zM553 963v471h246v-215l-123 -256h-123z" />
    <glyph glyph-name="lslash.salt" horiz-adv-x="645" 
d="M143 266v348l-123 -51v246l123 51v553h297v-409l144 61v-246l-144 -61v-389q0 -53 24.5 -78t78.5 -25h82v-266h-215q-106 0 -186.5 80t-80.5 186z" />
    <glyph glyph-name="uni0406.salt" horiz-adv-x="819" 
d="M82 0v287h174v860h-174v287h655v-287h-174v-860h174v-287h-655z" />
    <glyph glyph-name="uni0407.salt" horiz-adv-x="819" 
d="M82 0v287h174v860h-174v287h655v-287h-174v-860h174v-287h-655zM61 1597v287h256v-287h-256zM502 1597v287h256v-287h-256z" />
    <glyph glyph-name="uni0430.salt" 
d="M492 246h92q76 0 109.5 32.5t33.5 110.5v266q0 78 -34 111t-109 33h-92q-53 0 -78 -24.5t-25 -78.5v-348q0 -53 25 -77.5t78 -24.5zM92 246v553q0 106 79 186t187 80h174q49 0 91.5 -13.5t68 -33t44 -40t26.5 -32.5l6 -14h10l41 112h205v-1044h-205l-41 113h-10
q-2 -6 -7 -14.5t-25.5 -32t-45 -41t-66.5 -31.5t-92 -14h-174q-109 0 -187.5 80t-78.5 186z" />
    <glyph glyph-name="uni0443.salt" 
d="M184 -348v246h441q53 0 77.5 24.5t24.5 77.5v154h-10q-2 -4 -6 -13.5t-22.5 -30t-42 -37t-64.5 -29.5t-90 -13h-113q-109 0 -187.5 78.5t-78.5 187.5v747h297v-645q0 -53 24.5 -77.5t77.5 -24.5h72q76 0 109.5 34t33.5 109v604h297v-1126q0 -106 -80 -186t-186 -80h-574z
" />
    <glyph glyph-name="uni045E.salt" 
d="M184 -348v246h441q53 0 77.5 24.5t24.5 77.5v154h-10q-2 -4 -6 -13.5t-22.5 -30t-42 -37t-64.5 -29.5t-90 -13h-113q-109 0 -187.5 78.5t-78.5 187.5v747h297v-645q0 -53 24.5 -77.5t77.5 -24.5h72q76 0 109.5 34t33.5 109v604h297v-1126q0 -106 -80 -186t-186 -80h-574z
M246 1393v143h246v-61q0 -61 61 -62h41q61 0 61 62v61h246v-143q0 -78 -53 -131.5t-131 -53.5h-287q-78 0 -131 53.5t-53 131.5z" />
    <glyph glyph-name="uniFB02.salt" horiz-adv-x="1351" 
d="M123 0v1167q0 106 80 186.5t186 80.5h758v-1065q0 -53 24.5 -78t77.5 -25h82v-266h-215q-109 0 -187.5 80t-78.5 186v922h-328q-53 0 -77.5 -24.5t-24.5 -78.5v-143h276v-154l-51 -92h-225v-696h-297z" />
    <glyph glyph-name="uniFB04.salt" horiz-adv-x="2078" 
d="M123 0v1167q0 106 80 186.5t186 80.5h318q63 0 114 -29t72 -57l18 -27h11q6 12 20 30.5t67.5 50.5t116.5 32h748v-1065q0 -53 24.5 -78t77.5 -25h82v-266h-215q-106 0 -186 80t-80 186v922h-328q-53 0 -77.5 -24.5t-24.5 -78.5v-143h276v-154l-51 -92h-225v-696h-297
v1085q0 53 -24.5 78t-77.5 25h-226q-53 0 -77.5 -24.5t-24.5 -78.5v-143h276v-154l-51 -92h-225v-696h-297z" />
    <glyph glyph-name="a.ss02" horiz-adv-x="1044" 
d="M430 215h102q123 0 123 123v92l-215 -41q-92 -18 -92 -92q0 -82 82 -82zM51 246v71q0 98 68.5 171t177.5 96l358 71v52q0 53 -24.5 77.5t-77.5 24.5h-410v235h543q109 0 187.5 -79.5t78.5 -186.5v-532q0 -106 -78.5 -186t-187.5 -80h-369q-109 0 -187.5 80t-78.5 186z
" />
    <glyph glyph-name="e.ss02" horiz-adv-x="1054" 
d="M389 614l236 41q92 16 92 93q0 82 -82 81h-123q-123 0 -123 -122v-93zM92 266v533q0 106 79 186t187 80h390q109 0 187.5 -80t78.5 -186v-72q0 -98 -68.5 -172t-177.5 -94l-379 -72v-51q0 -53 24.5 -77.5t78.5 -24.5h471v-236h-605q-109 0 -187.5 80t-78.5 186z" />
    <glyph glyph-name="u.ss02" horiz-adv-x="1126" 
d="M113 246v798h297v-696q0 -53 24.5 -77.5t77.5 -24.5h102q53 0 78 24.5t25 77.5v696h297v-798q0 -106 -79 -186t-187 -80h-369q-109 0 -187.5 80t-78.5 186z" />
    <glyph glyph-name="y.ss02" horiz-adv-x="1126" 
d="M420 -348v328h-41q-109 0 -187.5 79.5t-78.5 186.5v798h297v-696q0 -53 24.5 -77.5t77.5 -24.5h102q53 0 78 24.5t25 77.5v696h297v-798q0 -106 -79 -186t-187 -80h-41v-328h-287z" />
    <glyph glyph-name="agrave.ss02" horiz-adv-x="1044" 
d="M430 215h102q123 0 123 123v92l-215 -41q-92 -18 -92 -92q0 -82 82 -82zM51 246v71q0 98 68.5 171t177.5 96l358 71v52q0 53 -24.5 77.5t-77.5 24.5h-410v235h543q109 0 187.5 -79.5t78.5 -186.5v-532q0 -106 -78.5 -186t-187.5 -80h-369q-109 0 -187.5 80t-78.5 186z
M461 1208l-236 328h307l164 -328h-235z" />
    <glyph glyph-name="aacute.ss02" horiz-adv-x="1044" 
d="M430 215h102q123 0 123 123v92l-215 -41q-92 -18 -92 -92q0 -82 82 -82zM51 246v71q0 98 68.5 171t177.5 96l358 71v52q0 53 -24.5 77.5t-77.5 24.5h-410v235h543q109 0 187.5 -79.5t78.5 -186.5v-532q0 -106 -78.5 -186t-187.5 -80h-369q-109 0 -187.5 80t-78.5 186z
M410 1208l163 328h308l-236 -328h-235z" />
    <glyph glyph-name="acircumflex.ss02" horiz-adv-x="1044" 
d="M430 215h102q123 0 123 123v92l-215 -41q-92 -18 -92 -92q0 -82 82 -82zM51 246v71q0 98 68.5 171t177.5 96l358 71v52q0 53 -24.5 77.5t-77.5 24.5h-410v235h543q109 0 187.5 -79.5t78.5 -186.5v-532q0 -106 -78.5 -186t-187.5 -80h-369q-109 0 -187.5 80t-78.5 186z
M184 1208l215 328h287l215 -328h-266l-92 164l-92 -164h-267z" />
    <glyph glyph-name="atilde.ss02" horiz-adv-x="1044" 
d="M430 215h102q123 0 123 123v92l-215 -41q-92 -18 -92 -92q0 -82 82 -82zM51 246v71q0 98 68.5 171t177.5 96l358 71v52q0 53 -24.5 77.5t-77.5 24.5h-410v235h543q109 0 187.5 -79.5t78.5 -186.5v-532q0 -106 -78.5 -186t-187.5 -80h-369q-109 0 -187.5 80t-78.5 186z
M225 1208v185q0 61 41 102t103 41h41q57 0 107 -36t82 -71.5t46 -35.5q20 0 21 20v113h204v-185q0 -61 -41 -102t-102 -41h-41q-57 0 -107.5 36t-82 71.5t-45.5 35.5q-20 0 -21 -20v-113h-205z" />
    <glyph glyph-name="adieresis.ss02" horiz-adv-x="1044" 
d="M430 215h102q123 0 123 123v92l-215 -41q-92 -18 -92 -92q0 -82 82 -82zM51 246v71q0 98 68.5 171t177.5 96l358 71v52q0 53 -24.5 77.5t-77.5 24.5h-410v235h543q109 0 187.5 -79.5t78.5 -186.5v-532q0 -106 -78.5 -186t-187.5 -80h-369q-109 0 -187.5 80t-78.5 186z
M195 1229v287h256v-287h-256zM625 1229v287h256v-287h-256z" />
    <glyph glyph-name="aring.ss02" horiz-adv-x="1044" 
d="M430 215h102q123 0 123 123v92l-215 -41q-92 -18 -92 -92q0 -82 82 -82zM51 246v71q0 98 68.5 171t177.5 96l358 71v52q0 53 -24.5 77.5t-77.5 24.5h-410v235h543q109 0 187.5 -79.5t78.5 -186.5v-532q0 -106 -78.5 -186t-187.5 -80h-369q-109 0 -187.5 80t-78.5 186z
M297 1341v62q0 76 58.5 135t136.5 59h102q78 0 136 -59t58 -135v-62q0 -76 -58 -135t-136 -59h-102q-78 0 -136.5 59t-58.5 135zM532 1311h21q51 0 51 51v20q0 51 -51 52h-21q-51 0 -51 -52v-20q0 -51 51 -51z" />
    <glyph glyph-name="ae.ss02" horiz-adv-x="1617" 
d="M51 246v71q0 98 68.5 171t177.5 96l358 71v52q0 53 -24.5 77.5t-77.5 24.5h-410v235h471q59 0 105.5 -22.5t62.5 -46.5l17 -23h10q6 12 20.5 30.5t67.5 50.5t117 32h297q106 0 186 -80t80 -186v-72q0 -98 -68.5 -172t-177.5 -94l-379 -72v-51q0 -53 24.5 -77.5
t78.5 -24.5h471v-236h-522q-55 0 -101.5 22.5t-64.5 47.5l-19 22h-10q-8 -12 -23.5 -30.5t-72 -50t-119.5 -31.5h-277q-109 0 -187.5 80t-78.5 186zM430 215h102q123 0 123 123v92l-215 -41q-92 -18 -92 -92q0 -82 82 -82zM952 614l236 41q92 16 92 93q0 82 -82 81h-123
q-123 0 -123 -122v-93z" />
    <glyph glyph-name="egrave.ss02" horiz-adv-x="1054" 
d="M389 614l236 41q92 16 92 93q0 82 -82 81h-123q-123 0 -123 -122v-93zM92 266v533q0 106 79 186t187 80h390q109 0 187.5 -80t78.5 -186v-72q0 -98 -68.5 -172t-177.5 -94l-379 -72v-51q0 -53 24.5 -77.5t78.5 -24.5h471v-236h-605q-109 0 -187.5 80t-78.5 186zM440 1208
l-235 328h307l164 -328h-236z" />
    <glyph glyph-name="eacute.ss02" horiz-adv-x="1054" 
d="M389 614l236 41q92 16 92 93q0 82 -82 81h-123q-123 0 -123 -122v-93zM92 266v533q0 106 79 186t187 80h390q109 0 187.5 -80t78.5 -186v-72q0 -98 -68.5 -172t-177.5 -94l-379 -72v-51q0 -53 24.5 -77.5t78.5 -24.5h471v-236h-605q-109 0 -187.5 80t-78.5 186zM451 1208
l163 328h308l-236 -328h-235z" />
    <glyph glyph-name="ecircumflex.ss02" horiz-adv-x="1054" 
d="M389 614l236 41q92 16 92 93q0 82 -82 81h-123q-123 0 -123 -122v-93zM92 266v533q0 106 79 186t187 80h390q109 0 187.5 -80t78.5 -186v-72q0 -98 -68.5 -172t-177.5 -94l-379 -72v-51q0 -53 24.5 -77.5t78.5 -24.5h471v-236h-605q-109 0 -187.5 80t-78.5 186zM205 1208
l215 328h287l215 -328h-267l-92 164l-92 -164h-266z" />
    <glyph glyph-name="edieresis.ss02" horiz-adv-x="1054" 
d="M389 614l236 41q92 16 92 93q0 82 -82 81h-123q-123 0 -123 -122v-93zM92 266v533q0 106 79 186t187 80h390q109 0 187.5 -80t78.5 -186v-72q0 -98 -68.5 -172t-177.5 -94l-379 -72v-51q0 -53 24.5 -77.5t78.5 -24.5h471v-236h-605q-109 0 -187.5 80t-78.5 186zM225 1229
v287h256v-287h-256zM655 1229v287h256v-287h-256z" />
    <glyph glyph-name="ugrave.ss02" horiz-adv-x="1126" 
d="M113 246v798h297v-696q0 -53 24.5 -77.5t77.5 -24.5h102q53 0 78 24.5t25 77.5v696h297v-798q0 -106 -79 -186t-187 -80h-369q-109 0 -187.5 80t-78.5 186zM451 1208l-236 328h307l164 -328h-235z" />
    <glyph glyph-name="uacute.ss02" horiz-adv-x="1126" 
d="M113 246v798h297v-696q0 -53 24.5 -77.5t77.5 -24.5h102q53 0 78 24.5t25 77.5v696h297v-798q0 -106 -79 -186t-187 -80h-369q-109 0 -187.5 80t-78.5 186zM451 1208l163 328h308l-236 -328h-235z" />
    <glyph glyph-name="ucircumflex.ss02" horiz-adv-x="1126" 
d="M113 246v798h297v-696q0 -53 24.5 -77.5t77.5 -24.5h102q53 0 78 24.5t25 77.5v696h297v-798q0 -106 -79 -186t-187 -80h-369q-109 0 -187.5 80t-78.5 186zM205 1208l215 328h287l215 -328h-267l-92 164l-92 -164h-266z" />
    <glyph glyph-name="udieresis.ss02" horiz-adv-x="1126" 
d="M113 246v798h297v-696q0 -53 24.5 -77.5t77.5 -24.5h102q53 0 78 24.5t25 77.5v696h297v-798q0 -106 -79 -186t-187 -80h-369q-109 0 -187.5 80t-78.5 186zM215 1229v287h256v-287h-256zM645 1229v287h256v-287h-256z" />
    <glyph glyph-name="yacute.ss02" horiz-adv-x="1126" 
d="M420 -348v328h-41q-109 0 -187.5 79.5t-78.5 186.5v798h297v-696q0 -53 24.5 -77.5t77.5 -24.5h102q53 0 78 24.5t25 77.5v696h297v-798q0 -106 -79 -186t-187 -80h-41v-328h-287zM451 1208l163 328h308l-236 -328h-235z" />
    <glyph glyph-name="ydieresis.ss02" horiz-adv-x="1126" 
d="M420 -348v328h-41q-109 0 -187.5 79.5t-78.5 186.5v798h297v-696q0 -53 24.5 -77.5t77.5 -24.5h102q53 0 78 24.5t25 77.5v696h297v-798q0 -106 -79 -186t-187 -80h-41v-328h-287zM225 1229v287h256v-287h-256zM655 1229v287h256v-287h-256z" />
    <glyph glyph-name="amacron.ss02" horiz-adv-x="1044" 
d="M430 215h102q123 0 123 123v92l-215 -41q-92 -18 -92 -92q0 -82 82 -82zM51 246v71q0 98 68.5 171t177.5 96l358 71v52q0 53 -24.5 77.5t-77.5 24.5h-410v235h543q109 0 187.5 -79.5t78.5 -186.5v-532q0 -106 -78.5 -186t-187.5 -80h-369q-109 0 -187.5 80t-78.5 186z
M205 1239v225h665v-225h-665z" />
    <glyph glyph-name="abreve.ss02" horiz-adv-x="1044" 
d="M430 215h102q123 0 123 123v92l-215 -41q-92 -18 -92 -92q0 -82 82 -82zM51 246v71q0 98 68.5 171t177.5 96l358 71v52q0 53 -24.5 77.5t-77.5 24.5h-410v235h543q109 0 187.5 -79.5t78.5 -186.5v-532q0 -106 -78.5 -186t-187.5 -80h-369q-109 0 -187.5 80t-78.5 186z
M203 1393v143h246v-61q0 -61 61 -62h72q61 0 61 62v61h246v-143q0 -78 -53.5 -131.5t-130.5 -53.5h-318q-76 0 -130 53.5t-54 131.5z" />
    <glyph glyph-name="aogonek.ss02" horiz-adv-x="1044" 
d="M686 -471h-174q-98 0 -156.5 53t-58.5 137q0 74 44 139.5t87 92.5l43 29h-154q-109 0 -187.5 79.5t-78.5 186.5v71q0 98 68.5 171t177.5 96l358 71v52q0 53 -24.5 77.5t-77.5 24.5h-410v235h543q109 0 187.5 -79.5t78.5 -186.5v-532q0 -106 -77.5 -186t-178.5 -80
q-8 -4 -21 -11.5t-46 -32t-58.5 -48t-47 -58.5t-21.5 -66q0 -51 51 -51h133v-184zM430 215h102q123 0 123 123v92l-215 -41q-92 -18 -92 -92q0 -82 82 -82z" />
    <glyph glyph-name="emacron.ss02" horiz-adv-x="1054" 
d="M389 614l236 41q92 16 92 93q0 82 -82 81h-123q-123 0 -123 -122v-93zM92 266v533q0 106 79 186t187 80h390q109 0 187.5 -80t78.5 -186v-72q0 -98 -68.5 -172t-177.5 -94l-379 -72v-51q0 -53 24.5 -77.5t78.5 -24.5h471v-236h-605q-109 0 -187.5 80t-78.5 186zM225 1239
v225h666v-225h-666z" />
    <glyph glyph-name="edotaccent.ss02" horiz-adv-x="1054" 
d="M389 614l236 41q92 16 92 93q0 82 -82 81h-123q-123 0 -123 -122v-93zM92 266v533q0 106 79 186t187 80h390q109 0 187.5 -80t78.5 -186v-72q0 -98 -68.5 -172t-177.5 -94l-379 -72v-51q0 -53 24.5 -77.5t78.5 -24.5h471v-236h-605q-109 0 -187.5 80t-78.5 186zM420 1208
v308h297v-308h-297z" />
    <glyph glyph-name="eogonek.ss02" horiz-adv-x="1054" 
d="M92 266v533q0 106 79 186t187 80h390q109 0 187.5 -80t78.5 -186v-72q0 -98 -68.5 -172t-177.5 -94l-379 -72v-51q0 -53 24.5 -77.5t78.5 -24.5h471v-256q-8 -4 -21.5 -11.5t-46.5 -32t-58.5 -48t-47 -58.5t-21.5 -66q0 -51 51 -51h133v-184h-174q-98 0 -156.5 53
t-58.5 137q0 80 51.5 150t102.5 100l51 31h-410q-109 0 -187.5 80t-78.5 186zM389 614l236 41q92 16 92 93q0 82 -82 81h-123q-123 0 -123 -122v-93z" />
    <glyph glyph-name="ecaron.ss02" horiz-adv-x="1054" 
d="M389 614l236 41q92 16 92 93q0 82 -82 81h-123q-123 0 -123 -122v-93zM92 266v533q0 106 79 186t187 80h390q109 0 187.5 -80t78.5 -186v-72q0 -98 -68.5 -172t-177.5 -94l-379 -72v-51q0 -53 24.5 -77.5t78.5 -24.5h471v-236h-605q-109 0 -187.5 80t-78.5 186zM420 1208
l-215 328h266l92 -164l92 164h267l-215 -328h-287z" />
    <glyph glyph-name="oe.ss02" horiz-adv-x="1699" 
d="M492 246h143q53 0 77.5 24.5t24.5 77.5v348q0 53 -24.5 78t-77.5 25h-143q-53 0 -78 -24.5t-25 -78.5v-348q0 -53 25 -77.5t78 -24.5zM1034 614l236 41q92 16 92 93q0 82 -82 81h-123q-123 0 -123 -122v-93zM92 246v553q0 106 79 186t187 80h318q63 0 114.5 -25.5
t69.5 -52.5l21 -24h10q6 12 20.5 28.5t67.5 45t117 28.5h297q106 0 186 -80t80 -186v-72q0 -98 -68.5 -172t-177.5 -94l-379 -72v-51q0 -53 24.5 -77.5t78.5 -24.5h471v-236h-523q-55 0 -101 22.5t-64 47.5l-19 22h-10q-6 -12 -20.5 -30.5t-67.5 -50t-117 -31.5h-328
q-109 0 -187.5 80t-78.5 186z" />
    <glyph glyph-name="umacron.ss02" horiz-adv-x="1126" 
d="M113 246v798h297v-696q0 -53 24.5 -77.5t77.5 -24.5h102q53 0 78 24.5t25 77.5v696h297v-798q0 -106 -79 -186t-187 -80h-369q-109 0 -187.5 80t-78.5 186zM236 1239v225h665v-225h-665z" />
    <glyph glyph-name="uring.ss02" horiz-adv-x="1126" 
d="M113 246v798h297v-696q0 -53 24.5 -77.5t77.5 -24.5h102q53 0 78 24.5t25 77.5v696h297v-798q0 -106 -79 -186t-187 -80h-369q-109 0 -187.5 80t-78.5 186zM317 1341v62q0 76 58.5 135t136.5 59h102q78 0 136.5 -59t58.5 -135v-62q0 -76 -58.5 -135t-136.5 -59h-102
q-78 0 -136.5 59t-58.5 135zM553 1311h20q51 0 52 51v20q0 51 -52 52h-20q-51 0 -51 -52v-20q0 -51 51 -51z" />
    <glyph glyph-name="uhungarumlaut.ss02" horiz-adv-x="1126" 
d="M113 246v798h297v-696q0 -53 24.5 -77.5t77.5 -24.5h102q53 0 78 24.5t25 77.5v696h297v-798q0 -106 -79 -186t-187 -80h-369q-109 0 -187.5 80t-78.5 186zM266 1208l164 328h266l-215 -328h-215zM645 1208l174 328h266l-225 -328h-215z" />
    <glyph glyph-name="uogonek.ss02" horiz-adv-x="1126" 
d="M748 -471h-175q-98 0 -156.5 53t-58.5 137q0 70 44 135.5t87 96.5l43 29h-153q-109 0 -187.5 79.5t-78.5 186.5v798h297v-696q0 -53 24.5 -77.5t77.5 -24.5h102q53 0 78 24.5t25 77.5v696h297v-798q0 -106 -79 -186t-187 -80q-8 -4 -20.5 -11.5t-44.5 -32t-56.5 -48
t-44 -58.5t-19.5 -66q0 -51 51 -51h134v-184z" />
    <glyph glyph-name="uni0430.ss02" horiz-adv-x="1044" 
d="M430 215h102q123 0 123 123v92l-215 -41q-92 -18 -92 -92q0 -82 82 -82zM51 246v71q0 98 68.5 171t177.5 96l358 71v52q0 53 -24.5 77.5t-77.5 24.5h-410v235h543q109 0 187.5 -79.5t78.5 -186.5v-532q0 -106 -78.5 -186t-187.5 -80h-369q-109 0 -187.5 80t-78.5 186z
" />
    <glyph glyph-name="uni0435.ss02" horiz-adv-x="1054" 
d="M389 614l236 41q92 16 92 93q0 82 -82 81h-123q-123 0 -123 -122v-93zM92 266v533q0 106 79 186t187 80h390q109 0 187.5 -80t78.5 -186v-72q0 -98 -68.5 -172t-177.5 -94l-379 -72v-51q0 -53 24.5 -77.5t78.5 -24.5h471v-236h-605q-109 0 -187.5 80t-78.5 186z" />
    <glyph glyph-name="uni0438.ss02" horiz-adv-x="1126" 
d="M113 246v798h297v-696q0 -53 24.5 -77.5t77.5 -24.5h61q78 0 111 32.5t33 110.5v655h297v-1044h-205l-41 113h-10q-2 -6 -7.5 -14.5t-25.5 -32t-45 -41t-67 -31.5t-91 -14h-143q-109 0 -187.5 80t-78.5 186z" />
    <glyph glyph-name="uni0439.ss02" horiz-adv-x="1126" 
d="M113 246v798h297v-696q0 -53 24.5 -77.5t77.5 -24.5h61q78 0 111 32.5t33 110.5v655h297v-1044h-205l-41 113h-10q-2 -6 -7.5 -14.5t-25.5 -32t-45 -41t-67 -31.5t-91 -14h-143q-109 0 -187.5 80t-78.5 186zM236 1393v143h245v-61q0 -61 62 -62h41q61 0 61 62v61h246
v-143q0 -78 -54.5 -131.5t-129.5 -53.5h-287q-76 0 -130 53.5t-54 131.5z" />
    <glyph glyph-name="uni0443.ss02" horiz-adv-x="1126" 
d="M420 -348v328h-41q-109 0 -187.5 79.5t-78.5 186.5v798h297v-696q0 -53 24.5 -77.5t77.5 -24.5h102q53 0 78 24.5t25 77.5v696h297v-798q0 -106 -79 -186t-187 -80h-41v-328h-287z" />
    <glyph glyph-name="uni0451.ss02" horiz-adv-x="1054" 
d="M215 1229v287h256v-287h-256zM645 1229v287h256v-287h-256zM389 614l236 41q92 16 92 93q0 82 -82 81h-123q-123 0 -123 -122v-93zM92 266v533q0 106 79 186t187 80h390q109 0 187.5 -80t78.5 -186v-72q0 -98 -68.5 -172t-177.5 -94l-379 -72v-51q0 -53 24.5 -77.5
t78.5 -24.5h471v-236h-605q-109 0 -187.5 80t-78.5 186z" />
    <glyph glyph-name="uni045E.ss02" horiz-adv-x="1126" 
d="M420 -348v328h-41q-109 0 -187.5 79.5t-78.5 186.5v798h297v-696q0 -53 24.5 -77.5t77.5 -24.5h102q53 0 78 24.5t25 77.5v696h297v-798q0 -106 -79 -186t-187 -80h-41v-328h-287zM236 1393v143h245v-61q0 -61 62 -62h41q61 0 61 62v61h246v-143q0 -78 -54.5 -131.5
t-129.5 -53.5h-287q-76 0 -130 53.5t-54 131.5z" />
    <glyph glyph-name="parenleft.case" horiz-adv-x="696" 
d="M133 31v1372q0 137 85 222t222 85h205v-287h-82q-123 0 -123 -123v-1167q0 -123 123 -123h82v-286h-205q-137 0 -222 85t-85 222z" />
    <glyph glyph-name="parenright.case" horiz-adv-x="696" 
d="M51 -276v286h82q123 0 123 123v1167q0 123 -123 123h-82v287h205q137 0 222 -85t85 -222v-1372q0 -137 -85 -222t-222 -85h-205z" />
    <glyph glyph-name="hyphen.case" horiz-adv-x="798" 
d="M72 584v266h655v-266h-655z" />
    <glyph glyph-name="at.case" horiz-adv-x="1679" 
d="M113 225v983q0 123 81.5 205t204.5 82h881q123 0 205 -82t82 -205v-819h-215l-41 113h-11q-2 -6 -7 -14.5t-24.5 -32t-43 -41t-64.5 -31.5t-86 -14h-164q-109 0 -187.5 79.5t-78.5 186.5v143q0 106 79 186t187 80h359v82q0 123 -123 123h-615q-123 0 -122 -123v-819
q0 -123 122 -123h1014v-245h-1147q-123 0 -204.5 81.5t-81.5 204.5zM1034 614h92q78 0 111 33t33 111v61h-236q-92 0 -92 -92v-20q0 -93 92 -93z" />
    <glyph glyph-name="bracketleft.case" horiz-adv-x="706" 
d="M133 -276v1986h522v-287h-225v-1413h225v-286h-522z" />
    <glyph glyph-name="bracketright.case" horiz-adv-x="706" 
d="M51 -276v286h225v1413h-225v287h522v-1986h-522z" />
    <glyph glyph-name="braceleft.case" horiz-adv-x="819" 
d="M246 10v471q0 47 -29 75t-74 28h-51v266h51q45 0 74 27.5t29 74.5v471q0 123 82 205t204 82h236v-266h-123q-53 0 -77.5 -24.5t-24.5 -78.5v-378q0 -51 -19.5 -94.5t-46 -69t-53.5 -43t-47 -23.5l-19 -6v-20q8 -2 20.5 -6.5t44.5 -24t56.5 -43t44 -67.5t19.5 -95v-379
q0 -53 24.5 -77.5t77.5 -24.5h123v-266h-236q-123 0 -204.5 81.5t-81.5 204.5z" />
    <glyph glyph-name="braceright.case" horiz-adv-x="819" 
d="M51 -276v266h123q53 0 77.5 24.5t24.5 77.5v379q0 51 19.5 94t46.5 68.5t53.5 43t46.5 23.5l19 7v20q-8 2 -20.5 6t-44 23.5t-56.5 43t-44.5 67.5t-19.5 96v378q0 53 -24.5 78t-77.5 25h-123v266h236q123 0 204.5 -82t81.5 -205v-471q0 -47 29 -74.5t74 -27.5h51v-266
h-51q-45 0 -74 -28t-29 -75v-471q0 -123 -81.5 -204.5t-204.5 -81.5h-236z" />
    <glyph glyph-name="exclamdown.case" horiz-adv-x="552" 
d="M113 0v471l61 492h205l61 -492v-471h-327zM143 1126v308h267v-308h-267z" />
    <glyph glyph-name="guillemotleft.case" horiz-adv-x="1034" 
d="M297 348l-225 369l225 368h215v-102l-174 -266l174 -266v-103h-215zM727 348l-225 369l225 368h215v-102l-174 -266l174 -266v-103h-215z" />
    <glyph glyph-name="periodcentered.case" horiz-adv-x="512" 
d="M123 553v307h266v-307h-266z" />
    <glyph glyph-name="guillemotright.case" horiz-adv-x="1034" 
d="M522 348v103l174 266l-174 266v102h215l226 -368l-226 -369h-215zM92 348v103l174 266l-174 266v102h215l225 -368l-225 -369h-215z" />
    <glyph glyph-name="questiondown.case" horiz-adv-x="993" 
d="M72 307v185q0 90 33.5 152.5t82 92t96.5 51t81.5 48t33.5 65.5v62h267v-123q0 -80 -30 -132.5t-72 -77t-84 -45t-71.5 -52t-29.5 -82.5v-41q0 -123 123 -123h348l92 -92v-195h-563q-137 0 -222 84t-85 223zM399 1126v308h267v-308h-267z" />
    <glyph glyph-name="endash.case" horiz-adv-x="1146" 
d="M72 584v256h1003v-256h-1003z" />
    <glyph glyph-name="emdash.case" horiz-adv-x="1720" 
d="M72 584v256h1577v-256h-1577z" />
    <glyph glyph-name="bullet.case" horiz-adv-x="860" 
d="M246 655v123q0 123 123 123h123q123 0 122 -123v-123q0 -123 -122 -123h-123q-123 0 -123 123z" />
    <glyph glyph-name="guilsinglleft.case" horiz-adv-x="716" 
d="M399 266l-327 451l327 450h205v-133l-235 -317l235 -318v-133h-205z" />
    <glyph glyph-name="guilsinglright.case" horiz-adv-x="716" 
d="M113 266v133l235 318l-235 317v133h204l328 -450l-328 -451h-204z" />
    <glyph glyph-name="zero.dnom" horiz-adv-x="716" 
d="M61 184v348q0 78 60.5 136.5t144.5 58.5h185q84 0 144 -58.5t60 -136.5v-348q0 -78 -60 -136t-144 -58h-185q-84 0 -144.5 58t-60.5 136zM338 184h41q61 0 61 62v225q0 61 -61 61h-41q-61 0 -62 -61v-225q1 -62 62 -62z" />
    <glyph glyph-name="one.dnom" horiz-adv-x="675" 
d="M123 0v184h123v308h-123v163h123v62h215v-533h123v-184h-461z" />
    <glyph glyph-name="two.dnom" horiz-adv-x="716" 
d="M72 0v174l276 225q72 57 72 93q0 16 -13.5 28t-27.5 12h-225l-72 72v113h369q78 0 131 -53.5t53 -131.5v-30q0 -72 -24.5 -113t-78.5 -82l-143 -112v-11h246v-184h-563z" />
    <glyph glyph-name="three.dnom" horiz-adv-x="716" 
d="M61 0v174h308q51 0 51 51t-51 51h-164v134l133 122v11h-215l-62 61v113h543v-144l-143 -133v-10q70 0 122 -54t52 -130v-62q0 -78 -53.5 -131t-130.5 -53h-390z" />
    <glyph glyph-name="four.dnom" horiz-adv-x="716" 
d="M20 143v164l267 410h174v-82l-205 -318v-10h133v129h195v-129h82v-164h-82v-143h-215v143h-349z" />
    <glyph glyph-name="five.dnom" horiz-adv-x="665" 
d="M51 0v174h287q61 0 61 61.5t-61 61.5h-277v420h533v-113l-62 -61h-256v-82h154q78 0 131 -54.5t53 -130.5v-92q0 -78 -53 -131t-131 -53h-379z" />
    <glyph glyph-name="six.dnom" horiz-adv-x="665" 
d="M41 174v92q0 68 61 154l215 297h164v-82l-123 -174v-10h82q76 0 130.5 -53.5t54.5 -131.5v-92q0 -76 -54.5 -130t-130.5 -54h-215q-78 0 -131 54t-53 130zM317 164h31q61 0 61.5 61.5t-61.5 61.5h-31q-61 0 -61 -61.5t61 -61.5z" />
    <glyph glyph-name="seven.dnom" horiz-adv-x="614" 
d="M143 0v82l236 450v11h-338v174h573v-154l-266 -563h-205z" />
    <glyph glyph-name="eight.dnom" horiz-adv-x="686" 
d="M317 154h52q61 0 61 61t-61 61h-52q-61 0 -61 -61t61 -61zM328 440h30q61 0 62 64q0 59 -62 59h-30q-61 0 -62 -59q1 -64 62 -64zM41 184v21q0 59 28.5 100t57.5 51l27 13v10q-4 2 -10.5 4t-22 13.5t-27.5 26.5t-22.5 42t-10.5 57v21q0 84 50.5 134t134.5 50h194
q84 0 134.5 -50t50.5 -134v-21q0 -49 -23.5 -85t-46.5 -48l-23 -10v-10q4 -2 12.5 -4.5t28 -15.5t34 -29.5t26.5 -47t12 -67.5v-21q0 -92 -53 -143t-152 -51h-194q-98 0 -151.5 51t-53.5 143z" />
    <glyph glyph-name="nine.dnom" horiz-adv-x="665" 
d="M184 0v82l123 174v10h-82q-78 0 -131 53.5t-53 131.5v92q0 76 53 130t131 54h215q76 0 130.5 -54.5t54.5 -129.5v-92q0 -68 -62 -154l-215 -297h-164zM317 430h31q61 0 61.5 61.5t-61.5 61.5h-31q-61 0 -61 -61.5t61 -61.5z" />
    <glyph glyph-name="plus.case" horiz-adv-x="1024" 
d="M72 584v266h307v307h266v-307h307v-266h-307v-308h-266v308h-307z" />
    <glyph glyph-name="colon.lnum" horiz-adv-x="450" 
d="M92 195v307h266v-307h-266zM92 932v307h266v-307h-266z" />
    <glyph glyph-name="less.case" horiz-adv-x="1044" 
d="M92 588v246l860 389v-267l-522 -235v-21l522 -235v-266z" />
    <glyph glyph-name="equal.case" horiz-adv-x="1054" 
d="M113 799v245h829v-245h-829zM113 389v246h829v-246h-829z" />
    <glyph glyph-name="greater.case" horiz-adv-x="1044" 
d="M92 199v266l522 235v21l-522 235v267l860 -389v-246z" />
    <glyph glyph-name="asciitilde.case" horiz-adv-x="1024" 
d="M72 502v266q0 76 54 130t130 54h61q102 0 164 -61l164 -143q10 -10 31 -11q31 0 31 31v164h245v-266q0 -76 -54 -130.5t-130 -54.5h-61q-102 0 -164 62l-164 143q-10 10 -31 10q-31 0 -31 -30v-164h-245z" />
    <glyph glyph-name="logicalnot.case" horiz-adv-x="1034" 
d="M72 686v266h870v-512h-287v246h-583z" />
    <glyph glyph-name="plusminus.case" horiz-adv-x="1024" 
d="M92 174v266h287v236h-307v266h307v307h266v-307h307v-266h-307v-236h287v-266h-840z" />
    <glyph glyph-name="multiply.case" horiz-adv-x="1003" 
d="M82 481l235 236l-235 235l184 185l236 -236l235 236l185 -185l-236 -235l236 -236l-185 -184l-235 235l-236 -235z" />
    <glyph glyph-name="divide.case" horiz-adv-x="1024" 
d="M72 584v266h880v-266h-880zM369 143v277h286v-277h-286zM369 1014v276h286v-276h-286z" />
    <glyph glyph-name="minus.case" horiz-adv-x="1024" 
d="M72 584v266h880v-266h-880z" />
    <glyph glyph-name="zero.frac" horiz-adv-x="716" 
d="M61 901v348q0 78 60.5 136.5t144.5 58.5h185q84 0 144 -58.5t60 -136.5v-348q0 -78 -60 -136t-144 -58h-185q-84 0 -144.5 58t-60.5 136zM338 901h41q61 0 61 62v225q0 61 -61 61h-41q-61 0 -62 -61v-225q1 -62 62 -62z" />
    <glyph glyph-name="one.frac" horiz-adv-x="675" 
d="M123 717v184h123v307h-123v164h123v62h215v-533h123v-184h-461z" />
    <glyph glyph-name="two.frac" horiz-adv-x="716" 
d="M72 717v174l276 225q72 57 72 92q0 16 -13.5 28.5t-27.5 12.5h-225l-72 72v113h369q78 0 131 -53.5t53 -131.5v-30q0 -72 -24.5 -113t-78.5 -82l-143 -113v-10h246v-184h-563z" />
    <glyph glyph-name="three.frac" horiz-adv-x="716" 
d="M61 717v174h308q51 0 51 51t-51 51h-164v133l133 123v11h-215l-62 61v113h543v-144l-143 -133v-10q70 0 122 -54.5t52 -129.5v-62q0 -78 -53.5 -131t-130.5 -53h-390z" />
    <glyph glyph-name="four.frac" horiz-adv-x="716" 
d="M20 860v164l267 410h174v-82l-205 -318v-10h133v129h195v-129h82v-164h-82v-143h-215v143h-349z" />
    <glyph glyph-name="five.frac" horiz-adv-x="665" 
d="M51 717v174h287q61 0 61 61.5t-61 61.5h-277v420h533v-113l-62 -61h-256v-82h154q78 0 131 -54.5t53 -130.5v-92q0 -78 -53 -131t-131 -53h-379z" />
    <glyph glyph-name="six.frac" horiz-adv-x="665" 
d="M41 891v92q0 68 61 154l215 297h164v-82l-123 -174v-11h82q76 0 130.5 -53t54.5 -131v-92q0 -76 -54.5 -130t-130.5 -54h-215q-78 0 -131 54t-53 130zM317 881h31q61 0 61.5 61.5t-61.5 61.5h-31q-61 0 -61 -61.5t61 -61.5z" />
    <glyph glyph-name="seven.frac" horiz-adv-x="614" 
d="M143 717v82l236 450v11h-338v174h573v-154l-266 -563h-205z" />
    <glyph glyph-name="eight.frac" horiz-adv-x="686" 
d="M317 870h52q61 0 61 61.5t-61 61.5h-52q-61 0 -61 -61.5t61 -61.5zM328 1157h30q61 0 62 64q0 59 -62 59h-30q-61 0 -62 -59q1 -64 62 -64zM41 901v21q0 59 28.5 100t57.5 51l27 12v11q-4 2 -10.5 4t-22 13t-27.5 26.5t-22.5 42t-10.5 57.5v21q0 84 50.5 134t134.5 50
h194q84 0 134.5 -50.5t50.5 -133.5v-21q0 -49 -23.5 -85t-46.5 -48l-23 -10v-11q4 -2 12.5 -4t28 -15t34 -29.5t26.5 -47.5t12 -67v-21q0 -92 -53 -143t-152 -51h-194q-98 0 -151.5 51t-53.5 143z" />
    <glyph glyph-name="nine.frac" horiz-adv-x="665" 
d="M184 717v82l123 174v10h-82q-78 0 -131 53.5t-53 130.5v93q0 76 53 130t131 54h215q76 0 130.5 -54.5t54.5 -129.5v-93q0 -68 -62 -153l-215 -297h-164zM317 1147h31q61 0 61.5 61.5t-61.5 61.5h-31q-61 0 -61 -61.5t61 -61.5z" />
    <glyph glyph-name="zero.tnum" horiz-adv-x="1116" 
d="M492 266h133q123 0 123 123v655q0 123 -123 123h-133q-123 0 -123 -123v-655q0 -123 123 -123zM61 287v860q0 139 84 223t224 84h379q137 0 222 -84t85 -223v-860q0 -139 -85 -223t-222 -84h-379q-139 0 -223.5 84t-84.5 223z" />
    <glyph glyph-name="one.tnum" horiz-adv-x="1116" 
d="M164 0v276h246v768h-236v267h236v133h307v-1168h246v-276h-799z" />
    <glyph glyph-name="two.tnum" horiz-adv-x="1116" 
d="M92 0v266l522 533q33 33 46.5 49t24.5 51t11 84v41q0 123 -123 123h-368l-92 92v195h583q139 0 223.5 -84t84.5 -224v-194q0 -72 -21.5 -129.5t-45.5 -86t-77 -81.5l-338 -338v-10h482v-287h-912z" />
    <glyph glyph-name="three.tnum" horiz-adv-x="1116" 
d="M92 0v287h492q123 0 123 123v51q0 123 -123 123h-267v235l277 318v10h-410l-92 92v195h871v-256l-277 -318v-20h41q131 0 214 -83t83 -214v-236q0 -139 -84 -223t-223 -84h-625z" />
    <glyph glyph-name="four.tnum" horiz-adv-x="1116" 
d="M41 287v266l430 881h246v-154l-338 -696v-11h287v308h276v-308h164v-286h-164v-287h-307v287h-594z" />
    <glyph glyph-name="five.tnum" horiz-adv-x="1116" 
d="M113 0v287h481q123 0 123 123v82q0 123 -123 122h-461v820h850v-195l-92 -92h-451v-246h277q139 0 223 -84t84 -223v-287q0 -139 -84 -223t-223 -84h-604z" />
    <glyph glyph-name="six.tnum" horiz-adv-x="1116" 
d="M502 266h112q123 0 123 123v103q0 123 -123 122h-112q-123 0 -123 -122v-103q0 -123 123 -123zM72 287v297q0 74 18.5 132t36.5 88t68 97l389 533h245v-154l-286 -389v-10h194q139 0 223 -84t84 -224v-286q0 -139 -83.5 -223t-223.5 -84h-358q-137 0 -222 84t-85 223z
" />
    <glyph glyph-name="seven.tnum" horiz-adv-x="1116" 
d="M287 0v143l399 994v10h-584v287h922v-267l-461 -1167h-276z" />
    <glyph glyph-name="eight.tnum" horiz-adv-x="1116" 
d="M481 266h144q123 0 123 123v82q0 123 -123 123h-144q-123 0 -123 -123v-82q0 -123 123 -123zM512 881h82q123 0 123 123v40q0 123 -123 123h-82q-123 0 -123 -123v-40q0 -123 123 -123zM51 287v174q0 66 21.5 118t51.5 78.5t59.5 44t49.5 21.5l23 4v21q-6 2 -18.5 6
t-42 23.5t-53 46t-42 76.5t-18.5 114v133q0 139 84 223t223 84h328q139 0 223 -84t84 -223v-133q0 -63 -18.5 -113.5t-43 -78t-50 -46t-44.5 -22.5l-18 -6v-23q8 -2 22.5 -5t49 -20.5t61.5 -43t49.5 -78t22.5 -117.5v-174q0 -139 -85 -223t-222 -84h-390q-137 0 -222 84
t-85 223z" />
    <glyph glyph-name="nine.tnum" horiz-adv-x="1116" 
d="M502 819h112q123 0 123 123v102q0 123 -123 123h-112q-123 0 -123 -123v-102q0 -123 123 -123zM287 0v154l286 389v10h-194q-137 0 -222 84t-85 223v287q0 139 85 223t222 84h358q139 0 223 -84t84 -223v-297q0 -74 -18 -132.5t-36.5 -88t-67.5 -97.5l-390 -532h-245z
" />
    <glyph glyph-name="uniF730.tnum" horiz-adv-x="1116" 
d="M502 266h102q123 0 123 123v266q0 123 -123 123h-102q-123 0 -123 -123v-266q0 -123 123 -123zM72 287v471q0 139 85 223t222 84h348q137 0 222 -84t85 -223v-471q0 -139 -85 -223t-222 -84h-348q-137 0 -222 84t-85 223z" />
    <glyph glyph-name="uniF731.tnum" horiz-adv-x="1116" 
d="M143 0v287h287v399h-246v246h246v112h307v-757h256v-287h-850z" />
    <glyph glyph-name="uniF732.tnum" horiz-adv-x="1116" 
d="M102 0v236l492 296q82 49 82 123v21q0 82 -82 82h-379l-92 92v194h584q137 0 222 -83.5t85 -223.5v-61q0 -209 -174 -297l-185 -92v-21h359v-266h-912z" />
    <glyph glyph-name="uniF733.tnum" horiz-adv-x="1116" 
d="M92 -348v287h492q123 0 123 122v21q0 123 -123 123h-267v246l267 286v21h-400l-92 92v194h871v-256l-277 -296v-21h41q131 0 214 -83t83 -214v-215q0 -139 -84 -223t-223 -84h-625z" />
    <glyph glyph-name="uniF734.tnum" horiz-adv-x="1116" 
d="M41 0v266l512 778h246v-133q-68 -104 -205 -307t-205 -307v-10h277v256h286v-256h154v-287h-154v-348h-317v348h-594z" />
    <glyph glyph-name="uniF735.tnum" horiz-adv-x="1116" 
d="M113 -348v287h481q123 0 123 122v62q0 123 -123 123h-461v798h850v-194l-92 -92h-451v-226h277q139 0 223 -83.5t84 -223.5v-266q0 -139 -84 -223t-223 -84h-604z" />
    <glyph glyph-name="uniF736.tnum" horiz-adv-x="1116" 
d="M502 266h112q123 0 123 123v103q0 123 -123 122h-112q-123 0 -123 -122v-103q0 -123 123 -123zM72 287v297q0 74 18.5 132t36.5 88t68 97l389 533h245v-154l-286 -389v-10h194q139 0 223 -84t84 -224v-286q0 -139 -83.5 -223t-223.5 -84h-358q-137 0 -222 84t-85 223z
" />
    <glyph glyph-name="uniF737.tnum" horiz-adv-x="1116" 
d="M287 -348v153l399 938v15h-584v286h922v-266l-461 -1126h-276z" />
    <glyph glyph-name="uniF738.tnum" horiz-adv-x="1116" 
d="M481 266h144q123 0 123 123v82q0 123 -123 123h-144q-123 0 -123 -123v-82q0 -123 123 -123zM512 881h82q123 0 123 123v40q0 123 -123 123h-82q-123 0 -123 -123v-40q0 -123 123 -123zM51 287v174q0 66 21.5 118t51.5 78.5t59.5 44t49.5 21.5l23 4v21q-6 2 -18.5 6
t-42 23.5t-53 46t-42 76.5t-18.5 114v133q0 139 84 223t223 84h328q139 0 223 -84t84 -223v-133q0 -63 -18.5 -113.5t-43 -78t-50 -46t-44.5 -22.5l-18 -6v-23q8 -2 22.5 -5t49 -20.5t61.5 -43t49.5 -78t22.5 -117.5v-174q0 -139 -85 -223t-222 -84h-390q-137 0 -222 84
t-85 223z" />
    <glyph glyph-name="uniF739.tnum" horiz-adv-x="1116" 
d="M297 -348v133l276 369v10h-194q-137 0 -222 84t-85 223v287q0 139 85 223t222 84h358q139 0 223 -84t84 -223v-297q0 -98 -29.5 -166t-92.5 -152l-369 -491h-256zM502 430h112q123 0 123 123v102q0 123 -123 123h-112q-123 0 -123 -123v-102q0 -123 123 -123z" />
    <glyph glyph-name="glyph624" horiz-adv-x="3149" 
d="M350 471v408h-145v63h364v-63h-147v-408h-72zM897 346v459h49l19 -39q39 45 98 45q66 0 112 -51t46 -121q0 -74 -46.5 -124t-111.5 -50q-59 0 -96 43v-162h-70zM1153 639q0 43 -28.5 74.5t-67.5 31.5t-67.5 -31.5t-28.5 -74.5q0 -45 27.5 -78t68.5 -33q39 0 67.5 33
t28.5 78zM569 348v58q47 0 64 40l12 33l-129 326h76l90 -238l90 238h76l-158 -389q-33 -70 -100 -70q-15 0 -21 2zM1511 561h72q-18 -45 -58 -70.5t-89 -25.5q-66 0 -113 50t-47 124q0 72 47 122t112.5 50t110.5 -50t45 -120l-2 -31h-243q4 -35 29.5 -59.5t60.5 -24.5
q55 0 75 35zM1346 666h180q-2 35 -30 58.5t-60.5 23.5t-59 -22.5t-30.5 -59.5zM1704 471v408h-145v63h364v-63h-147v-408h-72zM2251 346v459h49l18 -39q39 45 99 45q66 0 111.5 -51t45.5 -121q0 -74 -46 -124t-111 -50q-59 0 -97 43v-162h-69zM2507 639q0 43 -29 74.5
t-67.5 31.5t-67.5 -31.5t-29 -74.5q0 -45 28 -78t68 -33q39 0 68 33t29 78zM1923 348v58q47 0 64 40l12 33l-129 326h76l90 -238l90 238h76l-158 -389q-33 -70 -100 -70q-15 0 -21 2zM2865 561h72q-18 -45 -58 -70.5t-90 -25.5q-66 0 -112.5 50t-46.5 124q0 72 47 122
t112.5 50t110.5 -50t45 -120l-2 -31h-244q4 -35 30 -59.5t60 -24.5q56 0 76 35zM2699 666h180q-2 35 -29.5 58.5t-60 23.5t-59.5 -22.5t-31 -59.5z" />
    </font>
</defs>
</svg>
